<?xml version="1.0" standalone="no"?>
<!DOCTYPE svg PUBLIC "-//W3C//DTD SVG 1.1//EN" "http://www.w3.org/Graphics/SVG/1.1/DTD/svg11.dtd" >
<svg xmlns="http://www.w3.org/2000/svg" xmlns:xlink="http://www.w3.org/1999/xlink" version="1.1">
<metadata></metadata>
<defs>
<font id="louis_george_cafebold" horiz-adv-x="1432" >
<font-face units-per-em="2048" ascent="1638" descent="-410" />
<missing-glyph horiz-adv-x="508" />
<glyph horiz-adv-x="0" />
<glyph horiz-adv-x="0" />
<glyph unicode="&#xd;" horiz-adv-x="0" />
<glyph unicode=" "  horiz-adv-x="508" />
<glyph unicode="&#x09;" horiz-adv-x="508" />
<glyph unicode="&#xa0;" horiz-adv-x="508" />
<glyph unicode="!" horiz-adv-x="712" d="M266 122v8q0 46 38 86q40 36 90 36q60 0 102 -52q24 -34 24 -70v-8q0 -48 -40 -88q-30 -26 -56 -32q-16 -2 -24 -2h-14q-32 0 -66 24t-48 64q-6 18 -6 34zM266 1464h254q-8 -290 -30 -1158l-2 -2h-192v2q-8 290 -30 1158z" />
<glyph unicode="&#x22;" horiz-adv-x="958" d="M178 1102v398h194v-398q0 -2 -2 -2h-190zM510 1100v2v398h192v-398v-2h-192z" />
<glyph unicode="#" horiz-adv-x="998" d="M36 424v192q0 2 2 2h144q8 46 34 184h-124q0 2 -2 2v192q2 0 2 2h156q16 86 62 346h2q182 -32 188 -34l-54 -312h192q16 84 60 336q188 -32 190 -34q-18 -102 -54 -302h126v-196h-160l-32 -184h136v-2v-192h-170q-18 -98 -70 -394q-48 8 -190 34l64 360h-194 q-16 -96 -66 -384l-192 32q16 88 62 352h-110h-2zM378 618h194l32 184h-194z" />
<glyph unicode="$" horiz-adv-x="1144" d="M96 326q160 78 174 84q60 -120 180 -164q58 -20 120 -20q110 0 194 56q28 22 46 48q36 52 36 108q0 84 -82 138q-20 10 -42 18q-26 12 -98 26q-200 44 -292 88q-206 96 -206 292v2q0 132 90 238q26 30 44 44q28 22 54 38q34 20 64 32q32 14 82 24h6v114v2h192v-2v-108 l24 -2q104 -22 194 -86q26 -16 60 -54q40 -42 48 -58q10 -14 16 -26q-122 -64 -170 -92q-6 14 -38 46q-86 86 -212 86q-106 0 -180 -52q-14 -8 -34 -28q-48 -54 -48 -116q0 -54 34 -82q18 -14 34 -22q40 -24 116 -48q88 -26 222 -52q60 -16 100 -36q40 -18 82 -50 q14 -12 40 -38q48 -52 70 -114t22 -118v-10q0 -104 -62 -206q-16 -24 -46 -54q-26 -28 -50 -44q-36 -24 -70 -40q-34 -18 -80 -32q-28 -10 -72 -16v-110v-2h-192v2v112l-24 6q-114 26 -210 104q-48 42 -68 70q-36 44 -52 76q-16 24 -16 28zM466 -128v1696v2h192v-2v-1696v-2 h-192v2z" />
<glyph unicode="%" horiz-adv-x="1664" d="M94 1134v14q0 78 48 158q12 22 42 52q44 38 72 50q74 40 154 40q128 0 228 -88q34 -36 46 -58q46 -78 46 -160q0 -118 -84 -210q-34 -34 -56 -46q-84 -54 -172 -54h-12q-84 0 -164 48q-26 14 -56 42q-30 30 -42 52q-50 80 -50 160zM250 -14q236 370 948 1478h202 q-236 -370 -946 -1478h-4h-200zM298 1140q0 -48 46 -82q30 -20 68 -20q60 0 98 50q16 24 16 54q0 56 -60 90q-26 10 -52 10h-4q-52 0 -90 -40q-22 -26 -22 -62zM934 300q0 116 84 208q32 32 44 38q26 20 50 30q68 32 136 32h8q100 0 190 -62q16 -12 44 -38q40 -46 60 -98 q22 -52 22 -106v-8q0 -88 -58 -172q-10 -16 -40 -46q-44 -42 -96 -62q-60 -24 -124 -24q-120 0 -214 78q-38 34 -46 50q-60 82 -60 180zM1138 298q0 -48 46 -80q32 -20 70 -20q58 0 96 48q18 26 18 56q0 54 -58 88q-28 12 -54 12h-6q-50 0 -88 -42q-24 -26 -24 -62z" />
<glyph unicode="&#x26;" horiz-adv-x="1304" d="M100 312v16q0 58 18 124q14 40 32 70q18 36 52 78q54 64 124 122q66 54 114 86q8 6 22 14q-72 112 -110 178q-32 66 -32 138v12q0 148 144 248q104 66 218 66q100 0 198 -50q28 -16 54 -36q108 -92 108 -242q0 -74 -28 -128q-62 -122 -278 -248q112 -166 246 -354 q4 -4 10 -12q22 24 88 92q36 -34 138 -136q-92 -94 -114 -114q30 -42 90 -124q-4 -8 -148 -112l-6 -2q-28 36 -82 112q-226 -166 -460 -166q-100 0 -170 30q-142 58 -200 194q-28 72 -28 144zM294 320q0 -126 114 -170q34 -14 90 -14q172 0 346 130q-156 220 -276 396 q-50 -32 -112 -82q-24 -20 -72 -66q-6 -8 -18 -20q-46 -52 -60 -88q-12 -38 -12 -86zM514 1144q0 -42 22 -72q32 -56 80 -132q12 -20 14 -20q64 36 126 84q22 18 52 48q42 44 42 76v8q0 86 -82 114q-42 20 -84 20h-2q-72 0 -130 -48q-28 -28 -32 -40q-6 -10 -6 -38z" />
<glyph unicode="'" horiz-adv-x="514" d="M138 1100v400h194v-400l-2 -2h-190q0 2 -2 2z" />
<glyph unicode="(" horiz-adv-x="784" d="M134 624q0 412 134 670q136 242 340 242h20q0 -2 4 -4v-188q-2 0 -4 -2h-22q-120 0 -218 -248q-62 -190 -62 -474q0 -322 130 -540q74 -108 146 -108h26l4 -4v-186q-2 0 -4 -4h-26q-220 0 -364 302q-104 240 -104 544z" />
<glyph unicode=")" horiz-adv-x="784" d="M152 -32q0 2 2 4h28q72 0 144 108q130 218 130 540q0 284 -62 474q-98 248 -216 248h-24l-2 2v188l2 4h28q112 -24 170 -60q98 -60 162 -182q136 -258 136 -670q0 -304 -106 -544q-142 -302 -364 -302h-26q0 2 -2 4v186z" />
<glyph unicode="*" horiz-adv-x="1072" d="M158 1174q16 46 66 180q206 -74 210 -74v224l2 2h192l2 -2v-224q52 18 210 74q18 -44 66 -180q-2 -2 -216 -78q34 -46 134 -182q-40 -28 -158 -114q-4 6 -56 78q-74 98 -78 106q-6 -8 -124 -166l-12 -18q-38 30 -156 114v2q34 44 134 180q-54 20 -214 78h-2z" />
<glyph unicode="+" horiz-adv-x="830" d="M70 414v194h258v256h2h190h2v-256h256l2 -2v-190q0 -2 -2 -2h-256v-260h-194v260h-258z" />
<glyph unicode="," horiz-adv-x="598" d="M104 -212q128 118 128 212q-46 18 -66 62q-16 26 -16 58q0 62 58 104q32 22 72 22q62 0 102 -56q24 -36 24 -94q0 -156 -186 -320q-52 -48 -66 -54q-18 22 -50 66z" />
<glyph unicode="-" horiz-adv-x="864" d="M76 414v194h706v-2v-190v-2h-706z" />
<glyph unicode="." horiz-adv-x="554" d="M152 122v8q0 46 38 86q36 36 88 36q60 0 100 -52q24 -34 24 -70v-8q0 -48 -38 -88q-28 -26 -58 -32q-14 -2 -22 -2h-14q-32 0 -68 24q-34 24 -46 64q-4 18 -4 34z" />
<glyph unicode="/" horiz-adv-x="714" d="M0 -48q126 354 498 1422h2h190h2q-124 -356 -498 -1422q0 -2 -2 -2h-190z" />
<glyph unicode="0" horiz-adv-x="1412" d="M104 680q0 292 180 518q186 204 420 204h2q256 0 444 -234q156 -214 156 -490q0 -294 -178 -518q-184 -202 -424 -202q-250 0 -440 230q-160 218 -160 492zM298 678q0 -236 146 -406q118 -122 262 -122q186 0 318 196q90 152 90 334q0 258 -170 432q-112 98 -234 98h-6 q-182 0 -312 -194q-94 -152 -94 -338z" />
<glyph unicode="1" horiz-adv-x="712" d="M150 1184v192h346v-1376h-192v1184h-152h-2z" />
<glyph unicode="2" horiz-adv-x="1110" d="M98 970v4q0 64 28 154q18 56 42 94q66 114 190 168q82 34 186 34q148 0 256 -78q18 -12 56 -50q42 -46 64 -82q64 -116 64 -240q0 -118 -56 -210l-318 -348q-56 -62 -226 -248v-2q50 0 206 2h406l2 -2v-192h-2h-880h-2v186q78 84 310 338q50 56 200 220q36 40 146 162 q20 40 20 90v6q0 78 -46 150q-10 18 -32 42q-26 24 -48 34q-48 28 -118 28h-8q-178 0 -230 -166q-18 -58 -18 -94h-192z" />
<glyph unicode="3" horiz-adv-x="1140" d="M90 338v6l2 2h190q2 0 2 -2q0 -86 62 -158q24 -26 36 -34q34 -24 58 -34q58 -24 118 -24q114 0 200 78q74 76 74 172q0 86 -58 158q-86 96 -222 96h-98v192v2h112q4 -2 18 -2q18 0 56 10q24 8 46 18q18 10 46 36q64 64 64 148q0 86 -68 152q-68 62 -156 62 q-96 0 -166 -72q-26 -26 -38 -52q-22 -42 -22 -98h-192h-2v8q0 142 96 260q36 38 52 50q36 30 74 48q92 48 196 48h2q148 0 268 -94q40 -34 66 -66q22 -32 38 -62q46 -88 46 -178v-10q0 -94 -50 -188q-14 -28 -40 -58q-16 -22 -54 -56q18 -10 56 -48q42 -48 58 -78 q64 -106 64 -220v-8q0 -124 -72 -238q-20 -28 -48 -58q-36 -38 -56 -48q-36 -30 -72 -46q-28 -16 -76 -32q-70 -20 -130 -20h-26q-72 0 -162 32q-48 20 -94 50q-30 18 -64 50q-32 32 -50 58q-28 42 -42 70q-42 90 -42 178z" />
<glyph unicode="4" horiz-adv-x="1202" d="M24 196v2q60 102 242 408q60 100 238 400q52 86 206 346q4 8 18 32h192v-2v-992h200v-192h-198v-214h-2h-192v212h-704zM364 390h306h58v612l-176 -296q-168 -282 -174 -294q-2 -2 -14 -22z" />
<glyph unicode="5" horiz-adv-x="1238" d="M80 210q164 78 176 82q58 -122 190 -174q66 -24 134 -24q132 0 238 84q30 30 44 46q72 92 72 200v4q0 112 -78 206q-30 32 -44 44q-102 80 -234 80q-98 0 -190 -54q-62 -32 -182 -98q30 116 124 466q72 270 72 272q4 14 12 40h632l2 -2v-190q0 -2 -2 -2h-484 q-16 -60 -66 -244q40 6 76 6h16q122 0 242 -58q42 -22 92 -56q16 -14 40 -38q46 -42 56 -58q28 -36 42 -62q68 -120 68 -256q0 -168 -106 -312q-16 -22 -56 -60q-40 -36 -76 -60q-144 -92 -308 -92h-6q-160 0 -300 88q-32 20 -72 54q-40 38 -52 54q-36 48 -52 78 q-20 34 -20 36z" />
<glyph unicode="6" horiz-adv-x="1250" d="M96 406v18q0 112 58 226q16 28 140 230q72 116 212 352q24 36 94 150q162 -96 166 -102q-72 -118 -218 -354q38 4 78 4q174 0 320 -104q26 -18 62 -52q38 -40 48 -60q24 -32 44 -64q58 -112 58 -234v-2q0 -158 -94 -294q-18 -24 -56 -62q-46 -44 -72 -64q-38 -22 -62 -34 q-36 -18 -66 -30q-90 -30 -170 -30h-22q-96 0 -198 42q-42 16 -86 44q-142 94 -204 252q-32 88 -32 168zM288 416q0 -130 102 -232q32 -24 34 -24q92 -66 200 -66h6q124 0 224 84q30 26 42 42q70 90 70 194q0 98 -62 186q-12 16 -42 46q-28 24 -46 34q-88 56 -184 56h-8 q-112 0 -208 -70q-16 -12 -42 -38q-86 -94 -86 -212z" />
<glyph unicode="7" horiz-adv-x="976" d="M54 48q54 98 218 392q50 92 202 368q54 96 214 382h-630l-2 2v192h2h864h2v-166q-2 -4 -52 -94q-88 -160 -266 -480q-66 -118 -262 -470q-30 -56 -122 -222z" />
<glyph unicode="8" horiz-adv-x="1174" d="M98 354v16q0 102 56 206q22 38 60 82q36 38 50 48q24 20 40 30q-34 34 -48 54q-80 106 -80 230q0 144 102 260q38 38 50 46q34 26 62 40q92 48 196 48q148 0 266 -94q40 -34 56 -56q58 -72 78 -160q8 -42 8 -78v-10q0 -102 -58 -200q-16 -24 -42 -54l-26 -26 q26 -16 60 -48q42 -40 48 -50q24 -30 46 -68q52 -98 52 -208q0 -156 -108 -288q-28 -32 -54 -52q-32 -26 -56 -40q-124 -78 -268 -78h-4q-158 0 -290 94q-30 18 -62 50q-32 34 -48 56q-30 40 -44 76q-42 88 -42 174zM292 362q0 -106 86 -186q34 -28 56 -40q70 -38 152 -38 q118 0 208 78q36 34 42 48q44 66 44 134v10q0 76 -54 148q-28 34 -52 50q-86 60 -188 60q-112 0 -200 -70q-24 -20 -40 -40q-54 -70 -54 -154zM370 1020q0 -78 62 -140q66 -60 154 -60t156 62q58 62 58 140q0 80 -62 138q-34 32 -72 48q-40 12 -76 12h-6q-82 0 -150 -58 q-64 -60 -64 -142z" />
<glyph unicode="9" horiz-adv-x="1246" d="M92 888v16q0 118 64 238q20 36 54 80q22 26 56 56q78 66 164 98q92 34 194 34q168 0 310 -96q26 -18 64 -52q42 -46 56 -64q26 -36 44 -72q56 -110 56 -230v-4q0 -146 -88 -280q-86 -144 -262 -430q-148 -244 -154 -252q-40 26 -162 100v2l64 104q50 82 152 248 q-40 -4 -72 -4h-16q-122 0 -242 60q-38 20 -80 50q-24 20 -56 52q-42 42 -62 76q-28 44 -46 84q-38 96 -38 186zM286 896q0 -112 74 -202q26 -30 46 -46q98 -74 218 -74q124 0 222 80q26 24 44 46q70 90 70 196q0 114 -78 208q-34 32 -50 44q-94 70 -208 70q-128 0 -230 -86 q-36 -36 -42 -44q-66 -88 -66 -192z" />
<glyph unicode=":" horiz-adv-x="590" d="M186 122v8q0 46 38 86q40 36 90 36q60 0 102 -52q24 -34 24 -70v-8q0 -48 -40 -88q-30 -26 -56 -32q-16 -2 -24 -2h-14q-32 0 -66 24t-48 64q-6 18 -6 34zM186 828v10q0 42 36 82q40 38 88 38h8q44 0 84 -38q38 -38 38 -84v-6q0 -52 -42 -92q-38 -32 -80 -32h-8 q-48 0 -88 38q-36 40 -36 84z" />
<glyph unicode=";" horiz-adv-x="572" d="M120 -212q128 118 128 212q-46 18 -66 62q-16 26 -16 58q0 62 58 104q32 22 72 22q62 0 102 -56q24 -36 24 -94q0 -156 -186 -320q-52 -48 -66 -54q-18 22 -50 66zM168 832q0 48 36 88q40 38 86 38h8q46 0 86 -38q38 -38 38 -84v-6q0 -52 -42 -92q-38 -32 -82 -32h-8 q-50 0 -90 44q-32 36 -32 82z" />
<glyph unicode="&#x3c;" horiz-adv-x="986" d="M116 440v152l288 224q68 52 270 210q30 -38 118 -152q0 -2 -280 -220q-58 -46 -176 -138q48 -38 194 -154q66 -50 262 -204q-28 -38 -118 -152q-86 66 -340 266q-214 164 -218 168z" />
<glyph unicode="=" horiz-adv-x="840" d="M94 200v194h650v-2v-190v-2h-650zM94 586v194h650v-2v-190v-2h-650z" />
<glyph unicode="&#x3e;" horiz-adv-x="986" d="M192 158q66 52 264 204q48 40 194 154q-44 34 -176 138q-282 218 -282 220q40 50 120 152q68 -52 270 -210l288 -224v-152q-6 -4 -218 -168q-114 -90 -340 -266z" />
<glyph unicode="?" horiz-adv-x="1112" d="M134 1030v42q0 98 50 200q16 34 46 72q12 18 44 48q30 26 50 40q38 26 78 46q86 34 166 34h16q86 0 176 -40q40 -18 82 -50q22 -16 46 -42q40 -40 56 -70q72 -114 72 -246q0 -118 -66 -232q-18 -32 -46 -64q-32 -38 -58 -58q-38 -30 -118 -86q-18 -14 -42 -36 q-14 -14 -20 -26q-4 -12 -4 -26v-230v-2h-192v2q-2 56 -2 228q0 136 128 232q30 26 108 80q44 32 72 72q32 48 44 106q4 24 4 40q0 100 -70 176q-76 80 -178 80q-100 0 -176 -74q-74 -78 -74 -182v-34h-192zM440 126q0 58 46 98q34 28 80 28q58 0 98 -46q26 -38 26 -78v-6 q0 -50 -40 -90q-38 -32 -80 -32h-12q-30 0 -66 24t-50 70q-2 18 -2 32z" />
<glyph unicode="@" horiz-adv-x="2184" d="M160 510v20q0 166 64 336q26 64 60 124q28 50 78 116q24 30 78 86l14 14q64 58 98 80q56 40 106 68q60 32 136 60q156 50 302 50h24q184 0 366 -64q250 -94 402 -294q34 -50 62 -98q106 -198 106 -430q0 -102 -36 -234q-18 -56 -40 -98q-22 -44 -60 -92q-34 -42 -64 -62 q-110 -86 -230 -86q-58 0 -124 20q-102 34 -160 116q-20 28 -30 50q0 2 -2 6q-30 -30 -54 -46q-98 -66 -206 -66q-112 0 -208 72q-40 32 -66 66q-24 32 -36 56q-54 104 -54 222q0 146 82 274q56 82 134 132q90 54 186 54q116 0 214 -76q34 -30 52 -54q14 -18 28 -38h2 q10 30 24 64q46 -16 180 -68q-34 -86 -54 -150q-60 -174 -60 -282q0 -94 48 -128q20 -16 64 -26q24 -4 40 -4q64 0 130 60q32 36 50 70q18 38 28 70q12 34 18 80q10 50 10 96v4q0 238 -136 420q-62 74 -124 120q-46 34 -88 56q-180 96 -406 96h-2q-228 0 -424 -130 q-36 -26 -82 -64q-42 -42 -62 -64q-48 -58 -68 -94q-118 -184 -118 -400q0 -218 120 -408q22 -34 58 -80q18 -22 64 -66q60 -54 98 -78q84 -56 180 -88q114 -38 232 -38h8q210 0 400 118q34 -54 104 -162q-50 -32 -100 -56q-44 -22 -116 -46q-144 -48 -280 -48h-26 q-144 0 -302 56q-90 32 -162 74q-60 36 -118 84q-24 16 -88 80q-70 74 -102 126q-34 52 -62 106q-28 56 -54 132q-46 148 -46 284zM880 498q0 -72 34 -134q8 -16 34 -42q44 -42 102 -42q74 0 140 72q68 84 68 196q0 88 -50 156q-50 64 -120 64h-2q-68 0 -128 -62 q-42 -46 -62 -102q-16 -52 -16 -100v-6z" />
<glyph unicode="A" d="M34 0q128 314 508 1250q22 54 88 214h180q4 0 86 -216l510 -1248h-4h-208q-4 0 -28 66q-34 84 -102 248h-696q-30 -78 -126 -314h-208zM448 510h536q-66 164 -266 658q-4 0 -110 -270q-54 -130 -160 -388z" />
<glyph unicode="B" horiz-adv-x="1240" d="M172 2v1460l4 2h482q234 0 372 -158q74 -92 74 -218v-22q0 -168 -128 -284v-2q30 -14 80 -64q96 -106 96 -238v-72q0 -206 -186 -334q-94 -50 -118 -50q-62 -22 -178 -22h-494q-2 0 -4 2zM364 194h332q174 0 242 126q22 42 22 106v36q0 130 -136 178q-64 28 -158 28h-298 q-2 0 -4 -4v-470zM366 860h280q176 0 248 124q18 38 18 70v44q0 110 -154 160q-46 14 -128 14h-264v-412z" />
<glyph unicode="C" horiz-adv-x="1458" d="M96 728v8q0 276 186 496q216 232 506 232h2q282 0 496 -220q74 -86 106 -148q-8 -8 -170 -94q-28 50 -80 114q-156 156 -352 156q-198 0 -352 -158q-150 -168 -150 -380q0 -248 190 -424q144 -116 304 -116h20q176 0 328 144q66 72 94 126q56 -30 168 -88v-6 q-34 -62 -90 -132q-218 -238 -512 -238q-292 0 -510 234q-184 222 -184 494z" />
<glyph unicode="D" horiz-adv-x="1382" d="M172 2v1458l4 4h380q264 0 478 -178q84 -78 108 -114q146 -202 146 -436v-10q0 -292 -222 -520q-122 -110 -238 -154q-134 -52 -262 -52h-390q-2 0 -4 2zM366 192h176q256 0 424 190q130 156 130 348q0 198 -134 354q-78 84 -122 104q-40 28 -124 58q-76 24 -196 24h-152 q-2 0 -2 -2v-1076z" />
<glyph unicode="E" horiz-adv-x="1068" d="M172 0v1464h2h786v-192h-594v-444h470l2 -2v-188l-2 -2h-470v-444h594v-192h-786h-2z" />
<glyph unicode="F" horiz-adv-x="1008" d="M172 0v1464h2h786v-192h-594v-444h482v-192h-482v-636h-2h-190h-2z" />
<glyph unicode="G" horiz-adv-x="1610" d="M90 730v6q0 310 232 542q56 48 70 56q184 130 400 130h4q278 0 492 -210q76 -80 114 -152q4 -8 12 -22q-144 -78 -172 -88q-26 50 -74 108q-64 66 -94 82q-130 90 -278 90q-230 0 -396 -198q-118 -156 -118 -340q0 -238 182 -412q146 -128 332 -128q212 0 372 170 q94 110 120 234h-368v2v186v2v2q100 0 400 2h180q0 -2 4 -4q-8 -154 -20 -202q-34 -154 -100 -256q-128 -202 -358 -290q-118 -40 -232 -40q-258 0 -468 186q-236 230 -236 544z" />
<glyph unicode="H" horiz-adv-x="1364" d="M172 2v1460l4 2h186l2 -2v-632h634v632l2 2h190l2 -2v-1460l-2 -2h-188l-2 2v632h-636v-632l-2 -2h-186q-2 0 -4 2z" />
<glyph unicode="I" horiz-adv-x="536" d="M172 0v1464h2h190h2v-1464h-2h-190h-2z" />
<glyph unicode="J" horiz-adv-x="1136" d="M8 434v78h192v-70q0 -90 66 -168q30 -28 44 -36q64 -46 134 -46h88q76 0 144 54q30 26 46 48q52 70 52 152v1018h2h192v-1028q0 -100 -56 -204q-18 -34 -48 -72q-40 -46 -66 -64q-44 -34 -82 -54q-92 -42 -178 -42h-102q-94 0 -192 50q-36 20 -76 52q-18 16 -44 42 q-38 46 -54 74q-14 22 -32 66q-30 78 -30 150z" />
<glyph unicode="K" horiz-adv-x="1328" d="M172 2v1460l4 2h186l2 -2v-752q18 18 650 750l4 4h252l2 -2q-152 -176 -608 -702q154 -190 616 -758v-2h-256q-122 154 -488 610q-44 -50 -172 -198v-410l-2 -2h-186q-2 0 -4 2z" />
<glyph unicode="L" horiz-adv-x="1018" d="M172 0v1464h2h190h2v-1272h634v-192h-826h-2z" />
<glyph unicode="M" horiz-adv-x="1880" d="M172 2v1460l4 2h232q8 -6 262 -578q90 -200 268 -600h4q132 294 528 1178h234q2 0 4 -2v-1460l-4 -2h-198l-2 2v1068h-2q-118 -266 -476 -1064q-2 -2 -4 -6h-164q-2 0 -30 64q-150 336 -450 1006h-2v-1068l-2 -2h-198q-2 0 -4 2z" />
<glyph unicode="N" horiz-adv-x="1516" d="M172 2v1460l4 2h208q174 -262 702 -1046q16 -24 64 -98v1142l2 2h190l2 -2v-1460l-2 -2h-208q-54 76 -400 596q-124 182 -370 548v-1142l-2 -2h-186q-2 0 -4 2z" />
<glyph unicode="O" horiz-adv-x="1598" d="M98 730v6q0 310 232 542q24 18 68 54q186 132 402 132h4q290 0 508 -226q194 -222 194 -506q0 -310 -228 -540q-214 -192 -474 -192q-262 0 -472 186q-92 96 -120 150q-114 182 -114 394zM290 734q0 -238 182 -412q146 -128 332 -128q240 0 404 212q104 152 104 318v12 q0 206 -142 370q-160 166 -366 166q-230 0 -396 -198q-118 -156 -118 -340z" />
<glyph unicode="P" horiz-adv-x="1226" d="M172 2v1460l4 2h480q232 0 394 -174q116 -140 116 -308q0 -218 -184 -374q-146 -108 -328 -108h-290v-498l-2 -2h-186q-2 0 -4 2zM364 694h302q144 0 248 120q58 80 58 162v14q0 130 -126 224q-78 58 -216 58h-262q-2 0 -4 -2v-576z" />
<glyph unicode="Q" horiz-adv-x="1574" d="M98 746v6q0 302 228 528q22 18 66 56q182 128 394 128h2q284 0 498 -222q190 -218 190 -494q0 -250 -156 -452q54 -54 164 -160v-2q-32 -34 -132 -134q-42 40 -168 162q-184 -130 -396 -130q-256 0 -460 184q-92 94 -120 144q-110 178 -110 386zM288 750q0 -232 176 -404 q144 -124 324 -124q134 0 256 74q-28 28 -114 112q32 34 132 136q30 -28 122 -116q102 146 102 312v12q0 202 -140 362q-156 162 -358 162q-226 0 -388 -192q-112 -156 -112 -334z" />
<glyph unicode="R" horiz-adv-x="1214" d="M172 2v1460l4 2h480q232 0 394 -174q116 -140 116 -308q0 -206 -166 -356q-88 -72 -154 -92q0 -6 194 -340q38 -64 112 -192v-2h-228q-4 0 -54 96q-214 374 -228 404h-278v-498l-2 -2h-186q-2 0 -4 2zM364 694h302q144 0 248 120q58 80 58 162v14q0 130 -126 224 q-78 58 -216 58h-262q-2 0 -4 -2v-576z" />
<glyph unicode="S" horiz-adv-x="1128" d="M72 304q58 28 174 82q16 -36 44 -74q14 -18 40 -46q38 -34 62 -48q82 -44 170 -44h8q88 0 170 44q22 14 46 34q28 28 40 50q34 58 34 122q0 102 -86 162q-24 16 -46 24q-34 16 -108 30q-210 48 -306 98q-212 106 -212 318q0 144 92 258q30 38 64 64q42 30 72 46 q36 18 84 34q76 22 154 22h18q114 0 224 -54q36 -18 70 -44q16 -12 54 -46q38 -42 56 -68q14 -22 26 -44q-58 -28 -174 -86q-8 18 -38 52q-92 98 -228 98q-134 0 -216 -80q-32 -32 -40 -54q-24 -44 -24 -94v-6q0 -70 50 -108q24 -18 46 -28q50 -30 152 -58q78 -22 184 -44 q60 -18 100 -38q38 -18 82 -50q36 -32 64 -66q80 -108 80 -238v-4q0 -128 -78 -244q-14 -20 -48 -56q-46 -42 -74 -60q-32 -20 -70 -36q-106 -44 -218 -44q-174 0 -318 102q-24 20 -54 46q-40 40 -56 62q-30 42 -48 74q-18 34 -18 40z" />
<glyph unicode="T" horiz-adv-x="1002" d="M16 1272v192h970v-192h-388v-1272h-192h-2v1272h-388z" />
<glyph unicode="U" horiz-adv-x="1486" d="M170 532v930l4 2h186l2 -2v-892q0 -162 54 -238q50 -86 168 -126q46 -12 88 -12h142q170 0 266 156q42 82 42 194v918l4 2h186q2 0 4 -2v-870q0 -174 -30 -250q-62 -174 -200 -264q-122 -78 -294 -78h-96q-230 0 -368 136q-62 62 -94 122q-64 128 -64 274z" />
<glyph unicode="V" horiz-adv-x="1454" d="M34 1464h216q4 -2 92 -224q128 -314 384 -944h2q116 288 466 1152q6 16 8 16h214h2q-148 -360 -592 -1434q-8 -30 -12 -30h-174q-6 0 -20 42q-416 1004 -438 1066q-12 20 -148 356z" />
<glyph unicode="W" horiz-adv-x="2064" d="M62 1464h208q4 0 18 -64q18 -54 262 -936q10 -30 26 -94h2q90 256 360 1018q24 72 30 76h130q4 0 24 -66q122 -342 366 -1028q76 274 304 1094h2h206h2q-100 -356 -404 -1418q-12 -46 -14 -46h-168q-6 6 -120 334q-28 74 -262 740q-8 -10 -36 -96l-348 -978h-168 q-2 0 -26 88q-132 458 -394 1376z" />
<glyph unicode="X" horiz-adv-x="1470" d="M48 2q132 182 532 728q4 6 18 24q-128 178 -516 710h246q102 -142 406 -566q38 50 404 566h2h246v-2q-128 -178 -514 -706q136 -188 548 -754v-2h-244q-10 10 -326 454q-112 154 -114 160q-112 -154 -442 -614h-244z" />
<glyph unicode="Y" horiz-adv-x="1360" d="M30 1464h244q12 -10 204 -280q68 -96 204 -286q386 542 406 566h246q-138 -190 -550 -758v-704l-2 -2h-198q-2 0 -4 2v702q0 6 -66 94q-160 222 -484 666z" />
<glyph unicode="Z" horiz-adv-x="1286" d="M58 0v2q208 318 830 1270h-728v2v188v2h1082v-2q-206 -318 -826 -1268h822l2 -2v-190l-2 -2h-1180z" />
<glyph unicode="[" horiz-adv-x="826" d="M190 -170v1684h2h414h2v-192h-2h-222v-1300h222h2v-192h-2h-414h-2z" />
<glyph unicode="\" horiz-adv-x="714" d="M0 1374h2h190h2q124 -356 498 -1422q0 -2 -2 -2h-190l-2 2q-124 354 -498 1422z" />
<glyph unicode="]" horiz-adv-x="826" d="M220 22h2h222v1300h-222h-2v192h2h414h2v-1684h-2h-414h-2v192z" />
<glyph unicode="^" horiz-adv-x="1008" d="M68 842q88 134 262 406q96 148 100 152h148q4 -4 46 -70q24 -38 188 -290q42 -66 128 -198q-40 -26 -162 -106h-2q-44 70 -176 274q-24 38 -96 150q-66 -102 -262 -404q-2 -4 -12 -20q-158 102 -162 106z" />
<glyph unicode="_" horiz-adv-x="1090" d="M70 8h948q0 -2 2 -2v-190q0 -2 -2 -2h-948v194z" />
<glyph unicode="`" horiz-adv-x="968" d="M242 1868q26 42 102 164q94 -58 382 -234v-2q-24 -40 -100 -162l-2 -2q-94 60 -382 236z" />
<glyph unicode="a" horiz-adv-x="1210" d="M92 474q0 222 170 382q140 118 320 118q166 0 284 -128v110q2 0 4 2h188q2 0 4 -2v-954q-2 0 -4 -2h-188l-4 2v96q-112 -122 -288 -122q-218 0 -372 176q-114 144 -114 322zM286 474q0 -156 136 -258q74 -46 144 -46h20q96 0 188 78q92 96 92 226q0 160 -136 260 q-74 44 -146 44h-16q-120 0 -218 -110q-64 -92 -64 -194z" />
<glyph unicode="b" horiz-adv-x="1216" d="M152 0v1464h2h190h2v-618q16 18 42 40q108 88 250 88q162 0 298 -106q16 -14 52 -50q68 -78 100 -158q34 -90 34 -186q0 -128 -62 -242q-20 -40 -56 -84q-38 -44 -62 -62q-30 -22 -54 -38q-118 -72 -246 -72h-12q-54 0 -130 22q-38 12 -68 30q-24 14 -54 38 q-16 16 -32 34v-100h-194zM346 472q0 -98 60 -182q12 -18 36 -42q6 -6 18 -16q32 -24 54 -34q62 -30 122 -30q122 0 212 96q34 40 50 76q30 64 30 132v4q0 114 -74 204q-92 100 -222 100q-56 0 -124 -32q-30 -14 -60 -42q-28 -26 -34 -36q-68 -86 -68 -194v-4z" />
<glyph unicode="c" horiz-adv-x="1042" d="M90 466v16q0 112 54 224q18 32 40 64q16 24 50 62q40 38 70 56q126 86 270 86h2q150 0 280 -94q24 -16 54 -46q36 -38 50 -58q14 -18 14 -22q-54 -34 -160 -106q-12 18 -40 48q-88 84 -200 84q-108 0 -194 -78q-32 -32 -38 -46q-60 -82 -60 -182q0 -108 70 -196 q22 -28 46 -46q80 -64 178 -64q88 0 162 56q18 10 48 40q16 20 30 40q40 -28 160 -106q-16 -28 -46 -62q-34 -36 -48 -46q-32 -26 -56 -42q-120 -72 -248 -72h-8q-138 0 -260 80q-24 18 -46 34q-36 34 -54 56q-40 48 -58 82q-18 32 -36 84q-26 82 -26 154z" />
<glyph unicode="d" horiz-adv-x="1216" d="M96 474q0 96 34 186q30 80 100 158q34 36 52 50q136 106 298 106h2q138 0 248 -88q26 -22 42 -40v618h192v-1464h-192v100q-16 -18 -32 -34q-32 -24 -54 -38q-30 -18 -68 -30q-76 -22 -128 -22h-14q-128 0 -248 72q-24 16 -50 38q-24 18 -64 62q-36 44 -56 84 q-62 114 -62 242zM290 472q0 -68 30 -132q16 -36 50 -76q90 -96 212 -96q60 0 122 30q22 10 54 34q6 6 18 16q24 24 38 42q58 84 58 182v4q-16 48 -66 194q-8 10 -36 36q-30 28 -60 42q-68 32 -126 32q-128 0 -218 -100q-76 -90 -76 -204v-4z" />
<glyph unicode="e" horiz-adv-x="1066" d="M66 472v4q0 234 180 396q132 102 266 102h28q146 0 282 -118q66 -64 90 -112q72 -128 72 -270v-30q0 -28 -2 -28h-718q24 -106 78 -160q80 -88 184 -88q130 0 218 132q16 34 18 34q174 -78 174 -80q-14 -36 -62 -104q-146 -174 -346 -174h-6q-204 0 -354 184 q-102 142 -102 312zM282 598h486v2q-16 50 -78 114q-76 66 -166 66q-138 0 -226 -146q-4 -12 -16 -36z" />
<glyph unicode="f" horiz-adv-x="648" d="M26 766v192h2h186v4q0 262 144 398q52 50 108 72q78 32 154 32h58v-192v-2h-52q-128 0 -186 -120q-34 -74 -34 -192h272v-192h-272v-766h-192v766h-186h-2z" />
<glyph unicode="g" horiz-adv-x="1172" d="M96 -90q0 34 16 82q12 32 32 62q10 18 38 44l18 18q-30 44 -30 94v6q0 66 56 154q-38 42 -50 64q-10 14 -26 54q-22 58 -22 110v12q0 92 58 180q14 20 36 44q36 38 50 46q34 26 76 46q92 40 186 40h10q114 0 218 -56q22 20 38 28q58 34 134 34h36q2 0 2 -2v-192h-2h-42 q-14 0 -24 -4q46 -80 46 -170q0 -108 -68 -198q-10 -16 -44 -52q-62 -56 -128 -80q-84 -32 -172 -32q-90 0 -178 36q-20 -16 -20 -28q0 -26 72 -36q50 -6 126 -6h86q194 0 310 -78q18 -10 48 -40q26 -28 40 -54q34 -62 34 -126q0 -100 -78 -188q-34 -36 -50 -48 q-36 -26 -64 -40q-24 -12 -58 -26q-30 -10 -72 -22q-78 -18 -144 -18h-30q-114 0 -224 40q-48 18 -82 40q-26 14 -56 40q-38 34 -44 46q-20 26 -28 48q-30 58 -30 112v16zM288 -98v-4q0 -44 66 -84q88 -52 216 -52h12q112 0 200 46q20 12 42 32q38 38 38 70q0 44 -66 76 q-22 10 -58 18q-58 12 -102 12q-38 -2 -112 -2q-76 0 -140 10q-18 -10 -40 -24q-56 -46 -56 -98zM322 604q0 -66 62 -118q68 -52 152 -52h6q74 0 138 42q52 36 72 90q6 20 6 38q0 68 -64 118q-68 52 -156 52q-84 0 -152 -50q-64 -52 -64 -120z" />
<glyph unicode="h" horiz-adv-x="1154" d="M152 0v1464h194v-568q52 28 134 52q44 10 108 10h10q258 0 370 -196q38 -76 38 -180v-580l-2 -2h-188l-2 2v582q0 122 -102 162q-44 20 -112 20h-16q-120 0 -172 -38q-66 -40 -66 -150v-578h-194z" />
<glyph unicode="i" horiz-adv-x="518" d="M134 1334v8q0 46 36 86q4 4 14 12q36 24 72 24h8q42 0 82 -34q38 -40 38 -88v-6q0 -46 -32 -86q-40 -38 -90 -38h-6q-46 0 -84 36q-20 22 -28 38q-10 26 -10 48zM162 0v958h194v-958h-2h-192z" />
<glyph unicode="j" horiz-adv-x="544" d="M-42 -238q132 0 190 116q42 88 42 210v872h192v-2v-848q0 -150 -32 -248q-44 -132 -130 -206q-28 -24 -50 -34q-88 -54 -190 -54h-22v194zM160 1336q0 64 54 106q34 22 66 22h10q46 0 88 -40q26 -32 30 -62q2 -8 2 -18v-14q0 -32 -24 -68q-18 -22 -26 -28 q-36 -22 -72 -22h-8q-40 0 -74 28q-46 40 -46 96z" />
<glyph unicode="k" horiz-adv-x="1072" d="M152 2v1460q2 0 4 2h188l2 -2v-892q104 96 410 388h278q-110 -106 -442 -422l424 -536h-2h-242q-26 28 -318 402h-2q-88 -82 -106 -100v-300l-2 -2h-188z" />
<glyph unicode="l" horiz-adv-x="498" d="M152 0v1464h2h190h2v-1464h-2h-190h-2z" />
<glyph unicode="m" horiz-adv-x="1814" d="M152 2v948q2 0 4 2h188l2 -2v-54q52 28 134 52q44 10 108 10h10q194 0 312 -118q114 118 314 118h32q264 0 374 -198q34 -80 34 -154v-604v-2h-190l-2 2v600q0 110 -120 150q-36 14 -94 14h-38q-156 0 -202 -104q-12 -30 -12 -64v-596l-2 -2h-188l-2 2v580q0 106 -70 146 q-52 38 -144 38h-16q-120 0 -172 -38q-66 -40 -66 -150v-576l-2 -2h-188z" />
<glyph unicode="n" horiz-adv-x="1154" d="M152 2v948q2 0 4 2h188l2 -2v-54q52 28 134 52q44 10 108 10h10q258 0 370 -196q38 -76 38 -180v-580l-2 -2h-188l-2 2v582q0 122 -102 162q-44 20 -112 20h-16q-120 0 -172 -38q-66 -40 -66 -150v-576l-2 -2h-188z" />
<glyph unicode="o" horiz-adv-x="1150" d="M90 466v16q0 112 56 224q16 32 38 64q16 24 50 62q50 44 70 56q124 86 270 86q162 0 298 -106q18 -14 54 -50q68 -76 98 -158q34 -90 34 -188q0 -126 -60 -240q-22 -40 -56 -84q-40 -44 -64 -62q-28 -22 -52 -38q-118 -72 -248 -72h-8q-136 0 -260 80q-24 18 -44 34 q-40 32 -56 56q-20 24 -40 52q-18 32 -34 62q-46 104 -46 206zM282 472q0 -108 72 -198q30 -34 48 -44q78 -62 172 -62q114 0 202 88q34 36 48 64q42 72 42 152v2q0 116 -80 208q-34 36 -44 40q-18 14 -32 22q-66 36 -136 36q-106 0 -194 -78q-30 -32 -38 -46 q-60 -82 -60 -184z" />
<glyph unicode="p" horiz-adv-x="1216" d="M152 -430v1382l2 2h192v-106q36 40 46 44q30 22 50 36q32 16 62 24q24 8 80 18q18 0 44 2q146 0 260 -70q32 -20 74 -60q38 -36 48 -50q24 -32 44 -62q66 -120 66 -258q0 -166 -102 -304q-12 -20 -50 -62q-6 -4 -18 -14q-142 -116 -314 -116q-126 0 -228 72 q-18 12 -52 42q-4 4 -10 12v-534h-192q0 2 -2 2zM346 454q0 -30 14 -82q14 -34 26 -60q16 -22 44 -54q32 -30 42 -36l42 -28q64 -26 114 -26h12q90 0 168 60q16 10 40 36q48 56 66 118q14 44 14 92q0 114 -74 204q-32 34 -40 38q-80 62 -176 62h-8q-54 0 -118 -26 q-30 -16 -68 -48q-36 -38 -44 -52q-16 -22 -24 -42q-8 -18 -20 -50q-10 -46 -10 -66v-40z" />
<glyph unicode="q" horiz-adv-x="1216" d="M96 472q0 138 68 258q20 30 44 62q8 14 46 50q44 40 74 60q116 70 262 70q24 -2 42 -2q56 -10 80 -18q32 -8 62 -24q22 -14 52 -36q8 -4 46 -44v106h192v-2v-1382v-2h-192v534q-4 -2 -10 -12q-34 -30 -54 -42q-102 -72 -226 -72q-174 0 -314 116q-6 6 -18 14 q-40 42 -52 62q-102 138 -102 304zM288 474q0 -48 16 -92q16 -62 64 -118q26 -26 40 -36q80 -60 168 -60h14q50 0 112 26l42 28q12 6 42 36q30 32 44 54q14 26 26 60q16 52 16 82v40q-4 16 -10 66q-12 32 -22 50q-8 20 -24 42q-8 14 -42 52q-38 32 -70 48q-64 26 -116 26h-8 q-98 0 -178 -62q-6 -4 -38 -38q-76 -90 -76 -204z" />
<glyph unicode="r" horiz-adv-x="836" d="M152 4v940h4h188v-72q112 92 226 92h26q100 0 204 -58v-2q-40 -190 -46 -198q-96 62 -170 62h-16q-96 0 -168 -70q-56 -66 -56 -254v-440v-4h-188q0 2 -4 4z" />
<glyph unicode="s" horiz-adv-x="984" d="M80 198l168 96q2 -4 8 -14q12 -18 36 -40q44 -42 112 -62q44 -10 88 -10q88 0 156 40q14 8 32 24q26 32 26 64q0 54 -84 86q-28 10 -102 22q-162 30 -240 66q-34 12 -68 34q-76 50 -100 126q-12 34 -12 72v6q0 94 70 178q30 32 44 40q34 26 64 40q100 48 220 48 q184 0 312 -116q30 -26 40 -42q4 -8 14 -20q-2 -4 -56 -34q-50 -32 -108 -68q-18 20 -36 34q-66 50 -162 50h-6q-104 0 -168 -50q-34 -30 -34 -64q0 -22 18 -34q20 -16 74 -36q78 -24 238 -52q50 -12 88 -28q34 -14 70 -38q16 -12 44 -40q74 -80 74 -180v-2q0 -102 -76 -192 q-32 -32 -46 -40q-40 -30 -66 -40q-102 -46 -216 -46h-8q-150 0 -274 78q-28 18 -58 48q-28 26 -40 42q-20 26 -36 54z" />
<glyph unicode="t" horiz-adv-x="718" d="M32 766v192q2 0 2 2h142v504h192v-504h248l2 -2v-192h-2h-248v-484q0 -56 40 -74q24 -16 54 -16q38 0 110 26q2 2 8 6q18 -46 72 -182q-24 -10 -78 -26q-64 -16 -112 -16h-2q-94 0 -178 58q-14 10 -36 32q-6 8 -18 22q-16 22 -26 40q-26 62 -26 122v492h-142h-2z" />
<glyph unicode="u" horiz-adv-x="1152" d="M148 376v578q0 2 4 4h186l4 -4v-580q0 -124 100 -162q44 -20 110 -20h16q122 0 174 40q66 40 66 146v576q2 2 2 4h190v-4v-946v-2h-190l-2 2v64q-52 -38 -134 -62q-44 -10 -108 -10h-8q-260 0 -372 194q-38 78 -38 182z" />
<glyph unicode="v" horiz-adv-x="1102" d="M34 958h222q2 -6 42 -100q60 -138 182 -414l72 -160q34 82 140 324q38 88 154 350h222l-216 -480q-34 -76 -138 -304q-18 -44 -76 -174h-174l-30 66q-60 136 -182 406q-48 108 -196 434q-4 12 -22 52z" />
<glyph unicode="w" horiz-adv-x="1508" d="M54 958h212l24 -70q52 -158 158 -476q6 -20 26 -80q36 114 142 454q14 44 54 172h170l6 -16q44 -146 134 -434q14 -44 54 -176q2 0 24 70q52 156 156 470q8 22 28 86h214q-40 -118 -160 -468q-36 -106 -146 -430q-6 -14 -22 -60h-192l-8 28q-42 132 -80 258 q-32 98 -92 294h-2q-34 -108 -136 -436q-10 -36 -44 -144h-192q-2 0 -20 54q-46 138 -140 412q-38 112 -152 444z" />
<glyph unicode="x" horiz-adv-x="1186" d="M40 0q82 100 322 400q22 26 86 108q-56 68 -224 274q-38 44 -146 176h258q8 -10 128 -158q42 -54 128 -160q64 80 256 318h258q-82 -100 -330 -400q-12 -12 -42 -50q50 -62 202 -252q52 -64 206 -256h-256l-64 80q-58 74 -230 296l-296 -376h-256z" />
<glyph unicode="y" horiz-adv-x="1120" d="M34 958h222l8 -20q48 -112 142 -338q38 -88 154 -358q2 6 42 100q44 102 134 304l136 312h212q-54 -122 -214 -488q-44 -104 -180 -410q-46 -106 -184 -422q-8 -18 -30 -70h-212v2q48 108 190 430q-48 112 -196 448q-50 114 -200 454z" />
<glyph unicode="z" horiz-adv-x="1082" d="M88 0q136 192 540 766h-492v2v186v4h862l2 -4q-134 -190 -538 -762h522q2 0 4 -2v-188l-4 -2h-896z" />
<glyph unicode="{" horiz-adv-x="848" d="M156 568v128q0 4 72 32q54 32 54 56v460q0 188 166 266q78 34 170 34h44l2 -2v-190v-2h-2q-12 0 -48 2q-118 -6 -134 -66q-6 -16 -6 -40v-466q0 -74 -60 -148q60 -74 60 -148v-466q0 -68 56 -90q48 -16 84 -16q16 0 50 2v-2v-190v-2h-48q-160 0 -258 96q-76 80 -76 202 v462q0 24 -52 56q-24 10 -74 32z" />
<glyph unicode="|" horiz-adv-x="494" d="M150 2v1398h2h190h2v-1398q-2 0 -2 -2h-190z" />
<glyph unicode="}" horiz-adv-x="848" d="M184 -86q14 0 50 -2q36 0 84 16q56 22 56 90v466q0 74 60 148q-60 74 -60 148v466q0 24 -6 40q-16 60 -134 66q-16 0 -48 -2h-2v2v190l2 2h44q42 -8 170 -34q166 -78 166 -266v-460q0 -24 54 -56q72 -28 72 -32v-128q-18 -8 -74 -32q-52 -32 -52 -56v-462 q0 -122 -76 -202q-98 -96 -258 -96h-48v2v190v2z" />
<glyph unicode="~" horiz-adv-x="1300" d="M168 618v204q48 42 96 62q72 32 138 32q78 0 224 -60q144 -60 212 -60q64 0 132 34q46 22 104 76v-214q-48 -30 -96 -52q-72 -30 -140 -30q-74 0 -218 60q-146 58 -218 58q-64 0 -132 -34q-46 -22 -102 -76z" />
<glyph unicode="&#xa1;" horiz-adv-x="712" d="M266 0q8 290 30 1158v2h192l2 -2q8 -290 30 -1158h-254zM266 1334v8q0 48 40 88q30 26 56 32q16 2 24 2h14q32 0 66 -24q36 -24 48 -64q6 -18 6 -34v-8q0 -46 -40 -86q-38 -36 -88 -36q-60 0 -102 52q-24 34 -24 70z" />
<glyph unicode="&#xa2;" horiz-adv-x="1042" d="M90 736v16q0 112 54 224q18 32 40 64q16 24 50 62q40 36 70 58q64 42 134 64v158v2h192v-2v-142q120 -14 226 -88q24 -18 54 -48q36 -38 50 -56q14 -22 14 -24q-54 -34 -160 -104q-12 16 -40 46q-64 62 -144 78v-598q58 10 108 48q18 10 48 40q16 20 30 40 q40 -28 160 -108q-16 -26 -46 -58q-34 -38 -48 -48q-32 -26 -56 -42q-96 -58 -196 -70v-142v-2h-192v2v160q-68 20 -128 62q-24 16 -46 32q-36 34 -54 56q-40 48 -58 82q-18 32 -36 86q-26 80 -26 152zM282 744q0 -108 70 -198q22 -26 46 -44q18 -16 40 -28v540 q-30 -16 -58 -42q-32 -32 -38 -46q-60 -82 -60 -182z" />
<glyph unicode="&#xa3;" horiz-adv-x="1296" d="M54 166q16 14 68 58t118 106q66 68 88 96q36 46 54 76q42 72 42 118h-218v192l2 2h146q-60 122 -60 236q0 134 86 230q32 34 44 40q40 32 66 46q108 58 214 58h14q106 0 216 -58q34 -20 74 -52l10 -10q-32 -34 -132 -138q-40 34 -94 50q-42 14 -82 14q-78 0 -150 -50 q-48 -30 -62 -68q-10 -26 -10 -62v-4q0 -68 46 -158q30 -58 36 -74h332v-194h-286q0 -84 -48 -184q-22 -40 -56 -88q-18 -26 -38 -50q62 -6 104 -26q32 -14 68 -36q18 -14 42 -36q74 -58 144 -58q104 0 226 124q46 -46 138 -136q-50 -50 -72 -66q-46 -38 -96 -64 q-100 -50 -188 -50h-14q-90 0 -188 52q-36 20 -78 54q-32 30 -50 34q-34 16 -78 16q-98 0 -232 -74q-10 -6 -30 -20q-30 38 -116 154z" />
<glyph unicode="&#xa4;" horiz-adv-x="1436" d="M64 752v16q0 132 64 264q20 44 56 96q4 2 8 8q-24 26 -102 104l136 136q26 -26 108 -106q36 26 76 48q46 22 112 42q96 30 190 30h16q144 0 286 -66q48 -24 90 -52q0 -2 2 -2q26 26 108 106l136 -136v-2l-102 -102q32 -42 56 -86q72 -138 72 -288v-4q0 -182 -106 -344 q-16 -20 -16 -22q32 -30 96 -94q-34 -34 -136 -138q-24 24 -98 96q-180 -126 -396 -126q-200 0 -370 110q-10 6 -28 16l-96 -96q-46 46 -136 138l94 94q-24 36 -46 72q-22 40 -42 98q-32 100 -32 190zM256 760q0 -136 86 -252q16 -22 48 -54q42 -40 64 -52q32 -20 68 -36 q96 -44 198 -44q140 0 262 78q86 56 140 144q62 104 62 216q0 148 -102 272q-38 42 -62 62q-44 32 -76 48q-104 56 -224 56q-142 0 -262 -78q-124 -80 -178 -218q-24 -70 -24 -142z" />
<glyph unicode="&#xa5;" horiz-adv-x="1256" d="M64 1262q6 8 144 128q58 -66 232 -262q48 -54 190 -212q76 86 304 342q28 32 116 132q142 -126 146 -128q-88 -100 -268 -300q-50 -58 -202 -228v-26h332v-194h-2h-330v-42h330h2v-190l-2 -2h-330v-278h-194v278h-330q0 2 -2 2v190h2h330v42h-330h-2v194h332v26 q-76 84 -300 338q-42 48 -168 190z" />
<glyph unicode="&#xa6;" horiz-adv-x="592" d="M200 150h192v-648v-2h-192v2v648zM200 850v650h192v-650h-192z" />
<glyph unicode="&#xa7;" horiz-adv-x="954" d="M118 722v14q0 80 50 162q14 22 46 56q8 8 24 22q-36 24 -62 64q-44 62 -44 146q0 106 76 190q30 32 48 42q44 32 104 52q62 18 120 18h16q96 0 186 -54q30 -18 60 -44q36 -38 46 -54q18 -24 26 -42q-58 -30 -172 -88h-2q-24 50 -80 74q-34 14 -72 14q-66 0 -114 -30 q-14 -6 -28 -24q-20 -24 -20 -52v-6q0 -36 40 -60q24 -18 76 -36q50 -18 140 -38q36 -10 66 -24q32 -16 70 -42q40 -32 64 -64q62 -88 62 -190q0 -126 -94 -224l-24 -24q32 -24 58 -58q46 -68 46 -144v-10q0 -82 -52 -156q-10 -16 -36 -46q-32 -26 -52 -38q-24 -14 -62 -30 q-74 -28 -154 -28h-2q-152 0 -264 108q-30 34 -40 50q-14 20 -22 36q144 74 174 86q24 -48 82 -74q34 -14 72 -14q60 0 110 28q52 32 52 82q0 32 -22 50q-24 22 -58 36q-52 24 -156 44q-32 8 -58 18q-42 18 -76 40q-24 14 -56 46q-34 38 -50 66q-42 76 -42 150zM312 728 q0 -54 48 -96q52 -42 120 -42q80 0 136 52q12 16 18 28q16 28 16 58q0 60 -58 104q-50 36 -106 36h-10q-60 0 -110 -38q-54 -44 -54 -102z" />
<glyph unicode="&#xa8;" horiz-adv-x="1116" d="M242 1818v8q0 48 38 88q38 36 88 36q62 0 102 -54q24 -34 24 -70v-8q0 -48 -38 -88q-30 -24 -58 -30q-14 -4 -22 -4h-16q-32 0 -66 24t-46 66q-6 18 -6 32zM622 1818v8q0 48 38 88q38 36 90 36q58 0 100 -54q24 -34 24 -70v-8q0 -48 -40 -88q-28 -24 -56 -30 q-16 -4 -24 -4h-12q-32 0 -68 24q-34 24 -48 66q-4 18 -4 32z" />
<glyph unicode="&#xa9;" horiz-adv-x="2024" d="M176 728v24q0 158 66 320q30 64 74 136q28 40 72 88q56 62 80 78q60 52 108 82q204 120 436 120q260 0 478 -150q42 -26 94 -76q56 -54 70 -70q40 -48 62 -84q134 -212 134 -458q0 -238 -130 -446q-26 -46 -78 -106q-50 -56 -86 -84q-52 -46 -92 -70q-210 -130 -452 -130 q-244 0 -458 134q-44 30 -100 78q-60 58 -72 74q-58 70 -84 114q-32 50 -58 108q-64 160 -64 318zM366 736q0 -198 114 -368q24 -32 58 -70q42 -42 60 -56q42 -34 84 -60q156 -90 328 -90h6q186 0 350 106q26 14 58 42q18 14 66 62q6 8 20 24q38 44 60 86q90 154 90 326 q0 204 -122 378q-22 30 -66 78q-56 54 -90 76q-172 116 -370 116q-202 0 -374 -120q-28 -18 -80 -68q-48 -48 -68 -78q-26 -36 -44 -72q-80 -146 -80 -308v-4zM570 718v16q0 108 54 216q20 36 54 80q38 44 76 74q40 32 76 50q108 54 218 54h12q126 0 246 -70q32 -18 68 -48 q34 -32 52 -56q14 -16 28 -34q-40 -28 -158 -112q-14 18 -36 42q-36 32 -60 46q-70 40 -146 40q-88 0 -166 -54q-46 -32 -80 -80q-46 -74 -46 -156q0 -114 82 -200q28 -30 50 -42q74 -50 160 -50h2q110 0 198 80q30 30 42 48q40 -26 160 -106q-16 -26 -54 -68 q-38 -36 -66 -56q-30 -20 -54 -34q-34 -18 -78 -34q-76 -22 -140 -22h-18q-94 0 -192 44q-178 82 -252 264q-32 86 -32 168z" />
<glyph unicode="&#xaa;" horiz-adv-x="648" />
<glyph unicode="&#xab;" horiz-adv-x="1350" d="M118 400v2v134q86 62 348 242q12 10 48 34h2q4 -6 58 -84q18 -24 52 -74q-66 -46 -266 -184q66 -46 266 -184q-106 -152 -110 -158q-132 90 -398 272zM666 402v134q88 62 350 242q12 10 48 34h2q6 -6 58 -84q18 -24 52 -74q-66 -46 -266 -184q66 -46 266 -184 q-104 -152 -110 -158q-132 90 -398 272q0 2 -2 2z" />
<glyph unicode="&#xac;" horiz-adv-x="1054" d="M150 616v194h752l2 -2v-458h-194v266h-560z" />
<glyph unicode="&#xad;" horiz-adv-x="864" d="M76 414v194h706v-2v-190v-2h-706z" />
<glyph unicode="&#xae;" horiz-adv-x="1304" d="M176 982v12q0 90 38 182q16 38 42 78q16 22 40 50q32 34 46 46q34 28 62 44q116 70 246 70q150 0 274 -86q22 -16 54 -42q30 -32 38 -40q24 -30 36 -48q76 -122 76 -262q0 -136 -72 -252q-16 -28 -46 -62q-28 -32 -50 -48l-50 -40q-120 -74 -260 -74q-138 0 -258 76 q-26 18 -58 46q-36 32 -42 42q-32 38 -46 64q-20 28 -32 62q-38 90 -38 182zM256 984q0 -120 70 -224q12 -20 34 -44q26 -26 38 -34q26 -20 52 -36q94 -54 200 -54h4q114 0 214 64q16 8 36 26q10 6 40 36q4 6 12 16q24 26 38 52q54 94 54 200q0 126 -74 232q-14 20 -40 48 q-34 32 -56 46q-104 72 -228 72q-122 0 -228 -72q-16 -14 -48 -44q-30 -28 -44 -46q-14 -22 -26 -46q-48 -88 -48 -188v-4zM504 714v550h170q44 0 86 -22q14 -4 28 -18q6 -4 20 -16q20 -22 30 -46q12 -30 12 -60v-14q0 -40 -18 -78q-8 -12 -20 -28q-12 -14 -26 -24 q-18 -14 -30 -22l-12 -4q0 -2 40 -76q26 -48 78 -142h-86q-2 4 -64 122q-14 26 -42 82h-94v-2v-202h-72zM576 990h94q50 0 82 34q26 28 26 66v8q0 52 -50 80q-26 14 -56 14h-96v-202z" />
<glyph unicode="&#xaf;" horiz-adv-x="670" />
<glyph unicode="&#xb0;" horiz-adv-x="990" d="M98 1078v16q0 88 54 176q64 98 176 140q58 20 108 20h14q88 0 176 -52q102 -64 144 -180q18 -58 18 -112q0 -126 -86 -228q-30 -34 -48 -46q-96 -70 -210 -70q-124 0 -226 82q-32 30 -42 44q-16 18 -30 42q-48 84 -48 168zM312 1086q0 -58 46 -102q40 -32 84 -32 q60 0 102 48q32 38 32 86q0 64 -56 106q-34 24 -78 24q-62 0 -106 -54q-24 -34 -24 -76z" />
<glyph unicode="&#xb1;" horiz-adv-x="862" d="M76 0h708h2v-192h-2h-708v192zM76 414v194h260v256h192v-256h256l2 -2v-190q0 -2 -2 -2h-256v-260h-192v260h-260z" />
<glyph unicode="&#xb2;" horiz-adv-x="1014" />
<glyph unicode="&#xb3;" horiz-adv-x="1014" />
<glyph unicode="&#xb4;" horiz-adv-x="968" d="M242 1796v2q96 58 382 234q26 -40 102 -164q-96 -58 -382 -236l-2 2q-24 40 -100 162z" />
<glyph unicode="&#xb5;" horiz-adv-x="1176" d="M160 -400v1358v2h192v-2v-586q2 -122 104 -160q42 -20 110 -20h16q122 0 172 40q68 40 68 146v576q0 2 2 4h186q2 0 4 -4v-946q-2 0 -4 -2h-186q-2 0 -2 2v54h-4q-50 -28 -132 -52q-44 -10 -108 -10h-10q-124 0 -216 46v-446h-192z" />
<glyph unicode="&#xb6;" horiz-adv-x="1190" d="M106 1008q0 156 108 252t286 96h444v-2h66h2v-192h-2h-82v-1060v-2h-192q-2 0 -2 2v1060h-112v-1060v-2h-192q-2 0 -2 2v562q-134 18 -220 98q-102 94 -102 246z" />
<glyph unicode="&#xb7;" horiz-adv-x="736" d="M242 768v8q0 48 38 88q38 34 88 34q62 0 102 -52q24 -36 24 -70v-8q0 -48 -38 -88q-30 -24 -58 -32q-14 -2 -22 -2h-16q-32 0 -66 24t-46 66q-6 16 -6 32z" />
<glyph unicode="&#xb8;" horiz-adv-x="896" d="M246 -358q30 26 126 100q28 -36 60 -36q24 0 42 16q16 14 16 30q0 10 -6 22q-8 4 -22 4h-6q-26 0 -66 -16q-36 -10 -104 -34l64 304q38 -8 154 -32v-2q-2 -16 -10 -62q28 -6 44 -10q62 -26 92 -84q20 -44 20 -88v-6q0 -66 -44 -124q-22 -22 -34 -30q-64 -48 -138 -48h-4 q-78 0 -150 56q-26 28 -30 34q-2 2 -4 6z" />
<glyph unicode="&#xb9;" horiz-adv-x="1014" />
<glyph unicode="&#xba;" horiz-adv-x="718" />
<glyph unicode="&#xbb;" horiz-adv-x="1350" d="M174 286q88 62 266 184q-66 46 -266 184q14 18 52 74q54 78 58 84h2q12 -8 48 -34q86 -60 348 -242v-134v-2q-100 -68 -398 -272q-4 6 -110 158zM724 286q88 62 266 184q-66 46 -266 184q12 18 52 74q54 78 58 84q12 -8 48 -34q88 -60 350 -242v-134v-2 q-100 -68 -398 -272q-4 6 -110 158z" />
<glyph unicode="&#xbc;" horiz-adv-x="1708" />
<glyph unicode="&#xbd;" horiz-adv-x="1964" />
<glyph unicode="&#xbe;" horiz-adv-x="1708" />
<glyph unicode="&#xbf;" horiz-adv-x="1112" d="M94 448q0 118 66 232q18 32 48 64q32 38 58 58q36 30 116 86q20 14 44 36q12 14 18 26q4 12 4 26v230q2 0 2 2h190l2 -2v-228q0 -136 -128 -232q-30 -26 -108 -80q-44 -32 -70 -72q-32 -48 -46 -106q-2 -24 -2 -40q0 -100 68 -176q76 -80 180 -80q98 0 176 74 q72 78 72 182v34h194v-42q0 -98 -50 -200q-16 -34 -48 -72q-12 -18 -44 -48q-28 -26 -50 -40q-36 -26 -76 -46q-86 -34 -168 -34h-14q-88 0 -178 40q-38 18 -80 50q-22 16 -48 42q-38 40 -56 70q-72 114 -72 246zM420 1384v6q0 50 42 90q36 32 78 32h12q32 0 66 -24 q36 -24 50 -70q4 -18 4 -32q0 -58 -48 -98q-34 -28 -80 -28q-56 0 -96 46q-28 38 -28 78z" />
<glyph unicode="&#xc0;" d="M34 0q128 314 508 1250q22 54 88 214h180q4 0 86 -216l510 -1248h-4h-208q-4 0 -28 66q-34 84 -102 248h-696q-30 -78 -126 -314h-208zM448 510h536q-66 164 -266 658q-4 0 -110 -270q-54 -130 -160 -388zM478 1864q24 42 100 164q96 -58 382 -234v-2q-24 -40 -98 -162 h-2q-96 58 -382 234z" />
<glyph unicode="&#xc1;" d="M34 0q128 314 508 1250q22 54 88 214h180q4 0 86 -216l510 -1248h-4h-208q-4 0 -28 66q-34 84 -102 248h-696q-30 -78 -126 -314h-208zM448 510h536q-66 164 -266 658q-4 0 -110 -270q-54 -130 -160 -388zM478 1792q94 60 382 236l2 -2q24 -40 98 -162q-94 -60 -382 -234 q-26 40 -100 162z" />
<glyph unicode="&#xc2;" d="M34 0q128 314 508 1250q22 54 88 214h180q4 0 86 -216l510 -1248h-4h-208q-4 0 -28 66q-34 84 -102 248h-696q-30 -78 -126 -314h-208zM440 1758q56 62 224 250h112q14 -14 224 -250q-48 -42 -144 -128l-136 152l-136 -152zM448 510h536q-66 164 -266 658q-4 0 -110 -270 q-54 -130 -160 -388z" />
<glyph unicode="&#xc3;" d="M34 0q128 314 508 1250q22 54 88 214h180q4 0 86 -216l510 -1248h-4h-208q-4 0 -28 66q-34 84 -102 248h-696q-30 -78 -126 -314h-208zM352 1642v198q40 40 78 60q58 32 114 32q64 0 182 -60q116 -60 172 -60q54 0 110 34q38 24 84 76v-206q-38 -30 -76 -52 q-60 -30 -118 -30t-178 58q-118 60 -176 60q-52 0 -110 -34q-36 -22 -82 -76zM448 510h536q-66 164 -266 658q-4 0 -110 -270q-54 -130 -160 -388z" />
<glyph unicode="&#xc4;" d="M34 0q128 314 508 1250q22 54 88 214h180q4 0 86 -216l510 -1248h-4h-208q-4 0 -28 66q-34 84 -102 248h-696q-30 -78 -126 -314h-208zM404 1782v8q0 46 38 86q38 36 88 36q62 0 102 -54q24 -34 24 -68v-8q0 -48 -40 -88q-28 -26 -56 -32q-16 -4 -24 -4h-14q-32 0 -66 24 t-48 66q-4 18 -4 34zM448 510h536q-66 164 -266 658q-4 0 -110 -270q-54 -130 -160 -388zM784 1782v8q0 46 38 86q38 36 90 36q58 0 100 -54q24 -34 24 -68v-8q0 -48 -38 -88q-30 -26 -58 -32q-14 -4 -22 -4h-14q-32 0 -68 24q-34 24 -46 66q-6 18 -6 34z" />
<glyph unicode="&#xc5;" d="M34 0q128 314 508 1250q22 54 88 214h-2q-14 8 -28 18q-16 16 -24 26q-16 20 -24 34q-18 42 -18 80v10q0 54 34 104q8 10 26 30q56 48 124 48h2q66 0 122 -46q22 -22 28 -30q36 -50 36 -112q0 -74 -56 -132q-4 -4 -10 -12q-14 -10 -28 -18h-2q8 -16 86 -216l510 -1248h-4 h-208q-4 0 -28 66q-34 84 -102 248h-696q-30 -78 -126 -314h-208zM448 510h536q-66 164 -266 658q-4 0 -110 -270q-54 -130 -160 -388zM650 1626q0 -32 28 -56q18 -14 42 -14q32 0 56 28q14 22 14 42v4q0 26 -20 46q-22 20 -50 20t-48 -18q-22 -22 -22 -50v-2z" />
<glyph unicode="&#xc6;" horiz-adv-x="1960" d="M34 2q130 184 516 732q128 182 514 730h784q2 0 4 -2v-188l-4 -2h-592v-442l2 -4h468l2 -2v-186l-2 -2h-470v-444h592q2 -2 4 -2v-188l-4 -2h-782l-2 2v412l-2 2h-500q-6 -8 -192 -272q-94 -136 -102 -144h-230zM698 608h364l2 2v518h-2q-92 -130 -364 -520z" />
<glyph unicode="&#xc7;" horiz-adv-x="1186" d="M96 728v8q0 276 186 496q216 232 506 232h2q282 0 496 -220q74 -86 106 -148q-8 -8 -170 -94q-28 50 -80 114q-156 156 -352 156q-198 0 -352 -158q-150 -168 -150 -380q0 -248 190 -424q144 -116 304 -116h20q176 0 328 144q66 72 94 126q56 -30 168 -88v-6 q-34 -62 -90 -132q-214 -232 -500 -238q-4 -16 -12 -64q28 -6 44 -10q62 -26 92 -84q22 -44 22 -88v-6q0 -66 -46 -124q-22 -22 -34 -30q-64 -48 -138 -48h-4q-78 0 -148 56q-28 28 -32 34q-2 2 -4 6q30 26 126 100q28 -36 60 -36q24 0 42 16q16 14 16 30q0 10 -6 22 q-8 4 -26 8h-4q-24 -4 -64 -14q-34 -12 -104 -36v2q16 70 60 282q-202 46 -362 218q-184 222 -184 494z" />
<glyph unicode="&#xc8;" horiz-adv-x="1068" d="M172 0v1464h2h786v-192h-594v-444h470l2 -2v-188l-2 -2h-470v-444h594v-192h-786h-2zM324 1864q26 42 100 164q96 -58 384 -234v-2q-26 -40 -100 -162h-2q-94 58 -382 234z" />
<glyph unicode="&#xc9;" horiz-adv-x="1068" d="M172 0v1464h2h786v-192h-594v-444h470l2 -2v-188l-2 -2h-470v-444h594v-192h-786h-2zM324 1792v2q96 58 382 234q26 -40 102 -164q-96 -58 -384 -234q-26 40 -100 162z" />
<glyph unicode="&#xca;" horiz-adv-x="1152" d="M172 0v1464h2h786v-192h-594v-444h470l2 -2v-188l-2 -2h-470v-444h594v-192h-786h-2zM288 1758q54 62 222 250h114q12 -14 222 -250q-48 -42 -144 -128q-34 38 -134 152l-136 -152z" />
<glyph unicode="&#xcb;" horiz-adv-x="1152" d="M172 0v1464h2h786v-192h-594v-444h470l2 -2v-188l-2 -2h-470v-444h594v-192h-786h-2zM250 1782v8q0 46 38 86q38 36 88 36q62 0 102 -54q24 -34 24 -68v-8q0 -48 -38 -88q-30 -26 -58 -32q-14 -4 -22 -4h-16q-32 0 -66 24t-46 66q-6 18 -6 34zM630 1782v8q0 46 38 86 q38 36 90 36q58 0 100 -54q24 -34 24 -68v-8q0 -48 -40 -88q-28 -26 -56 -32q-16 -4 -24 -4h-12q-32 0 -68 24q-34 24 -48 66q-4 18 -4 34z" />
<glyph unicode="&#xcc;" horiz-adv-x="536" d="M26 1864q26 42 102 164q94 -58 382 -234v-2q-24 -40 -100 -162h-2q-94 58 -382 234zM172 0v1464h2h190h2v-1464h-2h-190h-2z" />
<glyph unicode="&#xcd;" horiz-adv-x="536" d="M26 1792v2q96 58 382 234q26 -40 102 -164q-96 -58 -382 -234h-2q-24 40 -100 162zM172 0v1464h2h190h2v-1464h-2h-190h-2z" />
<glyph unicode="&#xce;" horiz-adv-x="536" d="M-10 1758q54 62 222 250h114q12 -14 222 -250q-48 -42 -144 -128q-34 38 -134 152l-136 -152zM172 0v1464h2h190h2v-1464h-2h-190h-2z" />
<glyph unicode="&#xcf;" horiz-adv-x="536" d="M-28 1782v8q0 46 38 86q38 36 88 36q62 0 102 -54q24 -34 24 -68v-8q0 -48 -40 -88q-28 -26 -56 -32q-16 -4 -24 -4h-14q-32 0 -66 24t-48 66q-4 18 -4 34zM172 0v1464h2h190h2v-1464h-2h-190h-2zM312 1782v8q0 46 38 86q38 36 90 36q58 0 100 -54q24 -34 24 -68v-8 q0 -48 -38 -88q-30 -26 -58 -32q-14 -4 -22 -4h-14q-32 0 -68 24q-34 24 -46 66q-6 18 -6 34z" />
<glyph unicode="&#xd0;" horiz-adv-x="1450" d="M112 634v196h128v630l2 4h382q264 0 480 -178q82 -78 104 -114q150 -202 150 -436v-10q0 -292 -222 -520q-122 -110 -240 -154q-134 -52 -264 -52h-390l-2 2v632h-128zM432 192h176q256 0 426 190q132 156 132 348q0 198 -134 354q-80 84 -124 104q-38 28 -124 58 q-74 24 -196 24h-154l-2 -2v-438h200v-196h-200v-442z" />
<glyph unicode="&#xd1;" horiz-adv-x="1516" d="M172 2v1460l4 2h208q174 -262 702 -1046q16 -24 64 -98v1142l2 2h190l2 -2v-1460l-2 -2h-208q-54 76 -400 596q-124 182 -370 548v-1142l-2 -2h-186q-2 0 -4 2zM388 1640v194q38 44 76 62q60 32 114 32q66 0 184 -60t174 -60q50 0 108 34q38 24 84 78v-208 q-40 -32 -78 -52q-58 -28 -114 -28q-62 0 -180 56q-116 58 -178 58q-50 0 -106 -32q-40 -24 -84 -74z" />
<glyph unicode="&#xd2;" horiz-adv-x="1598" d="M98 730v6q0 310 232 542q24 18 68 54q186 132 402 132h4q290 0 508 -226q194 -222 194 -506q0 -310 -228 -540q-214 -192 -474 -192q-262 0 -472 186q-92 96 -120 150q-114 182 -114 394zM292 734q0 -238 180 -412q148 -128 332 -128q240 0 406 212q104 152 104 318v12 q0 206 -144 370q-160 166 -366 166q-230 0 -396 -198q-116 -156 -116 -340zM560 1864q26 42 102 164q96 -58 384 -234v-2q-26 -40 -102 -162q-96 58 -384 234z" />
<glyph unicode="&#xd3;" horiz-adv-x="1598" d="M98 730v6q0 310 232 542q24 18 68 54q186 132 402 132h4q290 0 508 -226q194 -222 194 -506q0 -310 -228 -540q-214 -192 -474 -192q-262 0 -472 186q-92 96 -120 150q-114 182 -114 394zM292 734q0 -238 180 -412q148 -128 332 -128q240 0 406 212q104 152 104 318v12 q0 206 -144 370q-160 166 -366 166q-230 0 -396 -198q-116 -156 -116 -340zM560 1792v2q96 58 384 234q26 -40 102 -164q-96 -58 -384 -234q-26 40 -102 162z" />
<glyph unicode="&#xd4;" horiz-adv-x="1598" d="M98 730v6q0 310 232 542q24 18 68 54q186 132 402 132h4q290 0 508 -226q194 -222 194 -506q0 -310 -228 -540q-214 -192 -474 -192q-262 0 -472 186q-92 96 -120 150q-114 182 -114 394zM292 734q0 -238 180 -412q148 -128 332 -128q240 0 406 212q104 152 104 318v12 q0 206 -144 370q-160 166 -366 166q-230 0 -396 -198q-116 -156 -116 -340zM522 1758q56 62 224 250h112q14 -14 224 -250q-48 -42 -144 -128l-136 152q-32 -38 -134 -152h-2z" />
<glyph unicode="&#xd5;" horiz-adv-x="1598" d="M98 730v6q0 310 232 542q24 18 68 54q186 132 402 132h4q290 0 508 -226q194 -222 194 -506q0 -310 -228 -540q-214 -192 -474 -192q-262 0 -472 186q-92 96 -120 150q-114 182 -114 394zM292 734q0 -238 180 -412q148 -128 332 -128q240 0 406 212q104 152 104 318v12 q0 206 -144 370q-160 166 -366 166q-230 0 -396 -198q-116 -156 -116 -340zM438 1646v196q38 42 76 62q60 32 114 32q66 0 182 -60q118 -60 174 -60q52 0 110 32q36 24 82 78v-206q-38 -32 -76 -54q-60 -28 -116 -28q-60 0 -178 58t-178 58q-52 0 -108 -34q-38 -22 -82 -74z " />
<glyph unicode="&#xd6;" horiz-adv-x="1598" d="M98 730v6q0 310 232 542q24 18 68 54q186 132 402 132h4q290 0 508 -226q194 -222 194 -506q0 -310 -228 -540q-214 -192 -474 -192q-262 0 -472 186q-92 96 -120 150q-114 182 -114 394zM290 734q0 -238 182 -412q146 -128 332 -128q240 0 404 212q104 152 104 318v12 q0 206 -142 370q-160 166 -366 166q-230 0 -396 -198q-118 -156 -118 -340zM486 1782v8q0 46 36 86q38 36 90 36q60 0 100 -54q24 -34 24 -68v-8q0 -48 -38 -88q-28 -26 -58 -32q-14 -4 -22 -4h-14q-32 0 -68 24q-32 24 -46 66q-4 18 -4 34zM864 1782v8q0 46 40 86 q38 36 88 36q60 0 102 -54q24 -34 24 -68v-8q0 -48 -40 -88q-30 -26 -56 -32q-16 -4 -24 -4h-14q-32 0 -66 24q-36 24 -48 66q-6 18 -6 34z" />
<glyph unicode="&#xd7;" horiz-adv-x="832" d="M96 302l184 184l-184 184l136 136l184 -184l184 184h2q34 -34 134 -136l-184 -184l184 -184l-136 -136l-184 184l-184 -184z" />
<glyph unicode="&#xd8;" horiz-adv-x="1212" d="M98 730v6q0 310 232 542q24 18 68 54q186 132 402 132h4q180 0 330 -86q28 46 112 182h2q38 -22 158 -94q-30 -50 -124 -200q16 -14 30 -28q194 -222 194 -506q0 -310 -228 -540q-214 -192 -474 -192q-140 0 -266 54q-32 -52 -96 -158h-2q-38 24 -158 94v2q24 40 96 158 q-24 18 -46 36q-92 96 -120 150q-114 182 -114 394zM290 734q0 -238 182 -412l8 -8l552 900q-104 58 -228 58q-230 0 -396 -198q-118 -156 -118 -340zM640 222q80 -28 164 -28q240 0 404 212q104 152 104 318v12q0 200 -134 360q-134 -218 -538 -874z" />
<glyph unicode="&#xd9;" horiz-adv-x="1486" d="M170 532v930l4 2h186l2 -2v-892q0 -162 54 -238q50 -86 168 -126q46 -12 88 -12h142q170 0 266 156q42 82 42 194v918l4 2h186q2 0 4 -2v-870q0 -174 -30 -250q-62 -174 -200 -264q-122 -78 -294 -78h-96q-230 0 -368 136q-62 62 -94 122q-64 128 -64 274zM502 1864 q24 42 100 164q96 -58 382 -234v-2q-24 -40 -98 -162h-2q-96 58 -382 234z" />
<glyph unicode="&#xda;" horiz-adv-x="1486" d="M170 532v930l4 2h186l2 -2v-892q0 -162 54 -238q50 -86 168 -126q46 -12 88 -12h142q170 0 266 156q42 82 42 194v918l4 2h186q2 0 4 -2v-870q0 -174 -30 -250q-62 -174 -200 -264q-122 -78 -294 -78h-96q-230 0 -368 136q-62 62 -94 122q-64 128 -64 274zM502 1792v2 q94 58 382 234q26 -40 100 -164q-94 -58 -382 -234h-2q-24 40 -98 162z" />
<glyph unicode="&#xdb;" horiz-adv-x="1486" d="M170 532v930l4 2h186l2 -2v-892q0 -162 54 -238q50 -86 168 -126q46 -12 88 -12h142q170 0 266 156q42 82 42 194v918l4 2h186q2 0 4 -2v-870q0 -174 -30 -250q-62 -174 -200 -264q-122 -78 -294 -78h-96q-230 0 -368 136q-62 62 -94 122q-64 128 -64 274zM464 1758 q56 62 224 250h112q14 -14 224 -250q-48 -42 -144 -128l-136 152l-136 -152z" />
<glyph unicode="&#xdc;" horiz-adv-x="1360" d="M170 532v930l4 2h186l2 -2v-892q0 -162 54 -238q50 -86 168 -126q46 -12 88 -12h142q170 0 266 156q42 82 42 194v918l4 2h186q2 0 4 -2v-870q0 -174 -30 -250q-62 -174 -200 -264q-122 -78 -294 -78h-96q-230 0 -368 136q-62 62 -94 122q-64 128 -64 274zM430 1782v8 q0 46 36 86q38 36 90 36q60 0 100 -54q24 -34 24 -68v-8q0 -48 -38 -88q-28 -26 -58 -32q-14 -4 -22 -4h-14q-32 0 -68 24q-32 24 -46 66q-4 18 -4 34zM808 1782v8q0 46 40 86q38 36 88 36q60 0 102 -54q24 -34 24 -68v-8q0 -48 -40 -88q-30 -26 -56 -32q-16 -4 -24 -4h-14 q-32 0 -66 24q-36 24 -48 66q-6 18 -6 34z" />
<glyph unicode="&#xdd;" horiz-adv-x="1360" d="M30 1464h244q12 -10 204 -280q68 -96 204 -286q386 542 406 566h246q-138 -190 -550 -758v-704l-2 -2h-198q-2 0 -4 2v702q0 6 -66 94q-160 222 -484 666zM440 1792v2q96 58 384 234q24 -40 100 -164q-96 -58 -382 -234h-2q-24 40 -100 162z" />
<glyph unicode="&#xde;" horiz-adv-x="1368" d="M152 0v1464h2h190h2v-222h438q158 0 280 -66q32 -16 66 -44q14 -10 44 -42q106 -120 106 -290v-136q0 -172 -110 -294q-32 -32 -50 -44q-36 -28 -62 -40q-24 -14 -56 -26q-102 -38 -216 -38h-440v-222h-2h-190h-2zM346 416h430q178 0 258 94q20 26 28 42q24 48 24 124 v114q0 82 -28 130q-36 72 -128 106q-66 24 -156 24h-428v-634z" />
<glyph unicode="&#xdf;" horiz-adv-x="1360" d="M152 2v1112q0 72 64 176q124 174 370 174q176 0 304 -72q142 -92 142 -240v-8q0 -124 -108 -264q-66 -90 -66 -134t140 -114q268 -152 268 -346q0 -144 -146 -262q-128 -90 -272 -90q-216 0 -368 200q-24 34 -24 40q54 34 160 100q8 -10 30 -40q88 -106 202 -106 q106 0 190 80q34 46 34 78q0 96 -232 212q-176 102 -176 254q0 104 108 248q68 86 68 144v6q0 100 -216 120q-14 0 -40 2q-168 0 -224 -120q-14 -32 -14 -48v-1102l-2 -2h-188z" />
<glyph unicode="&#xe0;" horiz-adv-x="1210" d="M92 474q0 222 170 382q140 118 320 118q166 0 284 -128v110q2 0 4 2h188q2 0 4 -2v-954q-2 0 -4 -2h-188l-4 2v96q-112 -122 -288 -122q-218 0 -372 176q-114 144 -114 322zM286 474q0 -156 136 -258q74 -46 144 -46h20q96 0 188 78q92 96 92 226q0 160 -136 260 q-74 44 -146 44h-16q-120 0 -218 -110q-64 -92 -64 -194zM334 1364q26 40 100 164q96 -58 384 -234v-2q-26 -40 -100 -162v-2q-96 60 -384 236z" />
<glyph unicode="&#xe1;" horiz-adv-x="1210" d="M92 474q0 222 170 382q140 118 320 118q166 0 284 -128v110q2 0 4 2h188q2 0 4 -2v-954q-2 0 -4 -2h-188l-4 2v96q-112 -122 -288 -122q-218 0 -372 176q-114 144 -114 322zM286 474q0 -156 136 -258q74 -46 144 -46h20q96 0 188 78q92 96 92 226q0 160 -136 260 q-74 44 -146 44h-16q-120 0 -218 -110q-64 -92 -64 -194zM334 1292v2q96 58 384 234q24 -42 100 -164q-96 -58 -384 -236v2q-26 40 -100 162z" />
<glyph unicode="&#xe2;" horiz-adv-x="1210" d="M92 474q0 222 170 382q140 118 320 118q166 0 284 -128v110q2 0 4 2h188q2 0 4 -2v-954q-2 0 -4 -2h-188l-4 2v96q-112 -122 -288 -122q-218 0 -372 176q-114 144 -114 322zM286 474q0 -156 136 -258q74 -46 144 -46h20q96 0 188 78q92 96 92 226q0 160 -136 260 q-74 44 -146 44h-16q-120 0 -218 -110q-64 -92 -64 -194zM296 1256v2q56 62 224 252h112q14 -14 224 -252q-48 -44 -144 -130l-136 152l-136 -152z" />
<glyph unicode="&#xe3;" horiz-adv-x="1210" d="M92 474q0 222 170 382q140 118 320 118q166 0 284 -128v110q2 0 4 2h188q2 0 4 -2v-954q-2 0 -4 -2h-188l-4 2v96q-112 -122 -288 -122q-218 0 -372 176q-114 144 -114 322zM200 1144v194q38 44 76 62q60 32 114 32q66 0 182 -60q118 -60 174 -60q52 0 110 34 q38 24 82 78v-208q-38 -32 -76 -52q-60 -28 -116 -28q-60 0 -178 56q-118 58 -178 58q-52 0 -108 -32q-38 -24 -82 -74zM286 474q0 -156 136 -258q74 -46 144 -46h20q96 0 188 78q92 96 92 226q0 160 -136 260q-74 44 -146 44h-16q-120 0 -218 -110q-64 -92 -64 -194z" />
<glyph unicode="&#xe4;" horiz-adv-x="1210" d="M92 474q0 222 170 382q140 118 320 118q166 0 284 -128v110q2 0 4 2h188q2 0 4 -2v-954q-2 0 -4 -2h-188l-4 2v96q-112 -122 -288 -122q-218 0 -372 176q-114 144 -114 322zM260 1280v8q0 48 38 88q38 34 88 34q62 0 102 -50q24 -36 24 -72v-8q0 -48 -40 -88 q-28 -24 -56 -30q-16 -2 -24 -2h-14q-32 0 -66 22q-34 26 -48 66q-4 18 -4 32zM286 474q0 -156 136 -258q74 -46 144 -46h20q96 0 188 78q92 96 92 226q0 160 -136 260q-74 44 -146 44h-16q-120 0 -218 -110q-64 -92 -64 -194zM640 1280v8q0 48 38 88q38 34 90 34 q58 0 100 -50q24 -36 24 -72v-8q0 -48 -38 -88q-30 -24 -58 -30q-14 -2 -22 -2h-14q-32 0 -68 22q-34 26 -46 66q-6 18 -6 32z" />
<glyph unicode="&#xe5;" horiz-adv-x="1210" d="M92 474q0 222 170 382q140 118 320 118q166 0 284 -128v110q2 0 4 2h188q2 0 4 -2v-954q-2 0 -4 -2h-188l-4 2v96q-112 -122 -288 -122q-218 0 -372 176q-114 144 -114 322zM286 474q0 -156 136 -258q74 -46 144 -46h20q96 0 188 78q92 96 92 226q0 160 -136 260 q-74 44 -146 44h-16q-120 0 -218 -110q-64 -92 -64 -194zM402 1288v10q0 52 34 100q6 8 22 26q54 44 118 44h2q62 0 112 -42q22 -20 26 -26q36 -50 36 -106q0 -70 -54 -126l-8 -8q-50 -40 -114 -40q-62 0 -112 40q-16 14 -22 24q-14 16 -20 30q-20 40 -20 74zM512 1294 q0 -30 26 -52q16 -14 38 -14q32 0 54 26q12 18 12 40v2q0 24 -18 44q-22 20 -48 20q-24 0 -46 -18q-18 -22 -18 -46v-2z" />
<glyph unicode="&#xe6;" horiz-adv-x="1906" d="M92 474q0 222 170 382q140 118 320 118q166 0 284 -128v110q2 0 4 2h188q2 0 4 -2v-108q10 12 24 24q132 102 266 102h28q146 0 282 -118q66 -64 90 -112q72 -128 72 -270v-30q0 -28 -2 -28h-718q24 -106 78 -160q80 -88 184 -88q130 0 218 132q16 34 18 34 q174 -78 174 -80q-14 -36 -62 -104q-146 -174 -346 -174h-6q-170 0 -300 126v-100q-2 0 -4 -2h-188l-4 2v96q-112 -122 -288 -122q-218 0 -372 176q-114 144 -114 322zM286 474q0 -156 136 -258q74 -46 144 -46h20q96 0 188 78q92 96 92 226q0 160 -136 260q-74 44 -146 44 h-16q-120 0 -218 -110q-64 -92 -64 -194zM1122 598h486v2q-16 50 -78 114q-76 66 -166 66q-138 0 -226 -146q-4 -12 -16 -36z" />
<glyph unicode="&#xe7;" horiz-adv-x="1042" d="M90 466v16q0 112 54 224q18 32 40 64q16 24 50 62q40 38 70 56q126 86 270 86h2q150 0 280 -94q24 -16 54 -46q36 -38 50 -58q14 -18 14 -22q-54 -34 -160 -106q-12 18 -40 48q-88 84 -200 84q-108 0 -194 -78q-32 -32 -38 -46q-60 -82 -60 -182q0 -108 70 -196 q22 -28 46 -46q80 -64 178 -64q88 0 162 56q18 10 48 40q16 20 30 40q40 -28 160 -106q-16 -28 -46 -62q-34 -36 -48 -46q-32 -26 -56 -42q-96 -58 -200 -70q-2 -10 -8 -42q30 -6 46 -10q62 -26 90 -84q22 -44 22 -88v-6q0 -66 -46 -124q-22 -22 -34 -30q-64 -48 -136 -48 h-6q-78 0 -148 56q-28 28 -30 34l-6 6q32 26 126 100q28 -36 62 -36q22 0 42 16q16 14 16 30q0 10 -8 22q-8 4 -22 4h-4q-28 0 -68 -16q-34 -10 -104 -34q14 66 54 260q-80 20 -154 68q-24 18 -46 34q-36 34 -54 56q-40 48 -58 82q-18 32 -36 84q-26 82 -26 154z" />
<glyph unicode="&#xe8;" horiz-adv-x="1066" d="M66 472v4q0 234 180 396q132 102 266 102h28q146 0 282 -118q66 -64 90 -112q72 -128 72 -270v-30q0 -28 -2 -28h-718q24 -106 78 -160q80 -88 184 -88q130 0 218 132q16 34 18 34q174 -78 174 -80q-14 -36 -62 -104q-146 -174 -346 -174h-6q-204 0 -354 184 q-102 142 -102 312zM282 598h486v2q-16 50 -78 114q-76 66 -166 66q-138 0 -226 -146q-4 -12 -16 -36zM312 1364q26 40 102 164q94 -58 382 -234v-2q-24 -40 -100 -162v-2q-96 60 -384 236z" />
<glyph unicode="&#xe9;" horiz-adv-x="1066" d="M66 472v4q0 234 180 396q132 102 266 102h28q146 0 282 -118q66 -64 90 -112q72 -128 72 -270v-30q0 -28 -2 -28h-718q24 -106 78 -160q80 -88 184 -88q130 0 218 132q16 34 18 34q174 -78 174 -80q-14 -36 -62 -104q-146 -174 -346 -174h-6q-204 0 -354 184 q-102 142 -102 312zM282 598h486v2q-16 50 -78 114q-76 66 -166 66q-138 0 -226 -146q-4 -12 -16 -36zM312 1292v2q96 58 384 234q24 -42 100 -164q-96 -58 -382 -236l-2 2q-24 40 -100 162z" />
<glyph unicode="&#xea;" horiz-adv-x="1066" d="M66 472v4q0 234 180 396q132 102 266 102h28q146 0 282 -118q66 -64 90 -112q72 -128 72 -270v-30q0 -28 -2 -28h-718q24 -106 78 -160q80 -88 184 -88q130 0 218 132q16 34 18 34q174 -78 174 -80q-14 -36 -62 -104q-146 -174 -346 -174h-6q-204 0 -354 184 q-102 142 -102 312zM274 1256v2q56 62 222 252h114q14 -14 222 -252q-48 -44 -144 -130q-32 38 -134 152l-136 -152zM282 598h486v2q-16 50 -78 114q-76 66 -166 66q-138 0 -226 -146q-4 -12 -16 -36z" />
<glyph unicode="&#xeb;" horiz-adv-x="1066" d="M66 472v4q0 234 180 396q132 102 266 102h28q146 0 282 -118q66 -64 90 -112q72 -128 72 -270v-30q0 -28 -2 -28h-718q24 -106 78 -160q80 -88 184 -88q130 0 218 132q16 34 18 34q174 -78 174 -80q-14 -36 -62 -104q-146 -174 -346 -174h-6q-204 0 -354 184 q-102 142 -102 312zM238 1280v8q0 48 36 88q38 34 90 34q60 0 100 -50q24 -36 24 -72v-8q0 -48 -38 -88q-28 -24 -58 -30q-14 -2 -22 -2h-14q-32 0 -68 22q-32 26 -46 66q-4 18 -4 32zM282 598h486v2q-16 50 -78 114q-76 66 -166 66q-138 0 -226 -146q-4 -12 -16 -36z M616 1280v8q0 48 40 88q38 34 88 34q60 0 102 -50q24 -36 24 -72v-8q0 -48 -40 -88q-30 -24 -56 -30q-16 -2 -24 -2h-14q-32 0 -66 22q-36 26 -48 66q-6 18 -6 32z" />
<glyph unicode="&#xec;" horiz-adv-x="518" d="M16 1364q26 40 102 164q96 -58 384 -234v-2q-26 -40 -102 -162v-2q-96 60 -384 236zM162 0v958h194v-958h-2h-192z" />
<glyph unicode="&#xed;" horiz-adv-x="514" d="M16 1292v2q96 58 384 234q26 -42 102 -164q-96 -58 -384 -236v2q-26 40 -102 162zM162 0v958h194v-958h-2h-192z" />
<glyph unicode="&#xee;" horiz-adv-x="518" d="M-22 1256v2q56 62 224 252h112q14 -14 224 -252q-48 -44 -144 -130l-136 152q-32 -38 -134 -152h-2zM162 0v958h194v-958h-2h-192z" />
<glyph unicode="&#xef;" horiz-adv-x="518" d="M-38 1280v8q0 48 38 88q40 34 90 34q60 0 102 -50q24 -36 24 -72v-8q0 -48 -40 -88q-30 -24 -56 -30q-16 -2 -24 -2h-14q-32 0 -66 22q-34 26 -48 66q-6 18 -6 32zM162 0v958h194v-958h-2h-192zM304 1280v8q0 48 38 88q36 34 88 34q60 0 100 -50q24 -36 24 -72v-8 q0 -48 -38 -88q-28 -24 -58 -30q-14 -2 -22 -2h-14q-32 0 -68 22q-34 26 -46 66q-4 18 -4 32z" />
<glyph unicode="&#xf0;" horiz-adv-x="1138" />
<glyph unicode="&#xf1;" horiz-adv-x="1154" d="M152 2v948q2 0 4 2h188l2 -2v-54q52 28 134 52q44 10 108 10h10q258 0 370 -196q38 -76 38 -180v-580l-2 -2h-188l-2 2v582q0 122 -102 162q-44 20 -112 20h-16q-120 0 -172 -38q-66 -40 -66 -150v-576l-2 -2h-188zM210 1142v196q40 42 78 62q58 32 114 32q64 0 182 -60 t174 -60q52 0 108 32q38 24 86 78v-206q-40 -32 -78 -54q-58 -28 -116 -28q-60 0 -178 58t-178 58q-50 0 -108 -34q-38 -22 -84 -74z" />
<glyph unicode="&#xf2;" horiz-adv-x="1150" d="M90 466v16q0 112 56 224q16 32 38 64q16 24 50 62q50 44 70 56q124 86 270 86q162 0 298 -106q18 -14 54 -50q68 -76 98 -158q34 -90 34 -188q0 -126 -60 -240q-22 -40 -56 -84q-40 -44 -64 -62q-28 -22 -52 -38q-118 -72 -248 -72h-8q-136 0 -260 80q-24 18 -44 34 q-40 32 -56 56q-20 24 -40 52q-18 32 -34 62q-46 104 -46 206zM282 472q0 -108 72 -198q30 -34 48 -44q78 -62 172 -62q114 0 202 88q34 36 48 64q42 72 42 152v2q0 116 -80 208q-34 36 -44 40q-18 14 -32 22q-66 36 -136 36q-106 0 -194 -78q-30 -32 -38 -46 q-60 -82 -60 -184zM334 1364q24 40 100 164q96 -58 382 -234v-2q-24 -40 -98 -162q-2 0 -2 -2q-96 60 -382 236z" />
<glyph unicode="&#xf3;" horiz-adv-x="1150" d="M90 466v16q0 112 56 224q16 32 38 64q16 24 50 62q50 44 70 56q124 86 270 86q162 0 298 -106q18 -14 54 -50q68 -76 98 -158q34 -90 34 -188q0 -126 -60 -240q-22 -40 -56 -84q-40 -44 -64 -62q-28 -22 -52 -38q-118 -72 -248 -72h-8q-136 0 -260 80q-24 18 -44 34 q-40 32 -56 56q-20 24 -40 52q-18 32 -34 62q-46 104 -46 206zM282 472q0 -108 72 -198q30 -34 48 -44q78 -62 172 -62q114 0 202 88q34 36 48 64q42 72 42 152v2q0 116 -80 208q-34 36 -44 40q-18 14 -32 22q-66 36 -136 36q-106 0 -194 -78q-30 -32 -38 -46 q-60 -82 -60 -184zM334 1292v2q94 58 382 234q26 -42 100 -164q-94 -58 -382 -236q0 2 -2 2q-24 40 -98 162z" />
<glyph unicode="&#xf4;" horiz-adv-x="1150" d="M90 466v16q0 112 56 224q16 32 38 64q16 24 50 62q50 44 70 56q124 86 270 86q162 0 298 -106q18 -14 54 -50q68 -76 98 -158q34 -90 34 -188q0 -126 -60 -240q-22 -40 -56 -84q-40 -44 -64 -62q-28 -22 -52 -38q-118 -72 -248 -72h-8q-136 0 -260 80q-24 18 -44 34 q-40 32 -56 56q-20 24 -40 52q-18 32 -34 62q-46 104 -46 206zM282 472q0 -108 72 -198q30 -34 48 -44q78 -62 172 -62q114 0 202 88q34 36 48 64q42 72 42 152v2q0 116 -80 208q-34 36 -44 40q-18 14 -32 22q-66 36 -136 36q-106 0 -194 -78q-30 -32 -38 -46 q-60 -82 -60 -184zM296 1256v2q54 62 222 252h114q12 -14 222 -252q-48 -44 -144 -130q-34 38 -134 152l-136 -152z" />
<glyph unicode="&#xf5;" horiz-adv-x="1150" d="M90 466v16q0 112 56 224q16 32 38 64q16 24 50 62q50 44 70 56q124 86 270 86q162 0 298 -106q18 -14 54 -50q68 -76 98 -158q34 -90 34 -188q0 -126 -60 -240q-22 -40 -56 -84q-40 -44 -64 -62q-28 -22 -52 -38q-118 -72 -248 -72h-8q-136 0 -260 80q-24 18 -44 34 q-40 32 -56 56q-20 24 -40 52q-18 32 -34 62q-46 104 -46 206zM206 1144v194q38 44 76 62q60 32 114 32q66 0 182 -60q118 -60 174 -60q52 0 110 34q36 24 82 78v-208q-38 -32 -76 -52q-60 -28 -116 -28q-60 0 -178 56q-118 58 -178 58q-52 0 -108 -32q-38 -24 -82 -74z M282 472q0 -108 72 -198q30 -34 48 -44q78 -62 172 -62q114 0 202 88q34 36 48 64q42 72 42 152v2q0 116 -80 208q-34 36 -44 40q-18 14 -32 22q-66 36 -136 36q-106 0 -194 -78q-30 -32 -38 -46q-60 -82 -60 -184z" />
<glyph unicode="&#xf6;" horiz-adv-x="1150" d="M90 466v16q0 112 56 224q16 32 38 64q16 24 50 62q50 44 70 56q124 86 270 86q162 0 298 -106q18 -14 54 -50q68 -76 98 -158q34 -90 34 -188q0 -126 -60 -240q-22 -40 -56 -84q-40 -44 -64 -62q-28 -22 -52 -38q-118 -72 -248 -72h-8q-136 0 -260 80q-24 18 -44 34 q-40 32 -56 56q-20 24 -40 52q-18 32 -34 62q-46 104 -46 206zM258 1280v8q0 48 38 88q40 34 90 34q60 0 102 -50q24 -36 24 -72v-8q0 -48 -40 -88q-30 -24 -56 -30q-16 -2 -24 -2h-14q-32 0 -66 22q-34 26 -48 66q-6 18 -6 32zM282 472q0 -108 72 -198q30 -34 48 -44 q78 -62 172 -62q114 0 202 88q34 36 48 64q42 72 42 152v2q0 116 -80 208q-34 36 -44 40q-18 14 -32 22q-66 36 -136 36q-106 0 -194 -78q-30 -32 -38 -46q-60 -82 -60 -184zM640 1280v8q0 48 38 88q36 34 88 34q60 0 100 -50q24 -36 24 -72v-8q0 -48 -38 -88 q-28 -24 -58 -30q-14 -2 -22 -2h-14q-32 0 -68 22q-34 26 -46 66q-4 18 -4 32z" />
<glyph unicode="&#xf7;" horiz-adv-x="902" d="M96 414v194h710v-2v-190v-2h-710zM326 208q0 48 34 88q40 38 88 38h8q46 0 86 -38q36 -40 36 -86v-6q0 -50 -42 -92q-38 -32 -80 -32h-8q-50 0 -90 44q-32 38 -32 84zM326 814q0 50 34 88q40 38 88 38h8q46 0 86 -36q36 -40 36 -86v-8q0 -50 -42 -90q-38 -32 -80 -32h-8 q-50 0 -90 42q-32 38 -32 84z" />
<glyph unicode="&#xf8;" horiz-adv-x="1158" d="M54 98v2q26 28 108 110q-14 26 -26 50q-46 104 -46 206v16q0 112 56 224q16 32 38 64q16 24 50 62q50 44 70 56q124 86 270 86t268 -86q26 26 102 104h2l136 -136l-104 -104q30 -46 46 -92q34 -90 34 -188q0 -126 -60 -240q-22 -40 -56 -84q-40 -44 -64 -62 q-28 -22 -52 -38q-118 -72 -248 -72h-8q-136 0 -260 80q-8 6 -16 10l-104 -104zM282 472q0 -62 24 -118l396 396q-62 30 -128 30q-106 0 -194 -78q-30 -32 -38 -46q-60 -82 -60 -184zM434 208q66 -40 140 -40q114 0 202 88q34 36 48 64q42 72 42 152v2q0 72 -30 134 q-100 -100 -402 -400z" />
<glyph unicode="&#xf9;" horiz-adv-x="1152" d="M148 376v578q0 2 4 4h186l4 -4v-580q0 -124 100 -162q44 -20 110 -20h16q122 0 174 40q66 40 66 146v576q2 2 2 4h190v-4v-946v-2h-190l-2 2v64q-52 -38 -134 -62q-44 -10 -108 -10h-8q-260 0 -372 194q-38 78 -38 182zM332 1364q26 40 100 164q96 -58 384 -234v-2 q-24 -40 -100 -162l-2 -2q-94 60 -382 236z" />
<glyph unicode="&#xfa;" horiz-adv-x="1152" d="M148 376v578q0 2 4 4h186l4 -4v-580q0 -124 100 -162q44 -20 110 -20h16q122 0 174 40q66 40 66 146v576q2 2 2 4h190v-4v-946v-2h-190l-2 2v64q-52 -38 -134 -62q-44 -10 -108 -10h-8q-260 0 -372 194q-38 78 -38 182zM332 1292v2q96 58 382 234q26 -42 102 -164 q-96 -58 -384 -236v2q-24 40 -100 162z" />
<glyph unicode="&#xfb;" horiz-adv-x="1152" d="M148 376v578q0 2 4 4h186l4 -4v-580q0 -124 100 -162q44 -20 110 -20h16q122 0 174 40q66 40 66 146v576q2 2 2 4h190v-4v-946v-2h-190l-2 2v64q-52 -38 -134 -62q-44 -10 -108 -10h-8q-260 0 -372 194q-38 78 -38 182zM296 1256v2q54 62 222 252h114q12 -14 222 -252 q-48 -44 -144 -130q-34 38 -134 152l-136 -152z" />
<glyph unicode="&#xfc;" horiz-adv-x="1152" d="M148 376v578q0 2 4 4h186l4 -4v-580q0 -124 100 -162q44 -20 110 -20h16q122 0 174 40q66 40 66 146v576q2 2 2 4h190v-4v-946v-2h-190l-2 2v64q-52 -38 -134 -62q-44 -10 -108 -10h-8q-260 0 -372 194q-38 78 -38 182zM258 1280v8q0 48 38 88q40 34 90 34q60 0 102 -50 q24 -36 24 -72v-8q0 -48 -40 -88q-30 -24 -56 -30q-16 -2 -24 -2h-14q-32 0 -66 22q-34 26 -48 66q-6 18 -6 32zM640 1280v8q0 48 38 88q36 34 88 34q60 0 100 -50q24 -36 24 -72v-8q0 -48 -38 -88q-28 -24 -58 -30q-14 -2 -22 -2h-14q-32 0 -68 22q-34 26 -46 66 q-4 18 -4 32z" />
<glyph unicode="&#xfd;" horiz-adv-x="1120" d="M34 958h222l8 -20q48 -112 142 -338q38 -88 154 -358q2 6 42 100q44 102 134 304l136 312h212q-54 -122 -214 -488q-44 -104 -180 -410q-46 -106 -184 -422q-8 -18 -30 -70h-212v2q48 108 190 430q-48 112 -196 448q-50 114 -200 454zM318 1292v2q94 58 382 234 q26 -42 100 -164q-94 -58 -382 -236q0 2 -2 2q-24 40 -98 162z" />
<glyph unicode="&#xfe;" horiz-adv-x="1184" d="M136 -400v1864h192v-616q36 40 46 44q28 22 50 36q32 16 64 24q22 8 80 18q16 0 42 2q144 0 260 -70q32 -20 74 -60q38 -36 48 -50q24 -32 42 -62q70 -120 70 -258q0 -166 -104 -304q-12 -20 -50 -62q-6 -4 -20 -14q-138 -116 -312 -116q-126 0 -228 72q-20 12 -52 42 q-4 4 -10 12v-502h-192zM328 454q0 -30 16 -82q10 -34 24 -60q16 -22 44 -54q30 -30 44 -36q24 -16 40 -28q64 -26 114 -26h14q88 0 168 60q14 10 40 36q48 56 64 118q14 44 14 92q0 114 -76 204q-32 34 -38 38q-80 62 -178 62h-8q-52 0 -114 -26q-32 -16 -70 -48 q-36 -38 -44 -52q-14 -22 -24 -42q-8 -18 -20 -50q-10 -46 -10 -66v-40z" />
<glyph unicode="&#xff;" horiz-adv-x="1120" d="M34 958h222l8 -20q48 -112 142 -338q38 -88 154 -358q2 6 42 100q44 102 134 304l136 312h212q-54 -122 -214 -488q-44 -104 -180 -410q-46 -106 -184 -422q-8 -18 -30 -70h-212v2q48 108 190 430q-48 112 -196 448q-50 114 -200 454zM242 1280v8q0 48 38 88q40 34 90 34 q60 0 102 -50q24 -36 24 -72v-8q0 -48 -40 -88q-30 -24 -56 -30q-16 -2 -24 -2h-14q-32 0 -66 22q-34 26 -48 66q-6 18 -6 32zM624 1280v8q0 48 38 88q36 34 88 34q60 0 100 -50q24 -36 24 -72v-8q0 -48 -38 -88q-28 -24 -58 -30q-14 -2 -22 -2h-14q-32 0 -68 22 q-34 26 -46 66q-4 18 -4 32z" />
<glyph unicode="&#x152;" horiz-adv-x="2252" d="M98 732v2q0 310 234 544l66 54q186 132 404 132h2q290 0 510 -228q192 -220 192 -504q0 -310 -228 -542q-214 -190 -474 -190q-262 0 -472 188q-94 96 -120 146q-114 184 -114 398zM290 734q0 -238 182 -412q148 -128 332 -128q240 0 404 212q106 152 106 318v14 q0 204 -144 368q-160 166 -366 166q-230 0 -396 -198q-118 -158 -118 -340zM1364 0v1462q0 2 2 2h786v-2v-192h-594v-442h470l2 -2v-190h-2h-470v-444h594v-192h-786h-2z" />
<glyph unicode="&#x153;" horiz-adv-x="1884" d="M90 466v16q0 112 56 224q16 32 38 64q16 24 52 60q48 46 70 58q122 86 268 86q164 0 298 -106q20 -14 54 -50q68 -78 98 -158q34 -90 34 -188q0 -124 -60 -240q-20 -38 -56 -84q-40 -44 -64 -64q-28 -22 -50 -36q-120 -72 -250 -72h-8q-136 0 -262 80q-22 18 -42 34 q-40 34 -56 56q-20 24 -38 52q-20 32 -36 62q-46 104 -46 206zM284 472q0 -108 70 -198q32 -34 48 -46q80 -60 172 -60q114 0 202 86q36 38 48 64q42 74 42 154v4q0 114 -80 206q-32 36 -46 40q-16 16 -32 22q-64 36 -134 36q-106 0 -194 -78q-30 -32 -40 -48 q-56 -80 -56 -182zM908 470v4q0 234 178 396q132 100 266 100h28q146 0 282 -116q66 -66 90 -112q74 -130 74 -270v-30q0 -28 -4 -28h-716q22 -108 76 -160q80 -88 184 -88q130 0 218 132q16 32 20 34q172 -78 174 -80q-14 -36 -64 -106q-146 -172 -346 -172h-4 q-206 0 -354 182q-102 144 -102 314zM1124 596h484q-16 52 -78 116q-76 66 -166 66q-136 0 -224 -146q-6 -12 -16 -36z" />
<glyph unicode="&#x2c6;" horiz-adv-x="822" d="M368 1758q56 62 224 250h112q14 -14 224 -250q-48 -42 -144 -128l-136 152q-32 -38 -134 -152h-2z" />
<glyph unicode="&#x2dc;" horiz-adv-x="1124" d="M242 1698v182q34 40 68 60q50 30 98 30q56 0 156 -58q102 -58 150 -58q46 0 94 34q34 22 74 74v-194q-34 -30 -66 -48q-52 -30 -102 -30t-154 58q-102 56 -152 56q-46 0 -94 -34q-34 -20 -72 -72z" />
<glyph unicode="&#x2000;" horiz-adv-x="1016" />
<glyph unicode="&#x2001;" horiz-adv-x="2032" />
<glyph unicode="&#x2002;" horiz-adv-x="1016" />
<glyph unicode="&#x2003;" horiz-adv-x="2032" />
<glyph unicode="&#x2004;" horiz-adv-x="677" />
<glyph unicode="&#x2005;" horiz-adv-x="508" />
<glyph unicode="&#x2006;" horiz-adv-x="338" />
<glyph unicode="&#x2007;" horiz-adv-x="338" />
<glyph unicode="&#x2008;" horiz-adv-x="254" />
<glyph unicode="&#x2009;" horiz-adv-x="406" />
<glyph unicode="&#x200a;" horiz-adv-x="112" />
<glyph unicode="&#x2010;" horiz-adv-x="864" d="M76 414v194h706v-2v-190v-2h-706z" />
<glyph unicode="&#x2011;" horiz-adv-x="864" d="M76 414v194h706v-2v-190v-2h-706z" />
<glyph unicode="&#x2012;" horiz-adv-x="864" d="M76 414v194h706v-2v-190v-2h-706z" />
<glyph unicode="&#x2013;" horiz-adv-x="1350" d="M100 376v192h1148h2v-192h-2h-1148z" />
<glyph unicode="&#x2014;" horiz-adv-x="2206" d="M76 414v194h2048v-2v-190v-2h-2048z" />
<glyph unicode="&#x2018;" horiz-adv-x="624" d="M138 1336q0 154 186 320q52 46 66 54q18 -22 50 -68q-128 -118 -128 -210q46 -20 66 -64q16 -24 16 -56q0 -64 -58 -104q-32 -22 -72 -22q-62 0 -102 56q-24 36 -24 94z" />
<glyph unicode="&#x2019;" horiz-adv-x="598" d="M104 -212q128 118 128 212q-46 18 -66 62q-16 26 -16 58q0 62 58 104q32 22 72 22q62 0 102 -56q24 -36 24 -94q0 -156 -186 -320q-52 -48 -66 -54q-18 22 -50 66z" />
<glyph unicode="&#x201c;" horiz-adv-x="1136" d="M178 1334q0 156 186 322q52 46 66 54q18 -22 50 -68q-128 -118 -128 -210q48 -20 66 -64q16 -24 16 -56q0 -64 -58 -104q-32 -22 -72 -22q-62 0 -102 56q-24 36 -24 92zM578 1334q0 156 186 322q52 46 66 54q18 -22 50 -68q-128 -118 -128 -210q48 -20 66 -64 q16 -24 16 -56q0 -64 -58 -104q-32 -22 -72 -22q-62 0 -102 56q-24 36 -24 92z" />
<glyph unicode="&#x201d;" horiz-adv-x="1136" d="M256 1252q128 118 128 212q-46 18 -66 62q-16 26 -16 58q0 62 58 104q32 22 72 22q62 0 102 -56q24 -36 24 -94q0 -156 -186 -320q-52 -48 -66 -54q-18 22 -50 66zM656 1252q128 118 128 212q-46 18 -66 62q-16 26 -16 58q0 62 58 104q32 22 72 22q62 0 102 -56 q24 -36 24 -94q0 -156 -186 -320q-52 -48 -66 -54q-18 22 -50 66z" />
<glyph unicode="&#x201e;" horiz-adv-x="998" d="M104 -212q128 118 128 212q-46 18 -66 62q-16 26 -16 58q0 62 58 104q32 22 72 22q62 0 102 -56q24 -36 24 -94q0 -156 -186 -320q-52 -48 -66 -54q-18 22 -50 66zM504 -212q128 118 128 212q-46 18 -66 62q-16 26 -16 58q0 62 58 104q32 22 72 22q62 0 102 -56 q24 -36 24 -94q0 -156 -186 -320q-52 -48 -66 -54q-18 22 -50 66z" />
<glyph unicode="&#x2026;" horiz-adv-x="1304" d="M100 122v8q0 46 38 86q38 36 88 36q62 0 102 -52q24 -34 24 -70v-8q0 -48 -40 -88q-28 -26 -56 -32q-16 -2 -24 -2h-14q-32 0 -66 24t-48 64q-4 18 -4 34zM526 122v8q0 46 38 86q38 36 90 36q58 0 100 -52q24 -34 24 -70v-8q0 -48 -40 -88q-28 -26 -56 -32q-16 -2 -24 -2 h-12q-32 0 -68 24q-34 24 -48 64q-4 18 -4 34zM952 122v8q0 48 38 88q38 36 90 36q58 0 100 -54q24 -34 24 -70v-8q0 -48 -38 -88q-30 -24 -58 -30q-14 -4 -22 -4h-14q-32 0 -68 24q-34 24 -46 66q-6 18 -6 32z" />
<glyph unicode="&#x202f;" horiz-adv-x="406" />
<glyph unicode="&#x2039;" horiz-adv-x="680" d="M70 400v2v134q86 62 348 242q12 10 48 34h2q4 -6 58 -84q18 -24 52 -74q-66 -46 -266 -184q66 -46 266 -184q-106 -152 -110 -158q-132 90 -398 272z" />
<glyph unicode="&#x203a;" horiz-adv-x="680" d="M102 286q88 62 266 184q-68 46 -266 184q12 18 50 74q54 78 58 84h2q12 -8 48 -34q88 -60 350 -242v-134l-2 -2q-98 -68 -398 -272q-4 6 -108 158z" />
<glyph unicode="&#x205f;" horiz-adv-x="508" />
<glyph unicode="&#x20ac;" horiz-adv-x="1424" d="M52 436v192l2 2h60v40v4h-60h-2v192l2 2h88q16 48 36 90q28 58 72 120q22 30 62 72q54 52 78 68q50 38 98 64q166 86 352 86q202 0 380 -106q40 -22 84 -58q8 -6 20 -16q0 -2 -126 -146q-60 48 -110 74q-120 56 -242 56h-14q-142 0 -274 -72q-142 -88 -208 -232h874v-2 v-192h-918q0 -22 4 -44h914v-2v-192h-854q90 -154 260 -224q102 -40 204 -40h10q142 0 274 74q30 18 60 42q6 4 20 14q110 -126 126 -144q-56 -48 -88 -66q-62 -40 -136 -68q-128 -46 -262 -46q-208 0 -390 110q-40 24 -92 66q-22 18 -54 50q-48 54 -74 94q-38 56 -64 120 l-6 18h-104h-2z" />
<glyph unicode="&#x2122;" horiz-adv-x="2628" d="M14 1272v192h2h970h2v-192h-2h-388v-972h-194v972h-388h-2zM1116 300v1164h220q58 -96 234 -388q50 -84 202 -334q4 -6 12 -22h2q56 94 226 374q56 92 224 370h220v-1164h-202v818q-10 -12 -178 -294q-180 -296 -188 -310l-30 -48h-144q-2 2 -80 130q-76 128 -228 380 q-10 16 -86 142v-818h-204z" />
<glyph unicode="&#x25fc;" horiz-adv-x="960" d="M0 0v960h960v-960h-960z" />
<glyph unicode="&#xfb01;" horiz-adv-x="1158" d="M28 766v192h184v4q0 262 144 398q56 50 110 72q78 32 154 32h56h2v-192q0 -2 -2 -2h-50q-128 0 -186 -120q-34 -74 -34 -192h270h2v-192h-2h-270v-764q0 -2 -2 -2h-192v766h-184zM772 1334v8q0 46 38 86l14 14q36 22 70 22h10q42 0 82 -34q40 -40 40 -88v-6 q0 -46 -36 -86q-38 -38 -88 -38h-6q-46 0 -84 34q-20 22 -28 40q-12 24 -12 48zM802 0v2v956h194v-956q0 -2 -2 -2h-192z" />
<glyph unicode="&#xfb02;" horiz-adv-x="1158" d="M28 766v192h184v4q0 262 144 398q56 50 110 72q78 32 154 32h56h2v-192q0 -2 -2 -2h-50q-128 0 -186 -120q-34 -74 -34 -192h270h2v-192h-2h-270v-764q0 -2 -2 -2h-192v766h-184zM830 0v2v1462h192v-1462v-2h-192z" />
</font>
</defs>
</svg>
