<?xml version="1.0" standalone="no"?>
<!DOCTYPE svg PUBLIC "-//W3C//DTD SVG 1.1//EN" "http://www.w3.org/Graphics/SVG/1.1/DTD/svg11.dtd" >
<svg xmlns="http://www.w3.org/2000/svg" xmlns:xlink="http://www.w3.org/1999/xlink" version="1.1">
<metadata></metadata>
<defs>
<font id="louis_george_cafebold_italic" horiz-adv-x="992" >
<font-face units-per-em="2048" ascent="1638" descent="-410" />
<missing-glyph horiz-adv-x="552" />
<glyph horiz-adv-x="0" />
<glyph horiz-adv-x="0" />
<glyph unicode="&#xd;" horiz-adv-x="0" />
<glyph unicode=" "  horiz-adv-x="552" />
<glyph unicode="&#x09;" horiz-adv-x="552" />
<glyph unicode="&#xa0;" horiz-adv-x="552" />
<glyph unicode="!" horiz-adv-x="624" d="M188 110q0 6 2 12v8q4 46 48 86q42 36 92 36q60 0 94 -52q22 -34 18 -70q0 -2 -2 -8q-6 -48 -48 -88q-32 -26 -62 -32q-14 -2 -22 -2h-14q-32 0 -64 24t-40 64q-2 12 -2 22zM238 306q26 290 100 1158h2h252q-40 -290 -160 -1158v-2h-192z" />
<glyph unicode="&#x22;" horiz-adv-x="954" d="M226 1100q12 100 46 400h192q-10 -100 -44 -400h-194zM558 1100q10 100 44 400h192q-10 -100 -44 -400h-192z" />
<glyph unicode="#" horiz-adv-x="962" d="M112 424q4 48 20 192q0 2 2 2h144q14 46 54 184h-124v2q6 48 22 192v2h156q26 86 100 346h2q178 -32 184 -34q-30 -104 -88 -312h192l96 336q184 -32 186 -34q-28 -102 -84 -302h124q-6 -50 -20 -196h-160q-14 -46 -54 -184h136v-2q-4 -48 -20 -192h-2h-170 q-28 -98 -112 -394q-46 8 -186 34l104 360h-194q-28 -96 -110 -384q-46 8 -188 32q26 88 102 352h-112zM474 618h194q14 46 52 184h-192q-14 -46 -54 -184z" />
<glyph unicode="$" horiz-adv-x="1220" d="M224 326q166 78 182 84q48 -120 162 -164q56 -20 120 -20q106 0 198 56q32 22 52 48q38 52 46 108q8 84 -66 138q-20 10 -38 18q-26 12 -98 26q-192 44 -282 88q-196 96 -174 292v2q14 132 116 238q30 30 48 44q32 22 60 38q36 20 68 32q32 14 84 24h6q2 30 12 114v2h192 l2 -2q-4 -26 -12 -108l22 -2q102 -22 186 -86q22 -16 56 -54q32 -42 40 -58q8 -14 12 -26q-130 -64 -180 -92q-6 14 -32 46q-78 86 -204 86q-106 0 -186 -52q-14 -8 -38 -28q-52 -54 -58 -116q-8 -54 24 -82q16 -14 32 -22q36 -24 110 -48q84 -26 216 -52q58 -16 96 -36 q38 -18 76 -50q14 -12 38 -38q40 -52 56 -114t8 -118v-10q-12 -104 -86 -206q-18 -24 -50 -54q-30 -28 -56 -44q-38 -24 -72 -40q-38 -18 -86 -32q-28 -10 -72 -16q-8 -60 -22 -176q0 -2 -2 -2h-192v2q6 44 22 178l-22 6q-112 26 -200 104q-42 42 -60 70q-30 44 -44 76 q-10 24 -10 28zM566 98q42 366 164 1462q0 2 2 2h190v-2q-40 -364 -162 -1462h-2h-190h-2z" />
<glyph unicode="%" horiz-adv-x="1584" d="M106 1108v26q2 4 4 14q6 78 62 158q16 22 50 52q46 38 76 50q78 40 158 40q128 0 218 -88q30 -36 40 -58q38 -78 30 -160q-10 -118 -104 -210q-38 -34 -62 -46q-88 -54 -176 -54h-12q-84 0 -158 48q-24 14 -52 42q-28 30 -38 52q-36 66 -36 134zM150 -14 q272 370 1094 1478h2h200h2q-274 -370 -1096 -1478h-2h-200zM312 1140q-4 -48 40 -82q26 -20 64 -20q60 0 102 50q18 24 22 54q4 56 -50 90q-26 10 -52 10h-4q-50 0 -92 -40q-26 -26 -30 -62zM864 300q12 116 106 208q36 32 46 38q28 20 54 30q72 32 140 32h8q100 0 182 -62 q16 -12 42 -38q36 -46 50 -98q12 -40 12 -80v-26q-2 -2 -2 -8q-8 -88 -74 -172q-12 -16 -44 -46q-50 -42 -104 -62q-62 -24 -128 -24q-118 0 -204 78q-34 34 -40 50q-52 82 -44 180zM1070 298q-6 -48 38 -80q28 -20 66 -20q58 0 100 48q22 26 24 56q6 54 -50 88 q-24 12 -52 12h-4q-52 0 -94 -42q-26 -26 -28 -62z" />
<glyph unicode="&#x26;" horiz-adv-x="1364" d="M194 272q0 20 4 40q0 6 2 16q6 58 30 124q18 40 40 70q24 36 62 78q60 64 136 122q74 54 124 86q8 6 24 14q-62 112 -90 178q-24 66 -16 138v12q16 148 170 248q112 66 226 66q100 0 192 -50q26 -16 48 -36q102 -92 84 -242q-8 -74 -42 -128q-76 -122 -306 -248 q94 -166 206 -354q4 -4 8 -12q26 24 102 92q30 -34 122 -136q-104 -94 -126 -114q26 -42 76 -124q-6 -8 -162 -112q-4 -2 -6 -2q-24 36 -70 112q-244 -166 -478 -166q-100 0 -168 30q-132 58 -176 194q-16 52 -16 104zM392 320q-16 -126 96 -170q32 -14 88 -14 q170 0 360 130q-130 220 -232 396q-54 -32 -120 -82q-26 -20 -80 -66q-8 -8 -22 -20q-50 -52 -68 -88q-18 -38 -22 -86zM704 1144q-6 -42 12 -72q26 -56 68 -132l8 -20q70 36 136 84q26 18 58 48q46 44 52 76v8q10 86 -70 114q-40 20 -82 20h-2q-72 0 -136 -48 q-30 -28 -34 -40q-8 -10 -10 -38z" />
<glyph unicode="'" horiz-adv-x="544" d="M186 1100q12 100 46 400h192q-10 -100 -44 -400h-194z" />
<glyph unicode="(" horiz-adv-x="836" d="M132 448q0 86 10 176q44 412 208 670q162 242 368 242h18q2 -2 2 -4q-4 -46 -18 -188q-2 0 -6 -2h-22q-118 0 -244 -248q-82 -190 -114 -474q-36 -322 72 -540q60 -108 132 -108h28l2 -4q-6 -46 -22 -186l-2 -4h-26q-222 0 -332 302q-54 168 -54 368z" />
<glyph unicode=")" horiz-adv-x="1000" d="M158 -218q4 46 20 186q0 2 4 4h26q72 0 156 108q156 218 190 540q32 284 -10 474q-70 248 -190 248h-22l-4 2q6 48 22 188l2 4h20q102 -34 176 -78t138 -164q76 -182 76 -440q0 -108 -14 -230q-34 -304 -164 -544q-176 -302 -400 -302h-24q0 2 -2 4z" />
<glyph unicode="*" horiz-adv-x="946" d="M146 1174q22 46 86 180q198 -74 202 -74q8 74 24 224q2 2 4 2h192v-2l-24 -224q54 18 218 74q12 -44 46 -180q0 -2 -224 -78q28 -46 114 -182q-44 -28 -170 -114q-4 6 -48 78q-62 98 -68 106q-8 -8 -140 -166q-4 -6 -14 -18q-36 30 -144 114v2q38 44 152 180 q-52 20 -206 78z" />
<glyph unicode="+" horiz-adv-x="864" d="M88 414q6 48 24 194h258q8 64 30 256h192q-8 -64 -30 -256h258q0 -2 2 -2q-6 -48 -22 -190l-2 -2h-256q-8 -64 -30 -260h-192q6 66 28 260h-260z" />
<glyph unicode="," horiz-adv-x="584" d="M64 -212q142 118 152 212q-44 18 -60 62q-12 26 -10 58q8 62 70 104q34 22 74 22q62 0 96 -56q16 -28 16 -68q0 -12 -2 -26q-16 -156 -222 -320q-54 -48 -70 -54q-14 22 -44 66z" />
<glyph unicode="-" horiz-adv-x="946" d="M104 414q6 48 22 194h706v-2q-6 -48 -22 -190v-2h-706z" />
<glyph unicode="." horiz-adv-x="552" d="M76 110v12q0 2 2 8q4 46 46 86q42 36 92 36q62 0 96 -52q18 -30 18 -60q0 -6 -2 -10v-8q-6 -48 -48 -88q-32 -26 -62 -32q-16 -2 -24 -2h-12q-32 0 -64 24t-40 64q-2 12 -2 22z" />
<glyph unicode="/" horiz-adv-x="840" d="M102 -48q164 354 654 1422h2h192q-164 -356 -654 -1422l-2 -2h-190q-2 0 -2 2z" />
<glyph unicode="0" horiz-adv-x="1424" d="M112 582q0 48 6 98q32 292 234 518q208 204 446 204h2q256 0 416 -234q108 -174 108 -392q0 -48 -4 -98q-32 -294 -238 -518q-204 -202 -444 -202q-252 0 -416 230q-110 178 -110 394zM310 678q-26 -236 100 -406q106 -122 250 -122q186 0 340 196q106 152 128 334 q28 258 -126 432q-100 98 -222 98h-4q-184 0 -336 -194q-110 -152 -130 -338z" />
<glyph unicode="1" horiz-adv-x="646" d="M170 1184q6 48 22 192h346q-38 -344 -154 -1376h-192q34 296 134 1184h-154h-2z" />
<glyph unicode="2" horiz-adv-x="1134" d="M72 -26q6 46 20 186q86 84 348 338q54 56 222 220q42 40 164 162q24 40 30 90v6q10 78 -26 150q-12 18 -30 42q-24 24 -44 34q-44 28 -114 28h-8q-178 0 -250 -166q-22 -58 -26 -94h-192v4q6 64 42 154q26 56 54 94q80 114 208 168q88 34 190 34q148 0 246 -78 q20 -12 52 -50q36 -46 54 -82q42 -92 42 -190q0 -26 -4 -50q-12 -118 -80 -210l-354 -348l-256 -248v-2h616q0 -10 -4 -34q-4 -40 -16 -158h-2h-882z" />
<glyph unicode="3" horiz-adv-x="1142" d="M82 296q0 22 4 42v6v2h192v-2q-8 -86 44 -158q22 -26 32 -34q30 -24 54 -34q56 -24 116 -24q116 0 210 78q82 76 92 172q10 86 -42 158q-74 96 -208 96h-100q6 48 20 192v2h112q4 -2 18 -2q20 0 60 10q24 8 44 18t52 36q72 64 82 148q8 86 -52 152q-62 62 -150 62 q-96 0 -174 -72q-30 -26 -44 -52q-26 -42 -30 -98h-2h-192h-2q2 2 2 8q14 142 124 260q40 38 56 50q40 30 80 48q98 48 202 48q150 0 260 -94q36 -34 58 -66q18 -32 32 -62q26 -68 28 -138q0 -20 -4 -40v-10q-10 -94 -72 -188q-16 -28 -46 -58q-18 -22 -58 -56 q16 -10 50 -48q38 -48 50 -78q52 -106 40 -220q0 -4 -2 -8q-12 -124 -98 -238q-24 -28 -54 -58q-42 -38 -60 -48q-40 -30 -78 -46q-32 -16 -80 -32q-74 -20 -132 -20h-28q-72 0 -158 32q-44 20 -88 50q-26 18 -58 50q-28 32 -44 58q-22 42 -34 70q-24 70 -24 136z" />
<glyph unicode="4" horiz-adv-x="1312" d="M64 196v2l288 408q72 100 282 400q62 86 246 346l24 32h190v-2q-28 -248 -110 -992h208q-6 -48 -22 -192h-2h-206q-6 -54 -24 -214h-2h-192q6 54 24 212h-704zM426 390h306h58q18 154 68 612q-52 -74 -210 -296q-198 -282 -206 -294q-2 -2 -16 -22z" />
<glyph unicode="5" horiz-adv-x="1200" d="M48 210q174 78 186 82q44 -122 170 -174q62 -24 132 -24q132 0 248 84q32 30 48 46q82 92 94 200l2 4q10 112 -56 206q-24 32 -40 44q-94 80 -224 80q-98 0 -196 -54q-64 -32 -194 -98q44 116 176 466q104 270 104 272q6 14 16 40h604v-2q-6 -48 -22 -190v-2h-456 q-22 -60 -94 -244h2q42 6 76 6h16q120 0 234 -58q42 -22 86 -56q16 -14 38 -38q40 -42 48 -58q24 -36 34 -62q44 -94 44 -198q0 -28 -4 -58q-18 -168 -142 -312q-18 -22 -60 -60q-46 -36 -84 -60q-154 -92 -320 -92h-4q-160 0 -292 88q-28 20 -64 54q-36 38 -44 54 q-32 48 -46 78q-16 34 -16 36z" />
<glyph unicode="6" horiz-adv-x="1226" d="M102 358q0 24 2 48q2 6 2 18q14 112 84 226q18 28 164 230q84 116 254 352q26 36 110 150q152 -96 154 -102l-258 -354q40 4 80 4q172 0 306 -104q24 -18 56 -52q34 -40 44 -60q20 -32 36 -64q36 -88 34 -180q0 -26 -2 -54v-2q-16 -158 -128 -294q-18 -24 -60 -62 q-52 -44 -82 -64q-38 -22 -64 -34q-38 -18 -70 -30q-92 -30 -174 -30h-22q-94 0 -192 42q-40 16 -80 44q-134 94 -178 252q-16 62 -16 120zM298 416q-12 -130 78 -232q28 -24 30 -24q84 -66 192 -66h4q126 0 236 84q34 26 46 42q78 90 92 194q10 98 -40 186q-12 16 -40 46 q-24 24 -40 34q-82 56 -180 56h-8q-110 0 -214 -70q-20 -12 -46 -38q-96 -94 -110 -212z" />
<glyph unicode="7" horiz-adv-x="1074" d="M66 48q66 98 262 392q60 92 244 368q64 96 254 382h-628q-2 0 -2 2q6 48 20 192h2h864h2q-4 -42 -18 -166q-2 -4 -64 -94q-106 -160 -316 -480q-80 -118 -314 -470q-36 -56 -148 -222q-40 24 -158 96z" />
<glyph unicode="8" horiz-adv-x="1182" d="M96 312q0 22 2 42v16q14 102 80 206q24 38 68 82q40 38 56 48q26 20 42 30q-32 34 -42 54q-68 106 -54 230q16 144 128 260q46 38 56 46q38 26 66 40q100 48 204 48q146 0 256 -94q34 -34 48 -56q50 -72 60 -160q6 -42 0 -78v-10q-10 -102 -82 -200q-18 -24 -48 -54 q-4 -6 -28 -26q24 -16 54 -48q40 -40 44 -50q20 -30 36 -68q34 -78 34 -160q0 -24 -4 -48q-16 -156 -138 -288q-32 -32 -60 -52q-34 -26 -58 -40q-136 -78 -280 -78h-2q-158 0 -282 94q-28 18 -54 50q-30 34 -44 56q-26 40 -34 76q-24 66 -24 132zM290 362q-10 -106 68 -186 q30 -28 50 -40q66 -38 148 -38q116 0 218 78q40 34 46 48q52 66 60 134v10q8 76 -38 148q-26 34 -48 50q-78 60 -180 60q-112 0 -206 -70q-28 -20 -46 -40q-62 -70 -72 -154zM442 1020q-8 -78 46 -140q62 -60 148 -60q88 0 162 62q66 62 74 140q10 80 -46 138q-32 32 -68 48 q-38 12 -76 12h-4q-84 0 -156 -58q-70 -60 -80 -142z" />
<glyph unicode="9" horiz-adv-x="1208" d="M78 840q0 24 2 48q2 4 2 16q14 118 92 238q24 36 64 80q24 26 60 56q84 66 174 98q98 34 200 34q168 0 298 -96q22 -18 56 -52q40 -46 52 -64q20 -36 36 -72q34 -86 34 -176q-2 -26 -4 -54v-4q-16 -146 -118 -280q-104 -144 -312 -430q-172 -244 -178 -252h-2 q-38 26 -152 100v2l74 104q62 82 182 248q-42 -4 -74 -4h-14q-124 0 -238 60q-34 20 -74 50q-22 20 -50 52q-36 42 -54 76q-22 44 -36 84q-20 70 -20 138zM276 896q-12 -112 52 -202q24 -30 40 -46q90 -74 208 -74q126 0 232 80q32 24 50 46q80 90 94 196q12 114 -56 208 q-32 32 -46 44q-88 70 -202 70q-128 0 -238 -86q-42 -36 -46 -44q-76 -88 -88 -192z" />
<glyph unicode=":" horiz-adv-x="522" d="M110 110q0 6 2 12v8q6 46 48 86q40 36 92 36q60 0 94 -52q22 -34 18 -70q0 -2 -2 -8q-4 -48 -48 -88q-32 -26 -60 -32q-16 -2 -24 -2h-14q-32 0 -64 24t-40 64q-2 12 -2 22zM186 828q2 4 2 10q4 42 44 82q44 38 92 38h8q46 0 82 -38q26 -32 26 -72v-12v-6q-6 -52 -52 -92 q-42 -32 -84 -32h-8q-48 0 -84 38q-28 40 -26 84z" />
<glyph unicode=";" horiz-adv-x="538" d="M40 -212q142 118 152 212q-44 18 -60 62q-12 26 -10 58q8 62 70 104q34 22 74 22q62 0 96 -56q20 -36 14 -94q-16 -156 -222 -320q-54 -48 -70 -54q-14 22 -44 66zM204 832q6 48 44 88q46 38 92 38h8q46 0 82 -38q28 -32 28 -72q0 -6 -2 -12v-6q-6 -52 -50 -92 q-44 -32 -86 -32h-8q-50 0 -86 44q-26 36 -22 82z" />
<glyph unicode="&#x3c;" horiz-adv-x="958" d="M108 440q4 50 16 152l312 224q74 52 294 210q26 -38 102 -152q-2 -2 -306 -220l-192 -138q44 -38 180 -154q60 -50 240 -204l-136 -152q-78 66 -312 266q-196 164 -198 168z" />
<glyph unicode="=" horiz-adv-x="818" d="M114 200q6 50 22 194h648q2 0 2 -2q-6 -46 -20 -190q-2 0 -2 -2h-650zM158 586q4 50 20 194h650l2 -2q-6 -46 -22 -190l-2 -2h-648z" />
<glyph unicode="&#x3e;" horiz-adv-x="938" d="M94 158q72 52 286 204q52 40 210 154q-40 34 -160 138q-258 218 -258 220q46 50 136 152q62 -52 248 -210l264 -224q-6 -38 -18 -152q-6 -4 -238 -168q-122 -90 -368 -266q-26 38 -102 152z" />
<glyph unicode="?" horiz-adv-x="1138" d="M250 1030q2 10 6 42q10 98 72 200q20 34 54 72q16 18 50 48q32 26 54 40q42 26 82 46q90 34 172 34h14q86 0 174 -40q38 -18 74 -50q22 -16 44 -42q34 -40 48 -70q48 -92 48 -194l-4 -52q-12 -118 -92 -232q-22 -32 -54 -64q-38 -38 -66 -58q-38 -30 -126 -86 q-22 -14 -48 -36q-14 -14 -22 -26q-4 -12 -6 -26q-8 -76 -26 -230l-2 -2h-192v2q6 56 24 228q16 136 154 232q36 26 118 80q48 32 80 72q38 48 56 106q8 24 8 40q12 100 -48 176q-68 80 -170 80q-100 0 -186 -74q-82 -78 -92 -182q-2 -12 -6 -34h-192zM454 126q8 58 58 98 q38 28 82 28q58 0 94 -46q24 -38 18 -78v-6q-6 -50 -50 -90q-42 -32 -84 -32h-12q-32 0 -64 24t-40 70q-2 18 -2 32z" />
<glyph unicode="@" horiz-adv-x="2230" d="M170 422q0 44 4 88q0 8 2 20q16 166 98 336q32 64 72 124q34 50 90 116q28 30 86 86l14 14q70 58 106 80q60 40 116 68q60 32 140 60q160 50 308 50h22q186 0 362 -64q240 -94 370 -294q32 -50 54 -98q66 -156 66 -332q0 -48 -4 -98q-12 -102 -60 -234q-22 -56 -48 -98 q-28 -44 -70 -92q-40 -42 -68 -62q-120 -86 -240 -86q-60 0 -124 20q-98 34 -146 116q-18 28 -24 50q-2 2 -2 6q-36 -30 -60 -46q-106 -66 -212 -66q-112 0 -202 72q-36 32 -58 66q-22 32 -32 56q-42 104 -32 222q16 146 110 274q64 82 146 132q96 54 192 54q118 0 206 -76 q32 -30 48 -54q14 -18 24 -38q16 30 32 64h2q42 -16 172 -68q-44 -86 -70 -150q-78 -174 -88 -282q-8 -94 36 -128q18 -16 62 -26q24 -4 38 -4h2q62 0 134 60q36 36 56 70q24 38 38 70q12 34 26 80q14 50 18 96v4q24 238 -94 420q-52 74 -110 120q-44 34 -84 56 q-170 96 -396 96q-230 0 -438 -130q-40 -26 -90 -64q-46 -42 -68 -64q-54 -58 -78 -94q-134 -184 -156 -400q-22 -218 78 -408q18 -34 50 -80q16 -22 56 -66q56 -54 92 -78q76 -56 172 -88q110 -38 226 -38h8q212 0 414 118q28 -54 86 -162q-54 -32 -104 -56 q-46 -22 -120 -46q-150 -48 -286 -48h-26q-144 0 -296 56q-88 32 -156 74q-56 36 -108 84q-22 16 -80 80q-62 74 -90 126q-30 52 -52 106q-22 56 -40 132q-22 100 -22 196zM892 498q-8 -72 22 -134q6 -16 30 -42q40 -42 96 -42h2q72 0 144 72q78 84 90 196q8 88 -34 156 q-44 64 -114 64h-2q-68 0 -136 -62q-46 -46 -70 -102q-24 -52 -28 -100v-6z" />
<glyph unicode="A" horiz-adv-x="1464" d="M0 0q162 314 646 1250q26 54 110 214h180q4 0 64 -216q124 -416 370 -1248h-2h-208q-4 0 -22 66q-24 84 -74 248h-694q-40 -78 -162 -314h-208zM472 510h536q-50 164 -194 658q-4 0 -142 -270q-66 -130 -200 -388z" />
<glyph unicode="B" horiz-adv-x="1176" d="M88 2q42 366 166 1460l2 2h484q234 0 354 -158q52 -74 52 -172q0 -24 -2 -46q-2 -8 -2 -22q-20 -168 -160 -284q-2 0 -2 -2q28 -14 74 -64q69 -89 68 -196q0 -21 -2 -42q-2 -24 -8 -72q-24 -210 -212 -334q-100 -50 -124 -50q-60 -22 -178 -22h-12h-494zM304 194h332 q172 0 256 126q24 42 32 106q2 12 4 36q1 13 1 25q0 110 -115 153q-62 28 -158 28h-296q-2 0 -4 -4q-14 -116 -52 -470zM378 860h280q176 0 262 124q24 38 26 70q2 16 6 44q1 8 1 16q0 98 -137 144q-44 14 -126 14h-264q-12 -102 -48 -412z" />
<glyph unicode="C" horiz-adv-x="1470" d="M146 644q0 42 4 84q0 2 2 8q30 276 240 502q236 226 518 226h12h2q284 0 470 -220q66 -86 92 -148q-10 -8 -182 -94q-20 50 -66 114q-140 156 -334 156q-200 0 -372 -158q-166 -168 -188 -380q-4 -37 -4 -72q0 -202 146 -352q130 -116 290 -116h20q176 0 346 144 q72 72 106 126q52 -30 158 -88v-6q-40 -62 -104 -132q-246 -238 -540 -238q-290 0 -482 234q-134 186 -134 410z" />
<glyph unicode="D" horiz-adv-x="1358" d="M94 2q40 366 162 1458q2 0 4 4h380q264 0 460 -178q76 -78 94 -114q104 -166 104 -354q0 -40 -4 -82q-2 -2 -2 -10q-28 -294 -272 -526q-134 -106 -256 -152q-148 -48 -278 -48h-390q-2 0 -2 2zM306 192h178q256 0 444 190q150 156 172 348q4 32 4 62q0 161 -98 292 q-70 84 -112 104q-36 28 -118 58q-72 24 -192 24h-152q-2 0 -4 -2q-30 -268 -122 -1076z" />
<glyph unicode="E" d="M94 0q40 366 162 1464h2h788q-6 -48 -22 -192h-594q-14 -112 -52 -444h472v-2q-4 -46 -20 -188q0 -2 -2 -2h-470q-14 -110 -50 -444h596l-24 -192h-786z" />
<glyph unicode="F" horiz-adv-x="934" d="M88 0q40 366 162 1464h4h786q-6 -48 -22 -192h-2h-592q-14 -112 -50 -444h482q-6 -48 -22 -192h-482q-18 -158 -72 -636h-192z" />
<glyph unicode="G" horiz-adv-x="1600" d="M144 642q0 44 6 88v6q34 310 284 542q62 48 78 56q194 130 420 130h4q278 0 468 -210q68 -80 98 -152q4 -8 10 -22q-154 -78 -184 -88q-18 50 -62 108q-56 66 -84 82q-120 90 -268 90q-232 0 -418 -198q-134 -156 -154 -340q-4 -33 -4 -65q0 -197 140 -347 q132 -128 316 -128q214 0 390 170q106 110 150 234h-368q-2 0 -4 2q6 46 22 186v2v2q100 0 400 2h182q0 -2 2 -4q-24 -154 -40 -202q-48 -158 -122 -252q-144 -204 -392 -294q-128 -40 -242 -40q-258 0 -448 186q-178 198 -180 456z" />
<glyph unicode="H" horiz-adv-x="1256" d="M88 0v2q40 366 162 1460q2 0 4 2h186q2 0 4 -2l-72 -632h634l72 632l2 2h190l2 -2q-42 -366 -166 -1460l-2 -2h-186q-2 0 -4 2l72 632h-634l-72 -632q-2 0 -2 -2h-190z" />
<glyph unicode="I" horiz-adv-x="456" d="M88 0q40 366 162 1464h4h190q-40 -366 -164 -1464h-192z" />
<glyph unicode="J" horiz-adv-x="1030" d="M-32 394q0 20 2 40q4 26 10 78h2h190h2q-2 -18 -8 -70q-2 -15 -2 -30q0 -73 50 -138q26 -28 38 -36q58 -46 130 -46h88q74 0 148 54q36 26 54 48q58 70 66 152q40 338 116 1018h2h192q-30 -258 -118 -1028q-10 -100 -76 -204q-22 -34 -56 -72q-46 -46 -76 -64 q-44 -34 -86 -54q-98 -42 -182 -42h-102q-96 0 -186 50q-36 20 -70 52q-18 16 -40 42q-34 46 -48 74q-10 22 -24 66q-16 56 -16 110z" />
<glyph unicode="K" horiz-adv-x="1248" d="M88 0v2q40 366 162 1460q2 0 4 2h186q2 0 4 -2q-22 -188 -84 -752q18 18 734 750l4 4h252l2 -2q-172 -176 -688 -702q134 -190 530 -758l-2 -2h-254q-106 154 -420 610q-48 -50 -192 -198q-12 -102 -46 -410q-2 0 -2 -2h-190z" />
<glyph unicode="L" horiz-adv-x="1010" d="M94 0q40 366 162 1464h2h192q-36 -318 -142 -1272h636q-6 -48 -22 -192h-2h-826z" />
<glyph unicode="M" horiz-adv-x="1792" d="M94 2q40 366 162 1460q2 0 4 2h234q6 -6 196 -578q68 -200 202 -600h2q166 294 660 1178h236l2 -2q-40 -366 -162 -1460q-2 0 -4 -2h-200l-2 2q30 268 120 1068q-150 -266 -598 -1064q0 -2 -2 -6h-166q-2 0 -22 64q-112 336 -338 1006h-2q-30 -268 -120 -1068v-2h-200z " />
<glyph unicode="N" horiz-adv-x="1420" d="M94 2q40 366 162 1460q2 0 4 2h208q146 -262 586 -1046q12 -24 52 -98q32 286 128 1142q2 0 4 2h188l4 -2q-42 -366 -166 -1460l-2 -2h-208q-46 76 -332 596q-104 182 -308 548q-32 -286 -128 -1142q-2 0 -4 -2h-186z" />
<glyph unicode="O" horiz-adv-x="1592" d="M118 648q0 40 4 82v6q30 314 286 546q24 18 74 54q194 128 406 128h16h4q290 0 484 -226q144 -188 144 -420q0 -42 -6 -86q-28 -314 -282 -544q-232 -188 -492 -188h-10q-260 0 -450 186q-82 96 -104 150q-74 146 -74 312zM314 734q-4 -33 -4 -65q0 -197 138 -347 q136 -128 320 -128q240 0 430 212q120 152 138 318v12q4 33 4 65q0 167 -106 305q-140 166 -346 166q-232 0 -418 -198q-134 -156 -156 -340z" />
<glyph unicode="P" horiz-adv-x="1192" d="M120 2q40 366 162 1460q2 0 4 2h482q232 0 376 -174q82 -118 82 -254q0 -26 -2 -54q-24 -218 -228 -374q-156 -108 -340 -108h-288q-14 -124 -56 -498q-2 0 -2 -2h-188zM390 694h300q144 0 262 120q66 80 76 162q0 4 2 14q2 16 2 31q0 111 -104 193q-70 58 -208 58h-264 l-2 -2z" />
<glyph unicode="Q" horiz-adv-x="1568" d="M118 664q0 40 4 82v6q28 306 280 534q24 18 70 54q190 124 400 124h16h2q284 0 472 -222q142 -184 142 -410q0 -42 -6 -84q-26 -250 -204 -452q48 -54 146 -160v-2q-38 -34 -146 -134q-38 40 -150 162q-200 -130 -412 -130q-256 0 -442 184q-80 94 -100 144 q-72 142 -72 304zM310 750q-3 -31 -3 -61q0 -194 135 -343q132 -124 310 -124q136 0 264 74q-24 28 -100 112q36 34 146 136q28 -28 108 -116q120 146 138 312q0 4 2 12q3 31 3 61q0 165 -103 301q-138 162 -340 162q-226 0 -408 -192q-132 -156 -152 -334z" />
<glyph unicode="R" horiz-adv-x="1176" d="M88 2q40 366 162 1460q2 0 4 2h482q232 0 376 -174q82 -118 82 -254q0 -26 -2 -54q-24 -206 -206 -356q-98 -72 -166 -92q-2 -6 158 -340l90 -192l-2 -2h-226q-6 0 -46 96q-170 374 -180 404h-278q-14 -124 -56 -498q-2 0 -2 -2h-188zM358 694h300q144 0 262 120 q66 80 76 162q0 4 2 14q2 16 2 31q0 111 -104 193q-70 58 -208 58h-264l-2 -2z" />
<glyph unicode="S" horiz-adv-x="1040" d="M8 304q62 28 184 82q14 -36 38 -74q10 -18 34 -46q34 -34 58 -48q76 -44 166 -44h6q90 0 174 44q24 14 50 34q30 28 46 50q40 58 46 122q2 14 2 26q0 84 -68 136q-24 16 -42 24q-36 16 -108 30q-204 48 -294 98q-181 95 -181 274q0 21 3 44q16 144 122 258q34 38 70 64 q46 30 78 46q36 18 86 34q80 22 158 22h18q114 0 218 -54q32 -18 64 -44q16 -12 48 -46q34 -42 48 -68q14 -22 24 -44q-62 -28 -184 -86q-6 18 -32 52q-82 98 -218 98q-134 0 -226 -80q-34 -32 -44 -54q-30 -44 -34 -94q-2 -2 -2 -6q-1 -8 -1 -16q0 -59 41 -92 q20 -18 40 -28q50 -30 148 -58q74 -22 178 -44q58 -18 96 -38q38 -18 76 -50q34 -32 58 -66q54 -89 54 -193q0 -22 -2 -45v-4q-14 -128 -104 -244q-14 -20 -52 -56q-52 -42 -84 -60q-34 -20 -74 -36q-110 -44 -222 -44q-172 0 -306 102q-24 20 -48 46q-36 40 -50 62 q-26 42 -40 74q-14 34 -16 40z" />
<glyph unicode="T" d="M168 1272q6 48 22 192h2h968q-4 -48 -20 -192h-2h-386l-144 -1272h-192h-2l144 1272h-390z" />
<glyph unicode="U" horiz-adv-x="1402" d="M164 464q0 34 4 68q34 310 104 930q2 0 4 2h188v-2q-24 -224 -98 -892q-6 -49 -6 -90q0 -95 32 -148q40 -86 154 -126q44 -12 86 -12h142q170 0 282 156q54 82 66 194l102 918q2 0 4 2h188l2 -2q-24 -218 -98 -870q-18 -174 -58 -250q-80 -174 -230 -264 q-130 -78 -304 -78h-96q-226 0 -350 136q-54 62 -80 122q-38 98 -38 206z" />
<glyph unicode="V" horiz-adv-x="1442" d="M198 1464h216q2 -2 68 -224q94 -314 280 -944l584 1152q8 16 12 16h224h2q-188 -360 -752 -1434q-10 -30 -16 -30h-174q-4 0 -14 42q-306 1004 -322 1066q-10 20 -108 356z" />
<glyph unicode="W" horiz-adv-x="2062" d="M224 1464h208q6 0 14 -64q10 -54 156 -936q6 -30 18 -94h2q118 256 472 1018q32 72 36 76h132q2 0 18 -66q82 -342 250 -1028q104 274 414 1094h2h218h2q-140 -356 -562 -1418q-16 -46 -20 -46h-168q-2 6 -80 334q-22 74 -182 740q-8 -10 -46 -96q-152 -326 -454 -978 h-170q-4 0 -16 88q-82 458 -244 1376z" />
<glyph unicode="X" horiz-adv-x="1334" d="M-44 2q152 182 612 728q6 6 22 24q-110 178 -438 710h246q84 -142 340 -566q46 50 460 566h2h256q-2 0 -2 -2q-148 -178 -592 -706q116 -188 466 -754v-2h-246q-8 10 -274 454q-96 154 -96 160h-2q-126 -154 -508 -614h-242q-2 0 -4 2z" />
<glyph unicode="Y" horiz-adv-x="1334" d="M196 1464h244q10 -10 336 -566q446 542 470 566h254q-158 -190 -636 -758q-20 -176 -78 -704l-2 -2h-196l-4 2q78 687 78 703q0 8 -54 93q-138 222 -412 666z" />
<glyph unicode="Z" horiz-adv-x="1212" d="M-18 0v2q242 318 970 1270h-726l-2 2q6 46 22 188l2 2h1082l-2 -2q-242 -318 -968 -1268h822l2 -2q-6 -48 -22 -190l-2 -2h-1178z" />
<glyph unicode="[" horiz-adv-x="762" d="M62 -200q48 452 190 1714h2h416q-6 -48 -22 -192h-224q-36 -326 -148 -1330h224q-6 -48 -22 -192h-416z" />
<glyph unicode="\" horiz-adv-x="642" d="M-102 1374h192q164 -356 654 -1422v-2h-190l-2 2q-164 354 -654 1422z" />
<glyph unicode="]" horiz-adv-x="800" d="M136 -200q6 48 22 192h2h222q40 336 148 1330h-222h-2q6 48 22 192h2h414q-46 -422 -190 -1714h-2h-414h-2z" />
<glyph unicode="^" horiz-adv-x="1084" d="M128 842q104 134 308 406q112 148 116 152h148q4 -4 38 -70q22 -38 158 -290q34 -66 104 -198q-42 -26 -174 -106q-36 70 -146 274q-20 38 -80 150q-76 -102 -304 -404q-4 -4 -16 -20q-146 102 -152 106z" />
<glyph unicode="_" horiz-adv-x="1112" d="M70 -194q6 48 20 194h950v-2q-4 -48 -20 -190q0 -2 -2 -2h-948z" />
<glyph unicode="`" horiz-adv-x="744" d="M300 1864q20 42 84 164q102 -58 408 -234v-2q-20 -40 -82 -162q-104 58 -410 234z" />
<glyph unicode="a" horiz-adv-x="1218" d="M124 414q0 30 4 60q24 222 210 382q156 118 334 118q166 0 272 -128q4 36 12 110l4 2h188l2 -2q-26 -238 -104 -954q-2 0 -4 -2h-188q-2 0 -4 2q4 24 12 96q-126 -122 -302 -122q-220 0 -354 176q-82 120 -82 262zM320 474q-2 -18 -2 -35q0 -133 110 -223q70 -46 140 -46 h22q96 0 194 78q104 96 120 226q2 18 2 35q0 136 -112 225q-68 44 -142 44h-16q-120 0 -228 -110q-76 -92 -88 -194z" />
<glyph unicode="b" horiz-adv-x="1146" d="M80 0q40 366 164 1464h2h190h2q-18 -156 -70 -618q16 18 46 40q118 88 258 88q162 0 288 -106q16 -14 46 -50q60 -78 82 -158q16 -62 16 -128q0 -28 -2 -58q-14 -128 -90 -242q-24 -40 -66 -84t-68 -62q-32 -22 -56 -38q-128 -72 -256 -72h-14q-54 0 -126 22 q-36 12 -66 30q-20 14 -48 38q-14 16 -30 34q-2 -34 -10 -100h-192zM326 472q-2 -19 -2 -37q0 -77 40 -145q12 -18 32 -42l16 -16q28 -24 52 -34q56 -30 118 -30q122 0 222 96q38 40 60 76q34 64 42 132q2 2 2 4q2 18 2 35q0 93 -54 169q-80 100 -208 100q-58 0 -130 -32 q-32 -14 -64 -42q-32 -26 -40 -36q-76 -86 -88 -194v-4z" />
<glyph unicode="c" d="M86 418q0 24 2 48q2 6 2 16q14 112 80 224q22 32 46 64q20 24 58 62q44 38 76 56q134 86 280 86h2q150 0 270 -94q20 -16 48 -46q32 -38 42 -58q14 -18 14 -22q-58 -34 -174 -106q-8 18 -34 48q-78 84 -190 84q-108 0 -202 -78q-38 -32 -46 -46q-66 -82 -78 -182 q-1 -16 -1 -31q0 -90 49 -165q20 -28 40 -46q74 -64 172 -64q88 0 170 56q16 10 50 40q20 20 34 40h2q36 -28 148 -106q-20 -28 -52 -62q-38 -36 -54 -46q-34 -26 -62 -42q-126 -72 -254 -72h-10q-136 0 -250 80q-24 18 -40 34q-34 34 -50 56q-36 48 -48 82q-16 32 -28 84 q-12 56 -12 106z" />
<glyph unicode="d" horiz-adv-x="1176" d="M96 418q0 28 4 56q12 96 56 186q38 80 116 158q40 36 60 50q146 106 308 106q142 0 240 -88q24 -22 38 -40q18 154 70 618h2h190h2q-42 -366 -166 -1464h-192q2 24 10 100q-18 -18 -36 -34q-32 -24 -58 -38q-32 -18 -70 -30q-80 -22 -134 -22h-12q-130 0 -238 72 q-22 16 -48 38q-22 18 -56 62q-30 44 -46 84q-40 90 -40 186zM294 472q-2 -18 -2 -36q0 -49 16 -96q12 -36 44 -76q78 -96 200 -96q60 0 124 30q24 10 60 34q6 6 18 16q28 24 44 42q66 84 78 182l2 4q-12 48 -46 194q-8 10 -32 36q-26 28 -56 42q-62 32 -120 32 q-130 0 -232 -100q-86 -90 -96 -204q-2 -2 -2 -4z" />
<glyph unicode="e" horiz-adv-x="1038" d="M88 412q0 30 2 60v4q28 234 224 396q142 102 276 102h28q148 0 270 -118q58 -64 78 -112q46 -102 46 -212q0 -28 -4 -58q0 -10 -2 -30q-4 -28 -6 -28h-718q12 -106 60 -160q70 -88 172 -88q132 0 234 132q20 34 24 34q164 -78 164 -80q-16 -36 -74 -104 q-166 -174 -366 -174h-4q-206 0 -334 184q-70 116 -70 252zM320 598h486v2q-12 50 -66 114q-68 66 -158 66q-136 0 -240 -146q-8 -12 -22 -36z" />
<glyph unicode="f" horiz-adv-x="650" d="M16 766q4 48 20 192h2h186v4q28 262 188 398q60 50 118 72q80 32 158 32h56q-6 -48 -22 -192v-2h-50q-128 0 -200 -120q-42 -74 -56 -192h272q-6 -48 -22 -192h-2h-270q-22 -192 -86 -766h-2h-192q22 192 86 766h-184z" />
<glyph unicode="g" horiz-adv-x="1052" d="M24 -106q2 6 2 16q6 34 26 82q16 32 38 62q14 18 44 44q6 6 20 18q-19 35 -19 74q0 10 1 20v6q8 66 72 154q-32 42 -40 64q-10 14 -22 54q-11 45 -11 87q0 11 1 23q2 4 2 12q12 92 78 180q16 20 40 44q40 38 56 46q38 26 80 46q98 40 192 40h10q114 0 212 -56 q26 20 42 28q62 34 136 34h38v-2q-6 -48 -22 -192h-44q-12 0 -26 -4q31 -66 31 -139q0 -15 -1 -31q-14 -108 -90 -198q-14 -16 -52 -52q-68 -56 -138 -80q-86 -32 -174 -32q-90 0 -174 36q-20 -16 -22 -28q-4 -26 66 -36q48 -6 126 -6h86q196 0 300 -78q18 -10 44 -40 q24 -28 36 -54q20 -47 20 -96q0 -15 -2 -30q-10 -100 -98 -188q-38 -36 -56 -48q-38 -26 -68 -40q-26 -12 -60 -26q-32 -10 -74 -22q-80 -18 -148 -18h-28q-116 0 -222 40q-44 18 -78 40q-24 14 -50 40q-32 34 -38 46q-18 26 -26 48q-16 44 -16 88v24zM218 -98v-4v-5 q0 -41 56 -79q82 -52 210 -52h12q112 0 206 46q20 12 46 32q42 38 44 70q1 4 1 8q0 39 -57 68q-22 10 -56 18q-56 12 -102 12q-36 -2 -112 -2q-74 0 -138 10q-20 -10 -42 -24q-62 -46 -68 -98zM330 604q-1 -6 -1 -12q0 -59 53 -106q60 -52 146 -52h2q76 0 144 42 q56 36 82 90q8 20 10 38q1 8 1 16q0 58 -53 102q-58 52 -146 52q-86 0 -158 -50q-72 -52 -80 -120z" />
<glyph unicode="h" horiz-adv-x="1042" d="M70 0q40 366 164 1464h192l-64 -568h2q54 28 140 52q44 10 108 10h10q258 0 346 -196q22 -54 22 -122q0 -28 -4 -58q-20 -192 -64 -580l-2 -2h-188l-2 2q16 146 66 582q2 15 2 29q0 98 -86 133q-42 20 -110 20h-16q-122 0 -176 -38q-72 -40 -82 -150q-22 -192 -66 -578 h-192z" />
<glyph unicode="i" horiz-adv-x="528" d="M110 0q26 240 106 958h194q-26 -240 -106 -958h-2h-192zM230 1334q0 2 2 8q4 46 46 86q6 4 16 12q38 24 74 24h8q42 0 78 -34q30 -34 30 -76q0 -6 -2 -12v-6q-4 -46 -42 -86q-46 -38 -96 -38h-6q-44 0 -80 36q-18 22 -22 38q-10 26 -6 48z" />
<glyph unicode="j" horiz-adv-x="432" d="M-192 -432q6 50 22 194q134 0 204 116q52 88 64 210q34 290 98 872h192q0 -2 2 -2l-96 -848q-16 -150 -60 -248q-58 -132 -154 -206q-32 -24 -54 -34q-92 -54 -194 -54h-24zM210 1336q6 64 66 106q36 22 68 22h10q46 0 84 -40q22 -32 24 -62v-8v-10q0 -4 -2 -14 q-4 -32 -34 -68q-20 -22 -28 -28q-38 -22 -72 -22h-8q-40 0 -74 28q-35 35 -35 82q0 7 1 14z" />
<glyph unicode="k" horiz-adv-x="1078" d="M78 2q42 366 164 1460l4 2h186l2 -2q-24 -224 -98 -892q112 96 452 388h278q-122 -106 -490 -422q92 -134 364 -536h-2h-242q-22 28 -272 402h-2q-96 -82 -118 -100q-10 -100 -32 -300q-2 0 -4 -2h-188z" />
<glyph unicode="l" horiz-adv-x="486" d="M88 0q42 366 166 1464h2h190q-40 -366 -164 -1464h-2h-190h-2z" />
<glyph unicode="m" horiz-adv-x="1712" d="M80 2q26 238 106 948l4 2h186l2 -2q0 -14 -6 -54h2q54 28 138 52q46 10 110 10h8q194 0 300 -118q126 118 326 118h32q264 0 352 -198q20 -60 20 -120q0 -18 -2 -34q-22 -202 -66 -604q-2 0 -2 -2h-190v2q16 150 66 600q1 12 1 23q0 92 -105 127q-34 14 -90 14h-40 q-156 0 -214 -104q-16 -30 -18 -64q-24 -198 -68 -596l-2 -2h-188l-2 2q16 146 66 580q1 14 1 27q0 84 -55 119q-48 38 -138 38h-16q-124 0 -180 -38q-68 -40 -82 -150q-20 -192 -64 -576l-2 -2h-188z" />
<glyph unicode="n" horiz-adv-x="1054" d="M80 0v2q26 238 106 948l4 2h186l2 -2q-2 -14 -6 -54h2q54 28 138 52q46 10 110 10h10q256 0 346 -196q22 -54 22 -124q0 -28 -2 -56q-22 -192 -66 -580l-4 -2h-186l-2 2q16 146 66 582q1 13 1 26q0 101 -87 136q-40 20 -106 20h-16q-124 0 -178 -38q-70 -40 -84 -150 q-20 -192 -64 -576l-2 -2h-190z" />
<glyph unicode="o" horiz-adv-x="1120" d="M92 418q0 24 2 48q0 6 2 16q12 112 80 224q20 32 46 64q20 24 58 62q54 44 76 56q132 86 278 86q164 0 286 -106q18 -14 48 -50q62 -76 82 -158q18 -62 18 -128q0 -30 -4 -60q-14 -126 -88 -240q-24 -40 -66 -84q-44 -44 -70 -62q-30 -22 -56 -38q-126 -72 -256 -72h-8 q-136 0 -252 80q-22 18 -38 34q-36 32 -52 56q-18 24 -32 52q-18 32 -26 62q-28 80 -28 158zM288 472q-2 -18 -2 -36q0 -88 50 -162q28 -34 44 -44q72 -62 166 -62q112 0 212 88q38 36 56 64q48 72 58 152v2q2 17 2 34q0 96 -58 174q-32 36 -42 40q-16 14 -30 22 q-62 36 -130 36q-108 0 -204 -78q-34 -32 -44 -46q-68 -82 -78 -184z" />
<glyph unicode="p" horiz-adv-x="1152" d="M22 -430q40 346 156 1382v2h192q-2 -26 -10 -106q40 40 48 44q32 22 56 36q34 16 66 24q22 8 82 18q18 0 44 2q144 0 250 -70q30 -20 70 -60q32 -36 40 -50q22 -32 38 -62q40 -92 40 -196q0 -30 -4 -62q-18 -166 -136 -304q-14 -20 -58 -62q-6 -4 -18 -14 q-154 -116 -326 -116q-128 0 -222 72q-18 12 -46 42q-2 4 -10 12q-14 -134 -58 -534h-192zM314 454v-13q0 -27 6 -69q8 -34 20 -60q12 -22 36 -54q28 -30 40 -36q22 -16 38 -28q60 -26 110 -26h12q90 0 176 60q16 10 44 36q54 56 78 118q20 44 24 92q3 20 3 40q0 90 -53 164 q-30 34 -36 38q-74 62 -170 62h-8q-52 0 -120 -26q-32 -16 -74 -48q-40 -38 -48 -52q-18 -22 -30 -42q-10 -18 -26 -50q-16 -46 -16 -66q-2 -10 -6 -40z" />
<glyph unicode="q" horiz-adv-x="1170" d="M102 414q0 28 2 58q16 138 98 258q22 30 50 62q12 14 52 50q48 40 82 60q124 70 268 70q26 -2 42 -2q56 -10 80 -18q30 -8 58 -24q20 -14 48 -36q8 -4 40 -44q4 36 12 106h192l2 -2q-40 -344 -158 -1382v-2h-192q14 134 60 534l-12 -12q-36 -30 -56 -42 q-110 -72 -236 -72q-174 0 -300 116q-6 6 -16 14q-34 42 -46 62q-70 114 -70 246zM298 474q-1 -16 -1 -32q0 -31 5 -60q10 -62 50 -118q24 -26 38 -36q72 -60 160 -60h12q52 0 118 26q18 12 44 28q12 6 48 36q30 32 50 54q16 26 32 60q20 52 24 82q0 12 4 40q0 16 -2 66 q-8 32 -16 50q-6 20 -18 42q-6 14 -38 52q-34 32 -64 48q-60 26 -112 26h-8q-98 0 -184 -62q-8 -4 -44 -38q-84 -90 -98 -204z" />
<glyph unicode="r" horiz-adv-x="822" d="M80 4q26 234 104 940h4h188l-8 -72q120 92 238 92h24q98 0 198 -58v-2q-62 -190 -68 -198q-88 62 -162 62h-16q-96 0 -178 -70q-62 -66 -84 -254q-16 -146 -48 -440q-2 0 -2 -4h-188q0 2 -2 4z" />
<glyph unicode="s" horiz-adv-x="960" d="M64 198q60 32 178 96q2 -4 6 -14q10 -18 32 -40q40 -42 104 -62q44 -10 88 -10q88 0 160 40q16 8 36 24q34 39 34 69q0 51 -78 81q-26 10 -98 22q-158 30 -234 66q-34 12 -62 34q-72 50 -86 126q-7 24 -7 51q0 11 1 21v6q12 94 92 178q34 32 48 40q36 26 68 40 q104 48 226 48q182 0 298 -116q26 -26 36 -42l10 -20q-2 -4 -58 -34q-54 -32 -116 -68q-16 20 -32 34q-62 50 -158 50h-4q-106 0 -172 -50q-40 -30 -42 -64q-4 -22 14 -34q18 -16 70 -36q72 -24 230 -52q50 -12 86 -28q34 -14 66 -38q16 -12 40 -40q55 -69 55 -153 q0 -13 -1 -27v-2q-12 -102 -96 -192q-38 -32 -52 -40q-42 -30 -70 -40q-108 -46 -222 -46h-6q-152 0 -266 78q-26 18 -54 48q-24 26 -34 42q-18 26 -30 54z" />
<glyph unicode="t" horiz-adv-x="768" d="M118 766q6 48 22 192l2 2h140q16 126 58 504h192l-56 -504h248q0 -2 2 -2q-6 -48 -22 -192h-2h-248q-14 -122 -54 -484q-1 -10 -2 -18q0 -41 32 -56q24 -16 52 -16q38 0 112 26q4 2 10 6q14 -46 52 -182q-26 -10 -80 -26q-66 -16 -114 -16h-4q-94 0 -170 58 q-14 10 -34 32q-4 8 -14 22q-14 22 -22 40q-14 46 -14 92q0 15 2 30q18 164 56 492h-142h-2z" />
<glyph unicode="u" horiz-adv-x="1062" d="M96 320q0 28 2 56q22 192 66 578q0 2 4 4h186l4 -4q-18 -144 -68 -580q-1 -14 -1 -26q0 -102 87 -136q40 -20 106 -20h16q124 0 178 40q70 40 84 146q22 192 64 576q0 2 2 4h190v-4q-26 -236 -106 -946l-2 -2h-188l-2 2l8 64h-2q-56 -38 -140 -62q-46 -10 -110 -10h-10 q-256 0 -346 194q-22 56 -22 126z" />
<glyph unicode="v" horiz-adv-x="1162" d="M128 958h222q2 -6 32 -100q46 -138 136 -414q14 -40 54 -160q44 82 178 324q44 88 180 350h232q-66 -120 -268 -480q-42 -76 -170 -304q-24 -44 -96 -174h-172q-2 0 -24 66q-46 136 -138 406q-36 108 -148 434q-4 12 -18 52z" />
<glyph unicode="w" horiz-adv-x="1550" d="M148 958h212q2 0 16 -70q36 -158 106 -476q6 -20 20 -80q46 114 190 454q18 44 72 172h172l2 -16q30 -146 88 -434q8 -44 34 -176q2 0 34 70q64 156 196 470q10 22 38 86h224q-54 -118 -210 -468q-50 -106 -198 -430q-6 -14 -24 -60h-192q-2 0 -8 28q-28 132 -52 258 l-60 294q-46 -108 -184 -436q-14 -36 -60 -144h-194l-12 54q-32 138 -96 412q-26 112 -102 444q-4 12 -12 48z" />
<glyph unicode="x" horiz-adv-x="1138" d="M-42 0q92 100 364 400q26 26 100 108q-48 68 -196 274l-128 176h260q8 -10 110 -158q38 -54 112 -160q72 80 290 318h258l-376 -400q-10 -12 -46 -50q44 -62 174 -252q46 -64 178 -256h-256q-12 20 -54 80q-50 74 -198 296l-336 -376h-256z" />
<glyph unicode="y" horiz-adv-x="1178" d="M78 958h220l6 -20q36 -112 106 -338q28 -88 112 -358q6 6 220 404l162 312h244q-66 -122 -268 -488q-58 -104 -234 -410q-58 -106 -230 -422q-10 -18 -40 -70h-222v2q60 108 238 430q-36 112 -146 448q-38 114 -150 454q-6 14 -18 56z" />
<glyph unicode="z" horiz-adv-x="1032" d="M10 0q156 192 622 766h-488q-2 0 -4 2q6 46 20 186l4 4h860l2 -4q-156 -190 -624 -762h526l2 -2q-6 -46 -20 -188q-2 0 -4 -2h-896z" />
<glyph unicode="{" horiz-adv-x="794" d="M102 568l16 128q0 4 74 32q58 32 60 56q18 154 52 460q22 188 196 266q82 34 174 34h44l2 -2q-6 -48 -22 -190l-2 -2q-12 0 -48 2q-118 -6 -142 -66q-8 -16 -10 -40q-18 -156 -52 -466q-8 -74 -76 -148q50 -74 42 -148q-16 -156 -52 -466q-8 -68 48 -90q44 -16 80 -16 q16 0 50 2v-2q-6 -48 -22 -190v-2h-46q-162 0 -248 96q-68 80 -54 202q18 154 52 462q4 24 -46 56q-24 10 -70 32z" />
<glyph unicode="|" horiz-adv-x="310" d="M-20 2q40 350 156 1398h2h190h2q-40 -350 -156 -1398q-2 0 -2 -2h-190z" />
<glyph unicode="}" horiz-adv-x="842" d="M128 -278q6 48 22 190l2 2q12 0 48 -2q34 0 84 16q60 22 68 90q16 156 52 466q8 74 76 148q-50 74 -42 148q16 156 50 466q4 24 0 40q-10 60 -126 66q-16 0 -50 -2v2q4 48 22 190l2 2h42q42 -8 166 -34q158 -78 136 -266q-16 -154 -50 -460q-4 -24 48 -56q68 -28 68 -32 q-6 -42 -16 -128q-18 -8 -76 -32q-56 -32 -60 -56q-16 -154 -50 -462q-14 -122 -98 -202q-110 -96 -270 -96h-48v2z" />
<glyph unicode="~" horiz-adv-x="1300" d="M168 618q0 66 30 198q48 42 96 62q72 32 138 32q78 0 224 -60q144 -60 212 -60q64 0 132 34q46 24 104 78q0 -70 -30 -210q-48 -30 -96 -52q-72 -30 -140 -30q-74 0 -218 60q-146 58 -218 58q-64 0 -132 -34q-46 -22 -102 -76z" />
<glyph unicode="&#xa1;" horiz-adv-x="624" d="M32 0q40 290 160 1158v2h192v-2q-24 -290 -98 -1158h-2h-252zM182 1334q0 2 2 8q4 48 48 88q32 26 60 32q16 2 24 2h14q32 0 64 -24q30 -24 40 -64q2 -12 2 -22q0 -6 -2 -12v-8q-4 -46 -48 -86q-42 -36 -92 -36q-62 0 -96 52q-20 34 -16 70z" />
<glyph unicode="&#xa2;" d="M86 688q0 24 2 48q2 6 2 16q14 112 80 224q22 32 46 64q20 24 58 62q44 36 76 58q68 42 138 64q6 38 18 158q2 0 2 2h190l2 -2q-4 -36 -16 -142q118 -14 218 -88q20 -18 48 -48q32 -38 42 -56q14 -22 14 -24q-58 -34 -174 -104q-8 16 -34 46q-58 62 -134 78 q-22 -200 -66 -598q58 10 114 48q16 10 50 40q20 20 34 40h2q36 -28 148 -108q-20 -26 -52 -58q-38 -38 -54 -48q-34 -26 -62 -42q-100 -58 -202 -70q-6 -46 -16 -142v-2h-192v2l16 160q-64 20 -120 62q-24 16 -40 32q-34 34 -50 56q-36 48 -48 82q-16 32 -28 86t-12 104z M282 744q-10 -108 48 -198q20 -26 40 -44q18 -16 38 -28q14 136 58 540q-32 -16 -60 -42q-38 -32 -46 -46q-66 -82 -78 -182z" />
<glyph unicode="&#xa3;" horiz-adv-x="1166" d="M64 166q18 14 74 58t130 106q74 68 98 96q42 46 64 76q50 72 54 118h-218q6 48 22 192v2h148q-46 122 -36 236q16 134 112 230q36 34 48 40q42 32 72 46q114 58 220 58h12q108 0 212 -58q34 -20 68 -52l10 -10q-38 -34 -148 -138q-38 34 -88 50q-42 14 -80 14 q-80 0 -158 -50q-48 -30 -66 -68q-16 -26 -20 -62v-4q-8 -68 30 -158q24 -58 28 -74h330q-6 -50 -22 -194h-282q-10 -84 -70 -184q-26 -40 -66 -88q-22 -26 -44 -50q62 -6 102 -26q32 -14 64 -36q16 -14 38 -36q66 -58 138 -58q104 0 240 124q40 -46 122 -136 q-56 -50 -80 -66q-50 -38 -102 -64q-106 -50 -196 -50h-12q-92 0 -182 52q-34 20 -72 54q-30 30 -46 34q-32 16 -74 16h-4q-96 0 -238 -74q-12 -6 -34 -20q-24 38 -98 154z" />
<glyph unicode="&#xa4;" horiz-adv-x="1266" d="M-16 298q26 24 104 94q-22 36 -40 72q-18 40 -32 98q-24 100 -16 190q2 6 2 16q14 132 92 264q26 44 66 96q4 2 10 8q-24 26 -92 104q36 34 148 136q24 -26 96 -106q40 26 84 48q48 22 114 42q102 30 194 30h16q144 0 280 -66q46 -24 84 -52q0 -2 2 -2q30 26 120 106 q116 -130 120 -136v-2q-28 -26 -112 -102q30 -42 48 -86q58 -138 42 -288v-4q-18 -182 -140 -344q-16 -20 -16 -22q28 -30 84 -94q-36 -34 -148 -138l-88 96q-194 -126 -410 -126q-200 0 -360 110q-8 6 -24 16q-100 -90 -108 -96zM194 760q-12 -136 62 -252q14 -22 42 -54 q40 -40 60 -52q28 -20 64 -36q92 -44 194 -44q140 0 268 78q92 56 156 144q72 104 82 216q14 148 -74 272q-32 42 -56 62q-40 32 -70 48q-98 56 -220 56q-140 0 -270 -78q-132 -80 -198 -218q-32 -70 -40 -142z" />
<glyph unicode="&#xa5;" horiz-adv-x="1070" d="M56 1262q8 8 160 128q50 -66 202 -262q42 -54 166 -212q84 86 342 342q34 32 132 132q128 -126 132 -128q-102 -100 -302 -300l-228 -228q0 -6 -4 -26h334q-6 -48 -22 -194h-2h-332q0 -10 -4 -42h330h2q-6 -48 -20 -190q-2 0 -2 -2h-332q-6 -68 -28 -278h-194 q8 70 30 278h-330l-2 2q6 48 20 190h2h330q2 12 4 42h-328h-2q6 50 22 194h332q0 6 2 26q-66 84 -264 338q-36 48 -146 190z" />
<glyph unicode="&#xa6;" horiz-adv-x="378" d="M-20 -498q18 162 74 648h192l-72 -648l-2 -2h-190q-2 0 -2 2zM132 850q18 164 74 650h192q-18 -162 -72 -650h-2h-190h-2z" />
<glyph unicode="&#xa7;" horiz-adv-x="952" d="M70 164q152 74 184 86q18 -48 74 -74q32 -14 70 -14q58 0 112 28q56 32 60 82q4 32 -16 50q-22 22 -54 36q-50 24 -150 44q-32 8 -58 18q-38 18 -70 40q-22 14 -52 46q-30 38 -42 66q-34 76 -26 150q0 4 2 14q8 80 68 162q16 22 52 56q8 8 24 22q-30 24 -54 64 q-36 62 -26 146q10 106 96 190q34 32 52 42q50 32 110 52q64 18 124 18h14q98 0 182 -54q26 -18 54 -44q32 -38 40 -54q14 -24 22 -42q-62 -30 -182 -88q-22 50 -74 74q-32 14 -72 14q-64 0 -118 -30q-12 -6 -30 -24q-22 -24 -26 -52v-6q-4 -36 34 -60q22 -18 72 -36 q48 -18 136 -38q36 -10 64 -24q30 -16 64 -42q36 -32 56 -64q54 -88 44 -190q-14 -126 -120 -224q-10 -8 -28 -24q30 -24 52 -58q40 -68 30 -144q0 -4 -2 -10q-8 -82 -66 -156q-14 -16 -42 -46q-36 -26 -56 -38q-24 -14 -64 -30q-78 -28 -158 -28q-154 0 -254 108 q-26 34 -34 50q-12 20 -18 36zM296 728q-6 -54 38 -96q48 -42 116 -42q78 0 142 52q14 16 22 28q18 28 22 58q6 60 -46 104q-48 36 -104 36h-10q-60 0 -116 -38q-58 -44 -64 -102z" />
<glyph unicode="&#xa8;" horiz-adv-x="898" d="M302 1808v10t2 8q4 48 46 88q42 36 92 36q62 0 96 -54q20 -34 16 -70v-8q-6 -48 -50 -88q-32 -24 -58 -30q-16 -4 -24 -4h-14q-32 0 -64 24t-40 66q-2 12 -2 22zM682 1786q-2 18 0 32v8q6 48 48 88q42 36 94 36q58 0 94 -54q18 -28 18 -60v-10q-2 -2 -2 -8 q-6 -48 -48 -88q-32 -24 -62 -30q-16 -4 -24 -4h-14q-32 0 -64 24q-30 24 -40 66z" />
<glyph unicode="&#xa9;" horiz-adv-x="2030" d="M214 652q0 38 2 76q2 8 2 24q16 158 102 320q34 64 86 136q32 40 82 88q62 62 86 78q66 52 118 82q214 120 446 120q260 0 464 -150q38 -26 86 -76q52 -54 62 -70q34 -48 56 -84q92 -176 92 -372q0 -42 -4 -86q-24 -238 -174 -446q-32 -46 -88 -106q-58 -56 -96 -84 q-58 -46 -98 -70q-226 -130 -468 -130t-442 134q-42 30 -94 78q-54 58 -66 74q-48 70 -72 114q-26 50 -46 108q-36 122 -36 242zM408 736q-20 -198 80 -368q18 -32 50 -70q38 -42 52 -56q42 -34 80 -60q146 -90 318 -90h4q188 0 362 106q28 14 64 42q18 14 72 62q6 8 22 24 q42 44 70 86q104 154 122 326q18 204 -86 378q-18 30 -58 78q-48 54 -82 76q-158 116 -358 116t-386 -120q-30 -18 -88 -68q-54 -48 -76 -78q-28 -36 -50 -72q-96 -146 -112 -308v-4zM610 718q0 4 2 16q12 108 76 216q24 36 60 80q44 44 86 74q44 32 80 50q112 54 222 54h14 q126 0 238 -70q30 -18 62 -48q32 -32 48 -56q14 -16 24 -34h-2l-168 -112q-10 18 -30 42q-32 32 -58 46q-64 40 -140 40q-90 0 -170 -54q-50 -32 -88 -80q-54 -74 -62 -156q-12 -114 60 -200q26 -30 46 -42q70 -50 154 -50h4q110 0 206 80q32 30 46 48h2q36 -26 148 -106 q-20 -26 -62 -68q-40 -36 -70 -56q-32 -20 -58 -34q-38 -18 -80 -34q-78 -22 -144 -22h-18q-92 0 -188 44q-170 82 -224 264q-24 86 -16 168z" />
<glyph unicode="&#xaa;" horiz-adv-x="648" />
<glyph unicode="&#xab;" horiz-adv-x="1304" d="M128 400v2q2 34 14 134q94 62 376 242q14 10 52 34q6 -6 50 -84q14 -24 44 -74l-288 -184l248 -184q-122 -152 -128 -158q-122 90 -368 272zM678 400v2q2 34 14 134q94 62 376 242q14 10 52 34q6 -6 50 -84q14 -24 44 -74q-72 -46 -286 -184q60 -46 246 -184 q-124 -152 -128 -158q-122 90 -368 272z" />
<glyph unicode="&#xac;" horiz-adv-x="920" d="M78 616q6 50 22 194h752l2 -2q-14 -114 -54 -458h-192q8 66 30 266h-560z" />
<glyph unicode="&#xad;" horiz-adv-x="946" d="M104 414q6 48 22 194h706v-2q-6 -48 -22 -190v-2h-706z" />
<glyph unicode="&#xae;" horiz-adv-x="1290" d="M208 938q0 22 2 44v12q10 90 58 182q20 38 50 78q18 22 44 50q38 34 52 46q36 28 66 44q122 70 254 70q148 0 266 -86q20 -16 48 -42q28 -32 34 -40q22 -30 32 -48q52 -100 52 -212q0 -24 -2 -50q-14 -136 -100 -252q-16 -28 -48 -62q-34 -32 -56 -48q-32 -24 -56 -40 q-128 -74 -264 -74q-138 0 -252 76q-26 18 -54 46q-32 32 -38 42q-28 38 -40 64q-16 28 -26 62q-22 70 -22 138zM290 984q-12 -120 48 -224q12 -20 32 -44q22 -26 32 -34q24 -20 48 -36q92 -54 196 -54h2q116 0 222 64q18 8 40 26q10 6 44 36q4 6 12 16q26 26 44 52 q62 94 74 200q12 126 -52 232q-10 20 -34 48q-30 32 -52 46q-98 72 -220 72q-124 0 -236 -72q-18 -14 -52 -44q-34 -28 -48 -46q-16 -22 -30 -46q-58 -88 -70 -188v-4zM512 714q12 138 54 550h170q44 0 84 -22q14 -4 28 -18q6 -4 18 -16q18 -22 24 -46q12 -30 8 -60 q0 -6 -2 -14q-2 -40 -26 -78q-8 -12 -22 -28q-16 -14 -28 -24q-20 -14 -34 -22q-8 -2 -12 -4q2 -2 34 -76q20 -48 62 -142h-86q-2 4 -52 122q-10 26 -34 82h-92q0 -2 -2 -2q-6 -50 -20 -202h-72zM610 990h96q48 0 86 34q28 28 32 66v8q6 52 -40 80q-26 14 -56 14h-96 q-6 -52 -22 -202z" />
<glyph unicode="&#xaf;" horiz-adv-x="670" />
<glyph unicode="&#xb0;" horiz-adv-x="976" d="M102 1050q0 14 2 28q0 6 2 16q8 88 70 176q72 98 192 140q58 20 110 20h12q90 0 172 -52q96 -64 124 -180q10 -42 10 -80q0 -16 -2 -32q-12 -126 -108 -228q-36 -34 -54 -46q-104 -70 -216 -70q-126 0 -216 82q-32 30 -40 44q-14 18 -24 42q-34 70 -34 140zM318 1086 q-6 -58 36 -102q36 -32 82 -32q58 0 106 48q34 38 40 86q6 64 -46 106q-32 24 -72 24q-64 0 -112 -54q-30 -34 -34 -76z" />
<glyph unicode="&#xb1;" horiz-adv-x="768" d="M2 -192q6 48 22 192h706q-4 -48 -20 -192h-2h-706zM14 414q6 48 22 194h260q6 64 28 256h2h190h2q-8 -64 -30 -256h256l2 -2q-6 -48 -22 -190q0 -2 -2 -2h-256q-8 -64 -28 -260h-194q8 66 28 260h-258z" />
<glyph unicode="&#xb2;" horiz-adv-x="1014" />
<glyph unicode="&#xb3;" horiz-adv-x="1014" />
<glyph unicode="&#xb4;" horiz-adv-x="752" d="M300 1792v2q102 58 410 234l82 -164q-102 -58 -408 -234h-2q-20 40 -82 162z" />
<glyph unicode="&#xb5;" horiz-adv-x="1116" d="M62 -400q38 340 154 1358v2h192v-2q-16 -146 -66 -586q-14 -122 84 -160q40 -20 108 -20h16q122 0 178 40q70 40 82 146q22 192 64 576l4 4h188v-4q-26 -236 -106 -946v-2h-190l-2 2q2 14 8 54h-2q-54 -28 -140 -52q-44 -10 -108 -10h-10q-124 0 -212 46 q-12 -112 -48 -446h-2h-190h-2z" />
<glyph unicode="&#xb6;" horiz-adv-x="1134" d="M206 962q0 22 2 46q18 156 136 252t296 96h442v-2h70q-6 -48 -22 -192h-2h-82q-30 -266 -118 -1060l-2 -2h-192v2q28 264 118 1060h-112q-30 -266 -118 -1060l-2 -2h-192l-2 2q16 140 64 562q-132 18 -208 98t-76 200z" />
<glyph unicode="&#xb7;" horiz-adv-x="518" d="M302 756v12q0 2 2 8q4 48 46 88q42 34 92 34q62 0 96 -52q18 -30 18 -60q0 -6 -2 -10v-8q-6 -48 -50 -88q-32 -24 -58 -32q-16 -2 -24 -2h-14q-32 0 -64 24t-40 66q-2 10 -2 20z" />
<glyph unicode="&#xb8;" horiz-adv-x="682" d="M300 -358q34 26 138 100q24 -36 56 -36q24 0 44 16q18 14 20 30q2 10 -6 22q-6 4 -22 4h-4q-26 0 -70 -16q-34 -10 -106 -34h2l96 304l152 -32v-2q-6 -16 -20 -62q30 -6 44 -10q58 -26 82 -84q14 -34 14 -68q0 -10 -2 -20v-6q-6 -66 -60 -124q-24 -22 -36 -30 q-70 -48 -142 -48h-6q-80 0 -142 56q-26 28 -28 34q-2 2 -4 6z" />
<glyph unicode="&#xb9;" horiz-adv-x="1014" />
<glyph unicode="&#xba;" horiz-adv-x="718" />
<glyph unicode="&#xbb;" horiz-adv-x="1304" d="M110 286q96 62 286 184q-62 46 -246 184q16 18 60 74q62 78 68 84h2q10 -8 42 -34q82 -60 326 -242q-4 -32 -16 -134v-2q-108 -68 -430 -272q-4 6 -92 158zM660 286q96 62 286 184q-62 46 -246 184q16 18 60 74q62 78 68 84h2q10 -8 42 -34q82 -60 326 -242 q-4 -32 -16 -134v-2q-108 -68 -430 -272q-4 6 -92 158z" />
<glyph unicode="&#xbc;" horiz-adv-x="1708" />
<glyph unicode="&#xbd;" horiz-adv-x="1964" />
<glyph unicode="&#xbe;" horiz-adv-x="1708" />
<glyph unicode="&#xbf;" horiz-adv-x="1138" d="M-4 396q0 26 4 52q14 118 94 232q20 32 52 64q38 38 66 58q38 30 124 86q24 14 48 36q16 14 22 26q8 12 8 26q8 76 26 230v2h192v-2q-6 -56 -24 -228q-16 -136 -154 -232q-32 -26 -118 -80q-46 -32 -80 -72q-36 -48 -56 -106q-6 -24 -8 -40q-10 -100 50 -176 q68 -80 172 -80q98 0 184 74q82 78 92 182q2 12 6 34h192q-2 -10 -6 -42q-10 -98 -72 -200q-20 -34 -56 -72q-14 -18 -50 -48q-30 -26 -54 -40q-40 -26 -82 -46q-88 -34 -170 -34h-14q-88 0 -174 40q-36 18 -74 50q-22 16 -44 42q-34 40 -48 70q-48 92 -48 194zM432 1384v6 q6 50 50 90q44 32 84 32h12q32 0 64 -24t40 -70q4 -18 0 -32q-4 -58 -58 -98q-38 -28 -82 -28q-56 0 -92 46q-24 38 -18 78z" />
<glyph unicode="&#xc0;" horiz-adv-x="1464" d="M0 0q162 314 646 1250q26 54 110 214h180q4 0 64 -216q124 -416 370 -1248h-2h-208q-4 0 -22 66q-24 84 -74 248h-694q-40 -78 -162 -314h-208zM472 510h536q-50 164 -194 658q-4 0 -142 -270q-66 -130 -200 -388zM640 1864q22 42 84 164q102 -58 408 -234l2 -2 q-22 -40 -84 -162q-102 58 -410 234z" />
<glyph unicode="&#xc1;" horiz-adv-x="1464" d="M0 0q162 314 646 1250q26 54 110 214h180q4 0 64 -216q124 -416 370 -1248h-2h-208q-4 0 -22 66q-24 84 -74 248h-694q-40 -78 -162 -314h-208zM472 510h536q-50 164 -194 658q-4 0 -142 -270q-66 -130 -200 -388zM640 1792q104 60 410 236v-2q20 -40 84 -162h-2 q-102 -60 -408 -234q-20 40 -84 162z" />
<glyph unicode="&#xc2;" horiz-adv-x="1464" d="M0 0q162 314 646 1250q26 54 110 214h180q4 0 64 -216q124 -416 370 -1248h-2h-208q-4 0 -22 66q-24 84 -74 248h-694q-40 -78 -162 -314h-208zM472 510h536q-50 164 -194 658q-4 0 -142 -270q-66 -130 -200 -388zM600 1758l250 250h112q14 -14 198 -250 q-54 -42 -160 -128q-28 38 -118 152l-152 -152q-32 32 -130 128z" />
<glyph unicode="&#xc3;" horiz-adv-x="1464" d="M0 0q162 314 646 1250q26 54 110 214h180q4 0 64 -216q124 -416 370 -1248h-2h-208q-4 0 -22 66q-24 84 -74 248h-694q-40 -78 -162 -314h-208zM472 510h536q-50 164 -194 658q-4 0 -142 -270q-66 -130 -200 -388zM548 1656q6 62 20 184q40 40 74 58q54 32 102 32 q56 0 152 -58t144 -58q42 0 96 32q34 24 80 74q-6 -64 -20 -192q-36 -30 -72 -50q-54 -30 -102 -30q-54 0 -150 58q-96 56 -146 56q-46 0 -98 -32q-34 -22 -80 -74z" />
<glyph unicode="&#xc4;" horiz-adv-x="1464" d="M0 0q162 314 646 1250q26 54 110 214h180q4 0 64 -216q124 -416 370 -1248h-2h-208q-4 0 -22 66q-24 84 -74 248h-694q-40 -78 -162 -314h-208zM472 510h536q-50 164 -194 658q-4 0 -142 -270q-66 -130 -200 -388zM566 1782q0 2 2 8q4 46 46 86q42 36 92 36q62 0 96 -54 q20 -34 16 -68v-8q-6 -48 -50 -88q-32 -26 -58 -32q-16 -4 -24 -4h-14q-32 0 -64 24t-40 66q-4 18 -2 34zM946 1748q-2 18 0 34v8q6 46 48 86q42 36 94 36q58 0 94 -54q20 -34 18 -68q-2 -4 -2 -8q-6 -48 -48 -88q-32 -26 -62 -32q-16 -4 -24 -4h-14q-32 0 -64 24 q-30 24 -40 66z" />
<glyph unicode="&#xc5;" horiz-adv-x="1464" d="M0 0q162 314 646 1250q26 54 110 214h-2q-12 8 -26 18q-14 16 -20 26q-12 20 -20 34q-16 42 -10 80v10q6 54 48 104q8 10 28 30q62 48 128 48h4q66 0 116 -46q20 -22 24 -30q32 -50 26 -112q-8 -74 -72 -132q-4 -4 -10 -12q-16 -10 -32 -18q6 -16 62 -216 q124 -416 370 -1248h-2h-208q-4 0 -22 66q-24 84 -74 248h-694q-40 -78 -162 -314h-208zM472 510h536q-50 164 -194 658q-4 0 -142 -270q-66 -130 -200 -388zM794 1626q-2 -32 22 -56q18 -14 40 -14q34 0 60 28q18 22 20 42v4q2 26 -16 46t-48 20q-26 0 -50 -18 q-24 -22 -28 -50v-2z" />
<glyph unicode="&#xc6;" horiz-adv-x="1926" d="M0 2q150 184 594 732q150 182 598 730h784l2 -2q-6 -48 -20 -188l-4 -2h-594q-12 -112 -48 -442l2 -4h470v-2q-6 -46 -20 -186l-2 -2h-472q-12 -112 -48 -444h594q0 -2 2 -2q-4 -48 -20 -188l-2 -2h-784l-2 2q12 104 44 412l-2 2h-498q-6 -8 -222 -272 q-110 -136 -118 -144h-230zM730 608h364l2 2q16 130 58 518h-2q-106 -130 -422 -520z" />
<glyph unicode="&#xc7;" horiz-adv-x="1470" d="M146 644q0 42 4 84q0 2 2 8q30 276 234 496q242 232 536 232h2q284 0 470 -220q66 -86 92 -148q-10 -8 -182 -94q-20 50 -66 114q-140 156 -334 156q-200 0 -372 -158q-166 -168 -188 -380q-30 -248 142 -424q130 -116 290 -116h20q176 0 346 144q72 72 106 126 q52 -30 158 -88v-6q-40 -62 -104 -132q-240 -232 -526 -238q-6 -16 -22 -64q30 -6 46 -10q58 -26 80 -84q18 -44 14 -88v-6q-8 -66 -62 -124q-24 -22 -36 -30q-68 -48 -142 -48h-6q-78 0 -142 56q-24 28 -26 34l-6 6q36 26 138 100q26 -36 58 -36q22 0 42 16q18 14 22 30 q0 10 -6 22q-8 4 -24 8h-6q-24 -4 -66 -14q-34 -12 -106 -36v2q22 70 90 282q-194 46 -336 218q-134 186 -134 410z" />
<glyph unicode="&#xc8;" d="M94 0q40 366 162 1464h2h788q-6 -48 -22 -192h-594q-14 -112 -52 -444h472v-2q-4 -46 -20 -188q0 -2 -2 -2h-470q-14 -110 -50 -444h596l-24 -192h-786zM446 1864q20 42 82 164q104 -58 410 -234v-2q-20 -40 -82 -162q-102 58 -410 234z" />
<glyph unicode="&#xc9;" d="M94 0q40 366 162 1464h2h788q-6 -48 -22 -192h-594q-14 -112 -52 -444h472v-2q-4 -46 -20 -188q0 -2 -2 -2h-470q-14 -110 -50 -444h596l-24 -192h-786zM446 1792l2 2q102 58 408 234l82 -164q-102 -58 -410 -234q-20 40 -82 162z" />
<glyph unicode="&#xca;" d="M94 0q40 366 162 1464h2h788q-6 -48 -22 -192h-594q-14 -112 -52 -444h472v-2q-4 -46 -20 -188q0 -2 -2 -2h-470q-14 -110 -50 -444h596l-24 -192h-786zM406 1758l250 250h114q12 -14 196 -250q-54 -42 -160 -128q-30 38 -118 152l-152 -152q-34 32 -130 128z" />
<glyph unicode="&#xcb;" d="M94 0q40 366 162 1464h2h788q-6 -48 -22 -192h-594q-14 -112 -52 -444h472v-2q-4 -46 -20 -188q0 -2 -2 -2h-470q-14 -110 -50 -444h596l-24 -192h-786zM370 1782q2 2 2 8q4 46 48 86q42 36 92 36q62 0 96 -54q20 -34 16 -68v-8q-6 -48 -50 -88q-30 -26 -60 -32 q-16 -4 -24 -4h-12q-32 0 -66 24q-30 24 -38 66q-4 18 -4 34zM752 1748q-2 18 0 34v8q6 46 48 86q42 36 94 36q58 0 94 -54q20 -34 16 -68q0 -4 -2 -8q-4 -48 -48 -88q-32 -26 -60 -32q-14 -4 -22 -4h-16q-32 0 -64 24t-40 66z" />
<glyph unicode="&#xcc;" horiz-adv-x="456" d="M88 0q40 366 162 1464h4h190q-40 -366 -164 -1464h-192zM142 1864q20 42 82 164q104 -58 410 -234v-2q-20 -40 -82 -162q-102 58 -410 234z" />
<glyph unicode="&#xcd;" horiz-adv-x="456" d="M88 0q40 366 162 1464h4h190q-40 -366 -164 -1464h-192zM142 1792l2 2q102 58 408 234l82 -164q-102 -58 -410 -234q-20 40 -82 162z" />
<glyph unicode="&#xce;" horiz-adv-x="456" d="M88 0q40 366 162 1464h4h190q-40 -366 -164 -1464h-192zM102 1758l250 250h114q12 -14 196 -250q-54 -42 -160 -128q-30 38 -118 152l-152 -152q-34 32 -130 128z" />
<glyph unicode="&#xcf;" horiz-adv-x="456" d="M86 1770q0 6 2 12v8q6 46 48 86q40 36 92 36q60 0 94 -54q22 -34 18 -68q0 -4 -2 -8q-4 -48 -48 -88q-32 -26 -60 -32q-16 -4 -24 -4h-14q-32 0 -64 24t-40 66q-2 12 -2 22zM88 0q40 366 162 1464h4h190q-40 -366 -164 -1464h-192zM426 1782q2 2 2 8q4 46 46 86 q44 36 94 36q60 0 96 -54q16 -28 16 -58v-10v-8q-8 -48 -50 -88q-32 -26 -62 -32q-14 -4 -22 -4h-14q-32 0 -64 24t-40 66q-4 18 -2 34z" />
<glyph unicode="&#xd0;" horiz-adv-x="1416" d="M94 634q4 48 20 196h128q18 156 72 630l4 4h380q264 0 460 -178q74 -78 92 -114q104 -166 104 -354q0 -40 -4 -82v-10q-30 -294 -272 -526q-134 -106 -256 -152q-150 -48 -278 -48h-392l-2 2l72 632h-128zM364 192h178q256 0 444 190q150 156 172 348q20 198 -94 354 q-72 84 -112 104q-2 2 -6 4q-34 26 -114 54q-72 24 -192 24h-152l-2 -2q-14 -110 -50 -438h198q-6 -50 -22 -196h-198q-12 -110 -50 -442z" />
<glyph unicode="&#xd1;" horiz-adv-x="1420" d="M94 2q40 366 162 1460q2 0 4 2h208q146 -262 586 -1046q12 -24 52 -98q32 286 128 1142q2 0 4 2h188l4 -2q-42 -366 -166 -1460l-2 -2h-208q-46 76 -332 596q-104 182 -308 548q-32 -286 -128 -1142q-2 0 -4 -2h-186zM544 1656q8 62 22 184q36 40 72 58q56 32 102 32 q58 0 152 -58q96 -58 144 -58q44 0 96 32q36 24 84 74l-24 -192q-36 -30 -72 -50q-54 -30 -104 -30q-52 0 -148 58q-94 56 -148 56q-42 0 -96 -32q-34 -22 -80 -74z" />
<glyph unicode="&#xd2;" horiz-adv-x="1592" d="M118 648q0 40 4 82v6q30 314 286 546q24 18 74 54q200 134 422 128h4q290 0 484 -226q144 -188 144 -420q0 -42 -6 -86q-28 -314 -282 -544q-232 -188 -492 -188h-10q-260 0 -450 186q-82 96 -104 150q-74 146 -74 312zM314 734q-26 -238 134 -412q136 -128 320 -128 q240 0 430 212q120 152 138 318v12q24 206 -102 370q-140 166 -346 166q-232 0 -418 -198q-134 -156 -156 -340zM702 1864q20 42 82 164q102 -58 408 -234v-2q-20 -40 -80 -162h-2q-102 58 -408 234z" />
<glyph unicode="&#xd3;" horiz-adv-x="1592" d="M118 648q0 40 4 82v6q30 314 286 546q24 18 74 54q200 134 422 128h4q290 0 484 -226q144 -188 144 -420q0 -42 -6 -86q-28 -314 -282 -544q-232 -188 -492 -188h-10q-260 0 -450 186q-82 96 -104 150q-74 146 -74 312zM314 734q-26 -238 134 -412q136 -128 320 -128 q240 0 430 212q120 152 138 318v12q24 206 -102 370q-140 166 -346 166q-232 0 -418 -198q-134 -156 -156 -340zM702 1792q102 60 408 236l2 -2q20 -40 80 -162q-102 -60 -408 -234q-20 40 -82 162z" />
<glyph unicode="&#xd4;" horiz-adv-x="1592" d="M118 648q0 40 4 82v6q30 314 286 546q24 18 74 54q200 134 422 128h4q290 0 484 -226q144 -188 144 -420q0 -42 -6 -86q-28 -314 -282 -544q-232 -188 -492 -188h-10q-260 0 -450 186q-82 96 -104 150q-74 146 -74 312zM314 734q-26 -238 134 -412q136 -128 320 -128 q240 0 430 212q120 152 138 318v12q24 206 -102 370q-140 166 -346 166q-232 0 -418 -198q-134 -156 -156 -340zM658 1758q64 62 252 250h114q10 -14 194 -250q-52 -42 -158 -128q-30 38 -118 152l-152 -152q-34 32 -132 128z" />
<glyph unicode="&#xd5;" horiz-adv-x="1592" d="M118 648q0 40 4 82v6q30 314 286 546q24 18 74 54q200 134 422 128h4q290 0 484 -226q144 -188 144 -420q0 -42 -6 -86q-28 -314 -282 -544q-232 -188 -492 -188h-10q-260 0 -450 186q-82 96 -104 150q-74 146 -74 312zM314 734q-26 -238 134 -412q136 -128 320 -128 q240 0 430 212q120 152 138 318v12q24 206 -102 370q-140 166 -346 166q-232 0 -418 -198q-134 -156 -156 -340zM608 1656q6 62 20 184q38 40 74 58q52 32 100 32q56 0 152 -58t144 -58q44 0 96 32q38 24 84 74q-8 -64 -22 -192q-38 -30 -72 -50q-56 -30 -104 -30 q-54 0 -148 58q-96 56 -148 56q-42 0 -96 -32q-34 -22 -80 -74z" />
<glyph unicode="&#xd6;" horiz-adv-x="1592" d="M118 648q0 40 4 82v6q30 314 286 546q24 18 74 54q200 134 422 128h4q290 0 484 -226q144 -188 144 -420q0 -42 -6 -86q-28 -314 -282 -544q-232 -188 -492 -188h-10q-260 0 -450 186q-82 96 -104 150q-74 146 -74 312zM314 734q-26 -238 134 -412q136 -128 320 -128 q240 0 430 212q120 152 138 318v12q24 206 -102 370q-140 166 -346 166q-232 0 -418 -198q-134 -156 -156 -340zM624 1748q-2 18 0 34v8q6 46 48 86q42 36 94 36q58 0 96 -54q18 -34 16 -68q-2 -4 -2 -8q-4 -48 -50 -88q-30 -26 -58 -32q-16 -4 -24 -4h-14q-32 0 -66 24 q-30 24 -40 66zM1004 1782q0 2 2 8q4 46 46 86q42 36 92 36q62 0 96 -54q22 -34 16 -68v-8q-6 -48 -48 -88q-32 -26 -62 -32q-14 -4 -22 -4h-14q-32 0 -64 24t-40 66q-4 18 -2 34z" />
<glyph unicode="&#xd7;" horiz-adv-x="742" d="M50 302q52 46 206 184q-42 46 -166 184h2q38 34 148 136h2q40 -46 164 -184q52 46 204 184h2q30 -34 122 -136h-2q-50 -46 -204 -184q40 -46 164 -184l-152 -136q-40 46 -164 184q-50 -46 -204 -184q-30 34 -122 136z" />
<glyph unicode="&#xd8;" horiz-adv-x="1592" d="M118 648q0 40 4 82v6q30 314 286 546q24 18 74 54q200 134 422 128h4q290 0 484 -226q144 -188 144 -420q0 -42 -6 -86q-28 -314 -282 -544q-234 -190 -502 -188q-260 0 -450 186q-82 96 -104 150q-74 146 -74 312zM224 -8q28 40 112 158l-40 36q-16 18 -28 34 q42 58 124 174q24 -36 56 -72q6 -4 10 -8q218 300 652 900q-30 18 -62 30q26 60 82 182q52 -18 100 -48q44 60 130 182h2q36 -22 148 -94l-144 -200q12 -14 26 -28q38 -50 64 -102q-56 -36 -170 -108q-20 36 -44 68q-210 -292 -634 -874q42 -16 88 -22q-24 -64 -72 -190 q-34 12 -136 44q-30 -40 -114 -158q-38 24 -150 94v2zM314 734q-26 -238 134 -412q136 -128 320 -128q240 0 430 212q120 152 138 318v12q24 206 -102 370q-140 166 -346 166q-232 0 -418 -198q-134 -156 -156 -340z" />
<glyph unicode="&#xd9;" horiz-adv-x="1402" d="M164 464q0 34 4 68q34 310 104 930q2 0 4 2h188v-2q-24 -224 -98 -892q-20 -162 26 -238q40 -86 154 -126q44 -12 86 -12h142q170 0 282 156q54 82 66 194l102 918q2 0 4 2h188l2 -2q-24 -218 -98 -870q-18 -174 -58 -250q-80 -174 -230 -264q-130 -78 -304 -78h-96 q-226 0 -350 136q-54 62 -80 122q-38 98 -38 206zM640 1864q22 42 84 164q102 -58 410 -234v-2q-22 -40 -82 -162h-2q-102 58 -410 234z" />
<glyph unicode="&#xda;" horiz-adv-x="1402" d="M164 464q0 34 4 68q34 310 104 930q2 0 4 2h188v-2q-24 -224 -98 -892q-20 -162 26 -238q40 -86 154 -126q44 -12 86 -12h142q170 0 282 156q54 82 66 194l102 918q2 0 4 2h188l2 -2q-24 -218 -98 -870q-18 -174 -58 -250q-80 -174 -230 -264q-130 -78 -304 -78h-96 q-226 0 -350 136q-54 62 -80 122q-38 98 -38 206zM640 1792q104 60 410 236q2 0 2 -2q20 -40 82 -162q-104 -60 -410 -234q-20 40 -84 162z" />
<glyph unicode="&#xdb;" horiz-adv-x="1402" d="M164 464q0 34 4 68q34 310 104 930q2 0 4 2h188v-2q-24 -224 -98 -892q-20 -162 26 -238q40 -86 154 -126q44 -12 86 -12h142q170 0 282 156q54 82 66 194l102 918q2 0 4 2h188l2 -2q-24 -218 -98 -870q-18 -174 -58 -250q-80 -174 -230 -264q-130 -78 -304 -78h-96 q-226 0 -350 136q-54 62 -80 122q-38 98 -38 206zM600 1758l250 250h114q12 -14 196 -250q-54 -42 -160 -128q-28 38 -118 152l-152 -152q-32 32 -130 128z" />
<glyph unicode="&#xdc;" horiz-adv-x="1402" d="M164 464q0 34 4 68q34 310 104 930q2 0 4 2h188v-2q-24 -224 -98 -892q-20 -162 26 -238q40 -86 154 -126q44 -12 86 -12h142q170 0 282 156q54 82 66 194l102 918q2 0 4 2h188l2 -2q-24 -218 -98 -870q-18 -174 -58 -250q-80 -174 -230 -264q-130 -78 -304 -78h-96 q-226 0 -350 136q-54 62 -80 122q-38 98 -38 206zM568 1748q-2 18 0 34v8q6 46 48 86q42 36 94 36q58 0 96 -54q18 -34 16 -68q-2 -4 -2 -8q-6 -48 -50 -88q-32 -26 -60 -32q-14 -4 -22 -4h-16q-32 0 -64 24q-30 24 -40 66zM948 1782q0 2 2 8q4 46 48 86q40 36 90 36 q62 0 96 -54q22 -34 16 -68v-8q-6 -48 -48 -88q-32 -26 -62 -32q-16 -4 -24 -4h-12q-32 0 -64 24t-40 66q-4 18 -2 34z" />
<glyph unicode="&#xdd;" horiz-adv-x="1334" d="M196 1464h244q10 -10 336 -566q446 542 470 566h254q-158 -190 -636 -758q-20 -176 -78 -704l-2 -2h-196l-4 2q20 176 78 702q2 6 -54 94q-138 222 -412 666zM642 1792v2q102 58 408 234q22 -40 84 -164q-102 -58 -408 -234h-2q-20 40 -82 162z" />
<glyph unicode="&#xde;" horiz-adv-x="1418" d="M88 0q42 366 166 1464h2h190q-6 -56 -24 -222h440q154 0 272 -66q28 -16 60 -44q12 -10 38 -42q76 -100 76 -232q0 -28 -4 -58q-4 -44 -14 -136q-20 -172 -142 -294q-36 -32 -54 -44q-40 -28 -68 -40q-26 -14 -58 -26q-106 -38 -222 -38h-440q-6 -56 -24 -222h-2h-190h-2 zM328 416h432q176 0 268 94q22 26 32 42q28 48 38 124q4 38 14 114q8 82 -14 130q-28 72 -116 106q-62 24 -154 24h-428q-18 -158 -72 -634z" />
<glyph unicode="&#xdf;" horiz-adv-x="1368" d="M94 2q32 278 124 1112q8 72 84 176q144 174 388 174q180 0 298 -72q132 -92 116 -240q-2 -2 -2 -8q-14 -124 -138 -264q-76 -90 -82 -134q-4 -44 128 -114q230 -140 230 -316v-30q-18 -144 -176 -262q-138 -90 -282 -90q-216 0 -346 200q-20 34 -20 40q58 34 174 100 l24 -40q74 -106 188 -106q108 0 200 80q40 46 44 78q10 96 -212 212q-160 102 -144 254q12 104 134 248q80 86 86 144v6q10 100 -204 120q-12 0 -38 2q-168 0 -236 -120q-20 -32 -22 -48q-40 -366 -122 -1102q-2 0 -4 -2h-188z" />
<glyph unicode="&#xe0;" horiz-adv-x="1218" d="M124 414q0 30 4 60q24 222 210 382q156 118 334 118q166 0 272 -128q4 36 12 110l4 2h188l2 -2q-26 -238 -104 -954q-2 0 -4 -2h-188q-2 0 -4 2q4 24 12 96q-126 -122 -302 -122q-220 0 -354 176q-82 120 -82 262zM320 474q-16 -156 108 -258q70 -46 140 -46h22 q96 0 194 78q104 96 120 226q16 160 -110 260q-68 44 -142 44h-16q-120 0 -228 -110q-76 -92 -88 -194zM460 1364q20 40 84 164q102 -58 408 -234v-2q-20 -40 -82 -162v-2q-104 60 -410 236z" />
<glyph unicode="&#xe1;" horiz-adv-x="1218" d="M124 414q0 30 4 60q24 222 210 382q156 118 334 118q166 0 272 -128q4 36 12 110l4 2h188l2 -2q-26 -238 -104 -954q-2 0 -4 -2h-188q-2 0 -4 2q4 24 12 96q-126 -122 -302 -122q-220 0 -354 176q-82 120 -82 262zM320 474q-16 -156 108 -258q70 -46 140 -46h22 q96 0 194 78q104 96 120 226q16 160 -110 260q-68 44 -142 44h-16q-120 0 -228 -110q-76 -92 -88 -194zM460 1294q102 58 410 234q20 -42 82 -162v-4q-102 -58 -408 -234q-22 42 -84 166z" />
<glyph unicode="&#xe2;" horiz-adv-x="1218" d="M124 414q0 30 4 60q24 222 210 382q156 118 334 118q166 0 272 -128q4 36 12 110l4 2h188l2 -2q-26 -238 -104 -954q-2 0 -4 -2h-188q-2 0 -4 2q4 24 12 96q-126 -122 -302 -122q-220 0 -354 176q-82 120 -82 262zM320 474q-16 -156 108 -258q70 -46 140 -46h22 q96 0 194 78q104 96 120 226q16 160 -110 260q-68 44 -142 44h-16q-120 0 -228 -110q-76 -92 -88 -194zM418 1256v2q62 62 250 252h114q10 -14 194 -252q-52 -44 -158 -130q-28 38 -118 152q-38 -38 -150 -152h-2q-32 32 -130 128z" />
<glyph unicode="&#xe3;" horiz-adv-x="1218" d="M124 414q0 30 4 60q24 222 210 382q156 118 334 118q166 0 272 -128q4 36 12 110l4 2h188l2 -2q-26 -238 -104 -954q-2 0 -4 -2h-188q-2 0 -4 2q4 24 12 96q-126 -122 -302 -122q-220 0 -354 176q-82 120 -82 262zM320 474q-16 -156 108 -258q70 -46 140 -46h22 q96 0 194 78q104 96 120 226q16 160 -110 260q-68 44 -142 44h-16q-120 0 -228 -110q-76 -92 -88 -194zM368 1158l18 180q38 42 74 62q54 30 102 30q56 0 152 -58q96 -60 144 -60q44 0 96 34q36 22 82 76q-6 -66 -20 -194q-38 -30 -72 -50q-56 -28 -104 -28q-54 0 -150 56 q-96 58 -146 58q-46 0 -96 -34q-36 -22 -80 -72z" />
<glyph unicode="&#xe4;" horiz-adv-x="1218" d="M124 414q0 30 4 60q24 222 210 382q156 118 334 118q166 0 272 -128q4 36 12 110l4 2h188l2 -2q-26 -238 -104 -954q-2 0 -4 -2h-188q-2 0 -4 2q4 24 12 96q-126 -122 -302 -122q-220 0 -354 176q-82 120 -82 262zM320 474q-16 -156 108 -258q70 -46 140 -46h22 q96 0 194 78q104 96 120 226q16 160 -110 260q-68 44 -142 44h-16q-120 0 -228 -110q-76 -92 -88 -194zM384 1280v8q6 48 48 88q42 34 94 34q60 0 96 -50q18 -36 16 -72q-2 -2 -2 -8q-4 -48 -48 -88q-32 -24 -60 -30q-16 -2 -24 -2h-14q-32 0 -66 22q-30 26 -38 66 q-2 18 -2 32zM764 1280q0 4 2 8q4 48 48 88q42 34 92 34q60 0 94 -50q22 -36 16 -72v-8q-6 -48 -48 -88q-32 -24 -62 -30q-14 -2 -22 -2h-14q-32 0 -64 22q-32 26 -40 66q-4 18 -2 32z" />
<glyph unicode="&#xe5;" horiz-adv-x="1218" d="M124 414q0 30 4 60q24 222 210 382q156 118 334 118q166 0 272 -128q4 36 12 110l4 2h188l2 -2q-26 -238 -104 -954q-2 0 -4 -2h-188q-2 0 -4 2q4 24 12 96q-126 -122 -302 -122q-220 0 -354 176q-82 120 -82 262zM320 474q-16 -156 108 -258q70 -46 140 -46h22 q96 0 194 78q104 96 120 226q16 160 -110 260q-68 44 -142 44h-16q-120 0 -228 -110q-76 -92 -88 -194zM528 1288v10q6 52 46 100q6 8 26 26q56 44 120 44h2q62 0 110 -42q16 -20 22 -26q30 -50 24 -106q-8 -70 -68 -126q-2 -2 -10 -8q-54 -40 -118 -40q-60 0 -106 40 q-16 14 -20 24q-12 16 -18 30q-16 40 -10 74zM638 1294q-6 -30 20 -52q16 -14 38 -14q32 0 54 26q16 18 18 40v2q4 24 -14 44t-44 20t-48 -18q-22 -22 -24 -46v-2z" />
<glyph unicode="&#xe6;" horiz-adv-x="1890" d="M124 414q0 30 4 60q24 222 210 382q156 118 334 118q166 0 272 -128q4 36 12 110l4 2h188l2 -2q-2 -26 -12 -108l28 24q142 102 274 102h30q146 0 268 -118q60 -64 78 -112q48 -102 48 -212q0 -28 -2 -58l-6 -30q-2 -28 -6 -28h-716q10 -106 58 -160q72 -88 176 -88 q128 0 232 132q20 34 24 34q162 -78 164 -80q-18 -36 -74 -104q-166 -174 -366 -174h-4q-170 0 -288 126q-2 -24 -10 -100q-2 0 -4 -2h-188q-2 0 -4 2q4 24 12 96q-126 -122 -302 -122q-220 0 -354 176q-82 120 -82 262zM320 474q-16 -156 108 -258q70 -46 140 -46h22 q96 0 194 78q104 96 120 226q16 160 -110 260q-68 44 -142 44h-16q-120 0 -228 -110q-76 -92 -88 -194zM1172 598h484v2q-10 50 -64 114q-70 66 -160 66q-136 0 -240 -146q-6 -12 -20 -36z" />
<glyph unicode="&#xe7;" d="M86 418q0 24 2 48q2 6 2 16q14 112 80 224q22 32 46 64q20 24 58 62q44 38 76 56q134 86 280 86h2q150 0 270 -94q20 -16 48 -46q32 -38 42 -58q14 -18 14 -22q-58 -34 -174 -106q-8 18 -34 48q-78 84 -190 84q-108 0 -202 -78q-38 -32 -46 -46q-66 -82 -78 -182 q-10 -108 48 -196q20 -28 40 -46q74 -64 172 -64q88 0 170 56q16 10 50 40q20 20 34 40h2q36 -28 148 -106q-20 -28 -52 -62q-38 -36 -54 -46q-34 -26 -62 -42q-100 -58 -206 -70q-4 -10 -12 -42q28 -6 42 -10q60 -26 82 -84q18 -44 12 -88v-6q-8 -66 -60 -124 q-24 -22 -36 -30q-70 -48 -142 -48h-4q-80 0 -144 56q-24 28 -28 34q0 2 -4 6q34 26 138 100q24 -36 56 -36q24 0 46 16q18 14 18 30q0 10 -4 22q-8 4 -22 4h-6q-26 0 -68 -16q-36 -10 -108 -34q22 66 82 260q-76 20 -146 68q-24 18 -40 34q-34 34 -50 56q-36 48 -48 82 q-16 32 -28 84q-12 56 -12 106z" />
<glyph unicode="&#xe8;" horiz-adv-x="1038" d="M88 412q0 30 2 60v4q28 234 224 396q142 102 276 102h28q148 0 270 -118q58 -64 78 -112q46 -102 46 -212q0 -28 -4 -58q0 -10 -2 -30q-4 -28 -6 -28h-718q12 -106 60 -160q70 -88 172 -88q132 0 234 132q20 34 24 34q164 -78 164 -80q-16 -36 -74 -104 q-166 -174 -366 -174h-4q-206 0 -334 184q-70 116 -70 252zM320 598h486v2q-12 50 -66 114q-68 66 -158 66q-136 0 -240 -146q-8 -12 -22 -36zM426 1362v4q20 40 82 162h2q102 -58 408 -234q-20 -42 -84 -166q-102 60 -408 234z" />
<glyph unicode="&#xe9;" horiz-adv-x="1038" d="M88 412q0 30 2 60v4q28 234 224 396q142 102 276 102h28q148 0 270 -118q58 -64 78 -112q46 -102 46 -212q0 -28 -4 -58q0 -10 -2 -30q-4 -28 -6 -28h-718q12 -106 60 -160q70 -88 172 -88q132 0 234 132q20 34 24 34q164 -78 164 -80q-16 -36 -74 -104 q-166 -174 -366 -174h-4q-206 0 -334 184q-70 116 -70 252zM320 598h486v2q-12 50 -66 114q-68 66 -158 66q-136 0 -240 -146q-8 -12 -22 -36zM426 1294q102 58 408 234h2q20 -42 82 -162v-4q-102 -58 -408 -234q-22 42 -84 166z" />
<glyph unicode="&#xea;" horiz-adv-x="1038" d="M88 412q0 30 2 60v4q28 234 224 396q142 102 276 102h28q148 0 270 -118q58 -64 78 -112q46 -102 46 -212q0 -28 -4 -58q0 -10 -2 -30q-4 -28 -6 -28h-718q12 -106 60 -160q70 -88 172 -88q132 0 234 132q20 34 24 34q164 -78 164 -80q-16 -36 -74 -104 q-166 -174 -366 -174h-4q-206 0 -334 184q-70 116 -70 252zM320 598h486v2q-12 50 -66 114q-68 66 -158 66q-136 0 -240 -146q-8 -12 -22 -36zM384 1256v2q62 62 250 252h114q12 -14 196 -252q-54 -44 -160 -130q-28 38 -118 152l-152 -152q-32 32 -130 128z" />
<glyph unicode="&#xeb;" horiz-adv-x="1038" d="M88 412q0 30 2 60v4q28 234 224 396q142 102 276 102h28q148 0 270 -118q58 -64 78 -112q46 -102 46 -212q0 -28 -4 -58q0 -10 -2 -30q-4 -28 -6 -28h-718q12 -106 60 -160q70 -88 172 -88q132 0 234 132q20 34 24 34q164 -78 164 -80q-16 -36 -74 -104 q-166 -174 -366 -174h-4q-206 0 -334 184q-70 116 -70 252zM320 598h486v2q-12 50 -66 114q-68 66 -158 66q-136 0 -240 -146q-8 -12 -22 -36zM350 1280q0 4 2 8q4 48 46 88q42 34 92 34q62 0 96 -50q20 -36 16 -72v-8q-6 -48 -50 -88q-32 -24 -58 -30q-16 -2 -24 -2h-14 q-32 0 -64 22q-32 26 -40 66q-4 18 -2 32zM730 1248q-2 18 0 32v8q6 48 48 88q42 34 94 34q58 0 94 -50q20 -36 18 -72q-2 -2 -2 -8q-6 -48 -48 -88q-32 -24 -62 -30q-16 -2 -24 -2h-14q-32 0 -64 22q-30 26 -40 66z" />
<glyph unicode="&#xec;" horiz-adv-x="528" d="M110 0q26 240 106 958h194q-26 -240 -106 -958h-2h-192zM110 1364l82 164q102 -58 408 -234v-2q-20 -40 -80 -162v-2q-104 60 -410 236z" />
<glyph unicode="&#xed;" horiz-adv-x="528" d="M110 0q26 240 106 958h194q-26 -240 -106 -958h-2h-192zM110 1292v2q102 58 410 234q20 -42 80 -164q-102 -58 -408 -236v2q-22 40 -82 162z" />
<glyph unicode="&#xee;" horiz-adv-x="528" d="M68 1256v2l252 252h112q12 -14 194 -252q-52 -44 -156 -130q-30 38 -118 152l-152 -152h-2q-32 32 -130 128zM110 0q26 240 106 958h194q-26 -240 -106 -958h-2h-192z" />
<glyph unicode="&#xef;" horiz-adv-x="528" d="M54 1270q0 6 2 10v8q6 48 48 88q40 34 92 34q60 0 94 -50q22 -36 18 -72q0 -2 -2 -8q-4 -48 -48 -88q-32 -24 -60 -30q-16 -2 -24 -2h-14q-32 0 -64 22q-32 26 -40 66q-2 12 -2 22zM110 0q26 240 106 958h194q-26 -240 -106 -958h-2h-192zM394 1280q2 4 2 8q4 48 46 88 q44 34 94 34q60 0 96 -50q16 -30 16 -60v-12v-8q-8 -48 -50 -88q-32 -24 -62 -30q-14 -2 -22 -2h-14q-32 0 -64 22q-32 26 -40 66q-4 18 -2 32z" />
<glyph unicode="&#xf0;" horiz-adv-x="1138" />
<glyph unicode="&#xf1;" horiz-adv-x="1054" d="M80 0v2q26 238 106 948l4 2h186l2 -2q-2 -14 -6 -54h2q54 28 138 52q46 10 110 10h10q256 0 346 -196q22 -54 22 -124q0 -28 -2 -56q-22 -192 -66 -580l-4 -2h-186l-2 2q16 146 66 582q12 122 -86 162q-40 20 -106 20h-16q-124 0 -178 -38q-70 -40 -84 -150 q-20 -192 -64 -576l-2 -2h-190zM314 1158q8 60 22 180q40 42 74 62q54 30 102 30q56 0 152 -58q96 -60 144 -60q42 0 96 34q34 22 80 76q-6 -66 -22 -194q-34 -30 -70 -50q-54 -28 -102 -28q-54 0 -150 56q-96 58 -148 58q-44 0 -96 -34q-36 -22 -82 -72z" />
<glyph unicode="&#xf2;" horiz-adv-x="1120" d="M92 418q0 24 2 48q0 6 2 16q12 112 80 224q20 32 46 64q20 24 58 62q54 44 76 56q132 86 278 86q164 0 286 -106q18 -14 48 -50q62 -76 82 -158q18 -62 18 -128q0 -30 -4 -60q-14 -126 -88 -240q-24 -40 -66 -84q-44 -44 -70 -62q-30 -22 -56 -38q-126 -72 -256 -72h-8 q-136 0 -252 80q-22 18 -38 34q-36 32 -52 56q-18 24 -32 52q-18 32 -26 62q-28 80 -28 158zM288 472q-12 -108 48 -198q28 -34 44 -44q72 -62 166 -62q112 0 212 88q38 36 56 64q48 72 58 152v2q12 116 -56 208q-32 36 -42 40q-16 14 -30 22q-62 36 -130 36 q-108 0 -204 -78q-34 -32 -44 -46q-68 -82 -78 -184zM426 1364q20 40 84 164q102 -58 408 -234v-2q-20 -40 -82 -162l-2 -2q-102 60 -408 236z" />
<glyph unicode="&#xf3;" horiz-adv-x="1120" d="M92 418q0 24 2 48q0 6 2 16q12 112 80 224q20 32 46 64q20 24 58 62q54 44 76 56q132 86 278 86q164 0 286 -106q18 -14 48 -50q62 -76 82 -158q18 -62 18 -128q0 -30 -4 -60q-14 -126 -88 -240q-24 -40 -66 -84q-44 -44 -70 -62q-30 -22 -56 -38q-126 -72 -256 -72h-8 q-136 0 -252 80q-22 18 -38 34q-36 32 -52 56q-18 24 -32 52q-18 32 -26 62q-28 80 -28 158zM288 472q-12 -108 48 -198q28 -34 44 -44q72 -62 166 -62q112 0 212 88q38 36 56 64q48 72 58 152v2q12 116 -56 208q-32 36 -42 40q-16 14 -30 22q-62 36 -130 36 q-108 0 -204 -78q-34 -32 -44 -46q-68 -82 -78 -184zM426 1292v2q102 58 408 234q22 -42 84 -164q-102 -58 -408 -236l-2 2q-20 40 -82 162z" />
<glyph unicode="&#xf4;" horiz-adv-x="1120" d="M92 418q0 24 2 48q0 6 2 16q12 112 80 224q20 32 46 64q20 24 58 62q54 44 76 56q132 86 278 86q164 0 286 -106q18 -14 48 -50q62 -76 82 -158q18 -62 18 -128q0 -30 -4 -60q-14 -126 -88 -240q-24 -40 -66 -84q-44 -44 -70 -62q-30 -22 -56 -38q-126 -72 -256 -72h-8 q-136 0 -252 80q-22 18 -38 34q-36 32 -52 56q-18 24 -32 52q-18 32 -26 62q-28 80 -28 158zM288 472q-12 -108 48 -198q28 -34 44 -44q72 -62 166 -62q112 0 212 88q38 36 56 64q48 72 58 152v2q12 116 -56 208q-32 36 -42 40q-16 14 -30 22q-62 36 -130 36 q-108 0 -204 -78q-34 -32 -44 -46q-68 -82 -78 -184zM384 1256v2q64 62 252 252h114q10 -14 194 -252q-52 -44 -158 -130q-30 38 -118 152l-152 -152h-2q-32 32 -130 128z" />
<glyph unicode="&#xf5;" horiz-adv-x="1120" d="M92 418q0 24 2 48q0 6 2 16q12 112 80 224q20 32 46 64q20 24 58 62q54 44 76 56q132 86 278 86q164 0 286 -106q18 -14 48 -50q62 -76 82 -158q18 -62 18 -128q0 -30 -4 -60q-14 -126 -88 -240q-24 -40 -66 -84q-44 -44 -70 -62q-30 -22 -56 -38q-126 -72 -256 -72h-8 q-136 0 -252 80q-22 18 -38 34q-36 32 -52 56q-18 24 -32 52q-18 32 -26 62q-28 80 -28 158zM288 472q-12 -108 48 -198q28 -34 44 -44q72 -62 166 -62q112 0 212 88q38 36 56 64q48 72 58 152v2q12 116 -56 208q-32 36 -42 40q-16 14 -30 22q-62 36 -130 36 q-108 0 -204 -78q-34 -32 -44 -46q-68 -82 -78 -184zM334 1158l18 180q40 42 74 62q54 30 102 30q56 0 152 -58q96 -60 144 -60q44 0 96 34q36 22 82 76q-8 -66 -20 -194q-38 -30 -72 -50q-54 -28 -104 -28q-54 0 -148 56q-96 58 -148 58q-44 0 -96 -34q-36 -22 -80 -72z " />
<glyph unicode="&#xf6;" horiz-adv-x="1120" d="M92 418q0 24 2 48q0 6 2 16q12 112 80 224q20 32 46 64q20 24 58 62q54 44 76 56q132 86 278 86q164 0 286 -106q18 -14 48 -50q62 -76 82 -158q18 -62 18 -128q0 -30 -4 -60q-14 -126 -88 -240q-24 -40 -66 -84q-44 -44 -70 -62q-30 -22 -56 -38q-126 -72 -256 -72h-8 q-136 0 -252 80q-22 18 -38 34q-36 32 -52 56q-18 24 -32 52q-18 32 -26 62q-28 80 -28 158zM288 472q-12 -108 48 -198q28 -34 44 -44q72 -62 166 -62q112 0 212 88q38 36 56 64q48 72 58 152v2q12 116 -56 208q-32 36 -42 40q-16 14 -30 22q-62 36 -130 36 q-108 0 -204 -78q-34 -32 -44 -46q-68 -82 -78 -184zM352 1248q-2 18 0 32v8q6 48 48 88q40 34 92 34q60 0 94 -50q22 -36 16 -72v-8q-4 -48 -48 -88q-32 -24 -60 -30q-16 -2 -24 -2h-14q-32 0 -64 22q-32 26 -40 66zM730 1280v8q6 48 48 88q44 34 94 34q60 0 96 -50 q18 -36 16 -72v-8q-8 -48 -50 -88q-32 -24 -62 -30q-14 -2 -22 -2h-14q-32 0 -64 22q-32 26 -40 66q-4 18 -2 32z" />
<glyph unicode="&#xf7;" horiz-adv-x="826" d="M60 414q6 48 20 194h710q0 -2 2 -2q-6 -48 -22 -190q0 -2 -2 -2h-708zM266 208q6 48 46 88q44 38 90 38h8q46 0 84 -38q32 -40 26 -86v-6q-8 -50 -52 -92q-44 -32 -84 -32h-8q-50 0 -88 44q-26 38 -22 84zM334 814q4 50 44 88q46 38 92 38h8q46 0 82 -36q32 -40 26 -86 v-8q-6 -50 -50 -90q-44 -32 -86 -32h-8q-50 0 -86 42q-28 38 -22 84z" />
<glyph unicode="&#xf8;" horiz-adv-x="1240" d="M82 98v2q32 28 124 110q-14 26 -22 50q-34 104 -24 206q0 6 2 16q12 112 80 224q20 32 46 64q18 24 58 62q54 44 76 56q132 86 278 86t260 -86l112 104h2q32 -34 122 -136h-2q-28 -26 -114 -104q24 -46 36 -92q26 -90 14 -188q-14 -126 -88 -240q-26 -40 -66 -84 q-44 -44 -70 -62q-28 -22 -56 -38q-126 -72 -256 -72h-8q-136 0 -252 80q-6 6 -14 10q-38 -34 -114 -104h-2q-30 34 -122 136zM354 472q-8 -62 12 -118q146 132 436 396q-58 30 -122 30q-106 0 -204 -78q-34 -32 -44 -46q-66 -82 -78 -184zM476 208q60 -40 136 -40 q114 0 212 88q38 36 56 64q48 72 56 152v2q8 72 -14 134q-112 -100 -446 -400z" />
<glyph unicode="&#xf9;" horiz-adv-x="1062" d="M96 320q0 28 2 56q22 192 66 578q0 2 4 4h186l4 -4q-18 -144 -68 -580q-12 -124 86 -162q40 -20 106 -20h16q124 0 178 40q70 40 84 146q22 192 64 576q0 2 2 4h190v-4q-26 -236 -106 -946l-2 -2h-188l-2 2l8 64h-2q-56 -38 -140 -62q-46 -10 -110 -10h-10 q-256 0 -346 194q-22 56 -22 126zM386 1362v4q20 40 82 162q102 -58 410 -234q-20 -42 -84 -166q-102 60 -408 234z" />
<glyph unicode="&#xfa;" horiz-adv-x="1062" d="M96 320q0 28 2 56q22 192 66 578q0 2 4 4h186l4 -4q-18 -144 -68 -580q-12 -124 86 -162q40 -20 106 -20h16q124 0 178 40q70 40 84 146q22 192 64 576q0 2 2 4h190v-4q-26 -236 -106 -946l-2 -2h-188l-2 2l8 64h-2q-56 -38 -140 -62q-46 -10 -110 -10h-10 q-256 0 -346 194q-22 56 -22 126zM386 1292v2q102 58 408 234q22 -42 84 -164q-102 -58 -410 -236v2q-20 40 -82 162z" />
<glyph unicode="&#xfb;" horiz-adv-x="1062" d="M96 320q0 28 2 56q22 192 66 578q0 2 4 4h186l4 -4q-18 -144 -68 -580q-12 -124 86 -162q40 -20 106 -20h16q124 0 178 40q70 40 84 146q22 192 64 576q0 2 2 4h190v-4q-26 -236 -106 -946l-2 -2h-188l-2 2l8 64h-2q-56 -38 -140 -62q-46 -10 -110 -10h-10 q-256 0 -346 194q-22 56 -22 126zM344 1256v2q64 62 252 252h114q10 -14 194 -252q-54 -44 -160 -130q-28 38 -116 152q-38 -38 -154 -152q-32 32 -130 128z" />
<glyph unicode="&#xfc;" horiz-adv-x="1062" d="M96 320q0 28 2 56q22 192 66 578q0 2 4 4h186l4 -4q-18 -144 -68 -580q-12 -124 86 -162q40 -20 106 -20h16q124 0 178 40q70 40 84 146q22 192 64 576q0 2 2 4h190v-4q-26 -236 -106 -946l-2 -2h-188l-2 2l8 64h-2q-56 -38 -140 -62q-46 -10 -110 -10h-10 q-256 0 -346 194q-22 56 -22 126zM312 1248q-2 18 0 32v8q6 48 48 88q42 34 94 34q58 0 94 -50q20 -36 16 -72v-8q-6 -48 -50 -88q-32 -24 -60 -30q-14 -2 -22 -2h-16q-32 0 -64 22q-32 26 -40 66zM692 1280v8q6 48 48 88q42 34 92 34q62 0 96 -50q20 -36 16 -72v-8 q-6 -48 -48 -88q-32 -24 -62 -30q-16 -2 -24 -2h-12q-32 0 -66 22q-30 26 -38 66q-4 18 -2 32z" />
<glyph unicode="&#xfd;" horiz-adv-x="1188" d="M78 958h220l6 -20q36 -112 106 -338q28 -88 112 -358q6 6 220 404l162 312h244q-66 -122 -268 -488q-58 -104 -234 -410q-58 -106 -230 -422q-10 -18 -40 -70h-222v2q60 108 238 430q-36 112 -146 448q-38 114 -150 454q-6 14 -18 56zM394 1292v2q104 58 410 234 q20 -42 84 -164q-104 -58 -410 -236v2q-22 40 -84 162z" />
<glyph unicode="&#xfe;" horiz-adv-x="1206" d="M70 -400l208 1864h2h192q-18 -154 -70 -616q40 40 50 44q34 22 56 36q34 16 66 24q24 8 82 18q16 0 42 2q144 0 252 -70q28 -20 68 -60q34 -36 42 -50q20 -32 36 -62q42 -92 42 -196q0 -30 -2 -62q-20 -166 -136 -304q-16 -20 -60 -62q-6 -4 -20 -14q-152 -116 -326 -116 q-126 0 -220 72q-16 12 -46 42q-4 4 -10 12q-14 -126 -56 -502h-192zM358 454q-4 -30 6 -82q8 -34 20 -60q12 -22 36 -54q28 -30 38 -36q22 -16 40 -28q60 -26 110 -26h14q88 0 174 60q14 10 44 36q54 56 78 118q18 44 24 92q12 114 -52 204q-28 34 -34 38q-72 62 -170 62 h-8q-54 0 -120 -26q-32 -16 -74 -48q-40 -38 -50 -52q-18 -22 -28 -42q-12 -18 -26 -50q-14 -46 -18 -66q-2 -14 -4 -40z" />
<glyph unicode="&#xff;" horiz-adv-x="1188" d="M78 958h220l6 -20q36 -112 106 -338q28 -88 112 -358q6 6 220 404l162 312h244q-66 -122 -268 -488q-58 -104 -234 -410q-58 -106 -230 -422q-10 -18 -40 -70h-222v2q60 108 238 430q-36 112 -146 448q-38 114 -150 454q-6 14 -18 56zM320 1248q-2 18 0 32v8q6 48 48 88 q42 34 94 34q58 0 94 -50q20 -36 16 -72q0 -2 -2 -8q-4 -48 -48 -88q-32 -24 -60 -30q-14 -2 -22 -2h-16q-32 0 -64 22q-32 26 -40 66zM698 1280q2 4 2 8q4 48 48 88q42 34 92 34q62 0 96 -50q20 -36 16 -72v-8q-6 -48 -48 -88q-32 -24 -62 -30q-16 -2 -24 -2h-12 q-32 0 -64 22q-32 26 -40 66q-4 18 -4 32z" />
<glyph unicode="&#x152;" horiz-adv-x="2212" d="M118 648q0 40 4 84l2 2q28 316 284 548q24 18 74 54q202 134 422 128h4q290 0 484 -228q170 -220 140 -504q-30 -314 -286 -544q-230 -188 -490 -188h-8q-264 0 -452 188q-84 96 -104 146q-74 148 -74 314zM316 734q-26 -238 134 -412q134 -128 318 -128q240 0 430 212 q118 152 138 318v14q24 204 -102 368q-142 166 -346 166q-232 0 -420 -198q-134 -158 -152 -340zM1296 2q42 366 164 1462l2 2h786v-2q-4 -48 -20 -192h-596q-12 -110 -50 -442h472v-2q-4 -46 -20 -190h-2h-472q-12 -110 -48 -444h594q-4 -48 -22 -192h-786h-2z" />
<glyph unicode="&#x153;" horiz-adv-x="1844" d="M92 418q0 24 2 48q0 6 2 16q12 112 80 224q20 32 46 64q20 24 58 60q54 46 76 58q132 86 278 86q164 0 286 -106q18 -14 48 -50q60 -78 82 -158q24 -90 14 -188q-14 -124 -88 -240q-24 -38 -66 -84q-44 -44 -70 -64q-30 -22 -54 -36q-128 -72 -256 -72h-10 q-136 0 -252 80q-22 18 -40 34q-34 34 -50 56q-16 24 -32 52q-16 32 -26 62q-28 80 -28 158zM288 472q-12 -108 50 -198q26 -34 42 -46q72 -60 166 -60q112 0 210 86q40 38 58 64q48 74 58 154v4q12 114 -58 206q-28 36 -40 40q-16 16 -30 22q-60 36 -132 36 q-106 0 -202 -78q-34 -32 -44 -48q-66 -80 -78 -182zM906 472v4q26 234 224 396q142 102 276 102h28q146 0 268 -118q60 -64 80 -112q46 -102 46 -212q0 -28 -4 -58q0 -10 -2 -30q-4 -28 -8 -28h-716q12 -106 58 -160q72 -86 174 -86q130 0 234 130q20 34 24 34 q162 -78 164 -80q-18 -34 -74 -104q-166 -174 -366 -174h-4q-206 0 -334 184q-86 142 -68 312zM1136 598h486v2q-12 50 -66 116q-68 64 -158 64q-138 0 -242 -144q-6 -14 -20 -38z" />
<glyph unicode="&#x2c6;" horiz-adv-x="758" d="M300 1758q62 62 252 250h112q10 -14 194 -250q-52 -42 -156 -128q-30 38 -118 152l-152 -152h-2q-32 32 -130 128z" />
<glyph unicode="&#x2000;" horiz-adv-x="1014" />
<glyph unicode="&#x2001;" horiz-adv-x="2028" />
<glyph unicode="&#x2002;" horiz-adv-x="1014" />
<glyph unicode="&#x2003;" horiz-adv-x="2028" />
<glyph unicode="&#x2004;" horiz-adv-x="676" />
<glyph unicode="&#x2005;" horiz-adv-x="507" />
<glyph unicode="&#x2006;" horiz-adv-x="338" />
<glyph unicode="&#x2007;" horiz-adv-x="338" />
<glyph unicode="&#x2008;" horiz-adv-x="253" />
<glyph unicode="&#x2009;" horiz-adv-x="405" />
<glyph unicode="&#x200a;" horiz-adv-x="112" />
<glyph unicode="&#x2010;" horiz-adv-x="946" d="M104 414q6 48 22 194h706v-2q-6 -48 -22 -190v-2h-706z" />
<glyph unicode="&#x2011;" horiz-adv-x="946" d="M104 414q6 48 22 194h706v-2q-6 -48 -22 -190v-2h-706z" />
<glyph unicode="&#x2012;" horiz-adv-x="946" d="M104 414q6 48 22 194h706v-2q-6 -48 -22 -190v-2h-706z" />
<glyph unicode="&#x2013;" horiz-adv-x="1382" d="M96 376q4 48 20 192h1148h2q-6 -48 -20 -192h-4h-1146z" />
<glyph unicode="&#x2014;" horiz-adv-x="2266" d="M104 414q17 48 62 194h1986v-2q-17 -48 -62 -190v-2h-1986z" />
<glyph unicode="&#x2018;" horiz-adv-x="648" d="M192 1308v26q18 156 222 322q56 46 72 54q14 -22 42 -68q-140 -118 -150 -210q44 -20 60 -64q10 -24 8 -56q-6 -64 -70 -104q-32 -22 -72 -22q-64 0 -98 56q-14 26 -14 66z" />
<glyph unicode="&#x2019;" horiz-adv-x="648" d="M120 1252q140 118 152 212q-46 18 -62 62q-10 26 -8 58q6 62 70 104q32 22 74 22q62 0 96 -56q14 -28 14 -68v-26q-18 -156 -222 -320q-56 -48 -72 -54z" />
<glyph unicode="&#x201a;" horiz-adv-x="584" d="M64 -212q142 118 152 212q-44 18 -60 62q-12 26 -10 58q8 62 70 104q34 22 74 22q62 0 96 -56q16 -28 16 -68q0 -12 -2 -26q-16 -156 -222 -320q-54 -48 -70 -54q-14 22 -44 66z" />
<glyph unicode="&#x201c;" horiz-adv-x="1128" d="M232 1308v26q18 156 222 322q56 46 72 54q14 -22 42 -68q-140 -118 -150 -210q44 -20 60 -64q10 -24 8 -56q-6 -64 -70 -104q-32 -22 -72 -22q-64 0 -98 56q-14 26 -14 66zM632 1334q18 156 222 322q56 46 72 54q14 -22 42 -68q-140 -118 -150 -210q44 -20 60 -64 q10 -24 8 -56q-6 -64 -70 -104q-32 -22 -72 -22q-64 0 -98 56q-20 36 -14 92z" />
<glyph unicode="&#x201d;" horiz-adv-x="1128" d="M160 1252q140 118 152 212q-46 18 -62 62q-10 26 -8 58q6 62 70 104q32 22 74 22q62 0 96 -56q20 -36 14 -94q-18 -156 -222 -320q-56 -48 -72 -54zM560 1252q140 118 152 212q-46 18 -62 62q-10 26 -8 58q6 62 70 104q32 22 74 22q62 0 96 -56q14 -28 14 -68v-26 q-18 -156 -222 -320q-56 -48 -72 -54z" />
<glyph unicode="&#x201e;" horiz-adv-x="984" d="M64 -212q142 118 152 212q-44 18 -60 62q-12 26 -10 58q8 62 70 104q34 22 74 22q62 0 96 -56q20 -36 14 -94q-16 -156 -222 -320q-54 -48 -70 -54q-14 22 -44 66zM464 -212q142 118 152 212q-44 18 -60 62q-12 26 -10 58q8 62 70 104q34 22 74 22q62 0 96 -56 q16 -28 16 -68q0 -12 -2 -26q-16 -156 -222 -320q-54 -48 -70 -54q-14 22 -44 66z" />
<glyph unicode="&#x2026;" horiz-adv-x="1340" d="M74 110v12q2 2 2 8q4 46 46 86q44 36 94 36q60 0 96 -52q18 -34 16 -70v-8q-8 -48 -50 -88q-32 -26 -60 -32q-16 -2 -24 -2h-14q-32 0 -64 24q-30 24 -40 64q-2 12 -2 22zM502 88q-4 18 0 34v8q4 46 48 86q42 36 92 36q60 0 94 -52q22 -34 18 -70q0 -2 -2 -8 q-6 -48 -48 -88q-32 -26 -60 -32q-16 -2 -24 -2h-14q-32 0 -64 24q-30 24 -40 64zM928 90q-2 18 0 32v8q6 48 48 88q40 36 92 36q60 0 94 -54q18 -28 18 -60v-10q0 -2 -2 -8q-4 -48 -48 -88q-32 -24 -60 -30q-16 -4 -24 -4h-14q-32 0 -64 24t-40 66z" />
<glyph unicode="&#x202f;" horiz-adv-x="405" />
<glyph unicode="&#x2039;" horiz-adv-x="836" d="M148 400v2q2 34 14 134q94 62 376 242q14 10 52 34q6 -6 50 -84q14 -24 44 -74l-288 -184l248 -184q-122 -152 -128 -158q-122 90 -368 272z" />
<glyph unicode="&#x203a;" horiz-adv-x="834" d="M150 286q96 62 286 184q-62 46 -246 184q16 18 60 74q62 78 68 84h2q10 -8 42 -34q82 -60 326 -242q-4 -32 -16 -134v-2q-108 -68 -430 -272q-4 6 -92 158z" />
<glyph unicode="&#x205f;" horiz-adv-x="507" />
<glyph unicode="&#x20ac;" horiz-adv-x="1480" d="M52 436q6 48 22 192q0 2 2 2h60q0 20 4 40v4h-60h-2q6 48 22 192v2h90q20 48 46 90q34 58 86 120q24 30 70 72q58 52 84 68q54 38 106 64q174 86 360 86q202 0 370 -106q36 -22 76 -58q8 -6 18 -16q0 -2 -142 -146q-52 48 -100 74q-114 56 -238 56h-12q-142 0 -282 -72 q-154 -88 -236 -232h876v-2q-6 -48 -22 -192h-916q-2 -22 -2 -44h914v-2q-6 -48 -22 -192h-854q72 -154 236 -224q96 -40 198 -40h10q144 0 282 74q32 18 66 42q6 4 20 14q96 -126 112 -144q-62 -48 -96 -66q-66 -40 -144 -68q-132 -46 -266 -46q-208 0 -378 110 q-38 24 -84 66q-20 18 -50 50q-42 54 -64 94q-32 56 -50 120l-4 18h-104h-2z" />
<glyph unicode="&#x2122;" horiz-adv-x="2786" d="M334 1272q6 48 22 192h2h970q-6 -48 -22 -192h-388q-28 -244 -110 -972h-194q28 242 110 972h-388h-2zM1326 300q32 290 130 1164h2h220q46 -96 190 -388q40 -84 164 -334q2 -6 10 -22h2q66 94 268 374q66 92 264 370h220q-32 -292 -130 -1164h-202q22 204 92 818 q-10 -12 -212 -294q-214 -296 -222 -310l-36 -48h-144q0 2 -64 130q-62 128 -186 380q-8 16 -70 142q-32 -272 -92 -818h-204z" />
<glyph unicode="&#x25fc;" horiz-adv-x="960" d="M0 0v960h960v-960h-960z" />
<glyph unicode="&#xfb01;" horiz-adv-x="1122" d="M14 766q6 48 22 192h2h184v4q30 262 190 398q60 50 118 72q80 32 156 32h58q-6 -48 -22 -192v-2h-50q-130 0 -200 -120q-42 -74 -56 -192h270q-4 -48 -20 -192h-2h-270q-22 -192 -86 -764q0 -2 -2 -2h-192q22 192 86 766h-184h-2zM704 2q28 238 108 956h194 q-28 -240 -108 -956v-2h-192q-2 0 -2 2zM824 1334q2 2 2 8q4 46 46 86q6 4 16 14q38 22 74 22h8q44 0 78 -34q30 -34 30 -76v-12q0 -2 -2 -6q-4 -46 -42 -86q-44 -38 -94 -38h-6q-46 0 -80 34q-18 22 -24 40q-8 24 -6 48z" />
<glyph unicode="&#xfb02;" horiz-adv-x="1126" d="M14 766q6 48 22 192h2h184v4q30 262 190 398q60 50 118 72q80 32 156 32h58q-6 -48 -22 -192v-2h-50q-130 0 -200 -120q-42 -74 -56 -192h270q-4 -48 -20 -192h-2h-270q-22 -192 -86 -764q0 -2 -2 -2h-192q22 192 86 766h-184h-2zM722 0q42 366 164 1462l2 2h192v-2 q-42 -366 -164 -1462h-2h-190h-2z" />
</font>
</defs>
</svg>
