<?xml version="1.0" standalone="no"?>
<!DOCTYPE svg PUBLIC "-//W3C//DTD SVG 1.1//EN" "http://www.w3.org/Graphics/SVG/1.1/DTD/svg11.dtd" >
<svg xmlns="http://www.w3.org/2000/svg" xmlns:xlink="http://www.w3.org/1999/xlink" version="1.1">
<metadata></metadata>
<defs>
<font id="louis_george_caferegular" horiz-adv-x="1174" >
<font-face units-per-em="2048" ascent="1638" descent="-410" />
<missing-glyph horiz-adv-x="508" />
<glyph horiz-adv-x="0" />
<glyph horiz-adv-x="0" />
<glyph unicode="&#xd;" horiz-adv-x="0" />
<glyph unicode=" "  horiz-adv-x="508" />
<glyph unicode="&#x09;" horiz-adv-x="508" />
<glyph unicode="&#xa0;" horiz-adv-x="508" />
<glyph unicode="!" horiz-adv-x="656" d="M266 96v8q0 38 32 70q30 26 68 26h2q42 0 74 -34q24 -30 24 -62v-6q0 -42 -36 -74q-30 -24 -64 -24q-38 0 -70 28q-30 32 -30 68zM276 1464h2h178q-6 -286 -20 -1138h-140q-6 284 -20 1138z" />
<glyph unicode="&#x22;" horiz-adv-x="804" d="M160 1100v400h138v-400h-138zM430 1100v400h138v-400h-138z" />
<glyph unicode="#" horiz-adv-x="952" d="M36 452v138l2 2h154q10 58 40 238h-144v2v136v2h168q16 92 62 368h2q34 -4 136 -22v-2l-56 -344h228q14 90 60 358q136 -22 138 -22q-18 -112 -56 -336h146v-140h-170q-10 -60 -40 -238h158v-2v-138v-2h-182q-16 -104 -68 -416q-36 6 -140 24q18 98 68 392h-230 q-18 -100 -68 -406q-34 6 -138 24q16 96 64 382h-132zM336 592h228q10 58 40 238h-228q-10 -60 -40 -238z" />
<glyph unicode="$" horiz-adv-x="1056" d="M98 318l126 60q18 -40 46 -78q36 -40 56 -54q40 -30 66 -40q66 -28 134 -28h6q98 0 184 54q16 12 38 34q28 36 38 56q20 48 20 96q0 92 -78 154q-22 14 -38 22q-22 10 -54 18q-42 10 -128 30q-124 32 -202 70q-30 14 -68 38q-22 16 -44 40q-74 78 -74 184v14q0 86 50 172 q14 24 44 58q36 36 52 44q30 22 62 38q18 10 52 20q54 16 64 16v124l2 2h138q2 0 2 -2v-118q66 -10 114 -30q70 -26 134 -84q36 -36 44 -52q28 -34 36 -52q-92 -46 -124 -64q-6 8 -14 24q-12 16 -32 34q-88 86 -208 86h-6q-100 0 -174 -50q-60 -40 -86 -112q-8 -30 -8 -60 v-2q0 -70 48 -108q32 -24 66 -38q84 -40 284 -82q52 -14 88 -30q34 -16 70 -42q16 -12 38 -36q32 -36 46 -58q44 -76 44 -168q0 -132 -86 -238q-28 -30 -46 -44q-38 -28 -64 -42t-68 -28q-28 -12 -78 -20q-6 -2 -18 -2v-140l-2 -2h-138q0 2 -2 2v142q-38 6 -68 16 q-48 16 -86 36q-32 18 -74 50q-36 36 -54 58q-44 54 -60 90q-10 20 -10 22zM452 -76v1524h138h2v-1524l-2 -2h-138v2z" />
<glyph unicode="%" horiz-adv-x="1440" d="M94 1142v12q0 84 52 160q12 14 38 44q86 70 184 70h8q96 0 178 -68q32 -30 42 -42q56 -78 56 -168q0 -114 -84 -200q-6 -4 -16 -14q-80 -66 -182 -66q-98 0 -178 66q-24 22 -36 38q-20 26 -32 48q-30 62 -30 120zM184 0q230 358 916 1432h160q-228 -358 -916 -1432h-160z M248 1148q0 -58 48 -98q36 -26 74 -26q62 0 102 50q24 34 24 74v4q0 48 -36 86q-38 36 -88 36t-88 -34q-36 -40 -36 -90v-2zM790 270v6q0 98 68 180q34 36 52 44q74 52 160 52q114 0 202 -86q4 -4 10 -12q68 -80 68 -182q0 -114 -86 -200q-36 -34 -58 -44q-64 -36 -134 -36 h-8q-88 0 -168 64q-32 24 -48 46q-58 78 -58 168zM944 272q0 -64 58 -106q32 -20 70 -20q58 0 100 54q22 34 22 66v10q0 52 -44 92q-38 30 -78 30h-6q-52 0 -92 -46q-30 -36 -30 -80z" />
<glyph unicode="&#x26;" horiz-adv-x="1194" d="M100 336v14q0 72 22 136q14 36 40 76q22 30 54 70q40 44 80 80q48 40 80 66q32 22 72 48q-48 80 -96 164q-22 34 -32 66q-14 46 -14 96q0 90 52 156q4 12 42 44q22 22 40 32q86 54 184 54q90 0 180 -52q82 -50 116 -138q16 -50 16 -106q0 -70 -30 -124q-12 -24 -34 -50 q-14 -18 -48 -52q-60 -54 -96 -76q-46 -32 -88 -58q118 -184 266 -402q38 36 102 106q34 -32 100 -94q-8 -8 -30 -32q-34 -38 -92 -96q32 -46 98 -142l-112 -80q-46 68 -90 130q-66 -52 -122 -84q-154 -88 -302 -88h-16q-122 0 -210 66q-16 8 -48 44q-56 60 -78 156 q-6 38 -6 70zM238 342q0 -126 104 -182q34 -16 44 -16q22 -8 62 -8h2q174 0 354 150q-88 128 -196 290q-28 46 -86 136h-2q-50 -34 -104 -80q-24 -18 -62 -54q-42 -42 -60 -66q-44 -64 -50 -102q-6 -34 -6 -66v-2zM444 1148q0 -44 20 -78q40 -70 98 -166q2 -2 4 -6 q50 30 86 56q36 24 82 64q34 38 44 54q16 24 20 44q2 6 2 20v10q0 70 -48 110q-30 24 -86 38q-20 6 -42 6q-78 0 -138 -54q-24 -24 -28 -36q-14 -20 -14 -58v-4z" />
<glyph unicode="'" horiz-adv-x="432" d="M128 1100v400h142v-400h-142z" />
<glyph unicode="(" horiz-adv-x="754" d="M134 622v72q0 384 160 650q122 182 274 182h32q0 -2 2 -4v-134l-2 -2h-32q-98 0 -192 -178q-104 -224 -104 -512v-74q0 -324 128 -556q84 -136 168 -136h32l2 -2v-134l-2 -2h-36q-150 0 -276 188q-154 266 -154 642z" />
<glyph unicode=")" horiz-adv-x="754" d="M152 -72l2 2h32q84 0 168 136q128 232 128 556v74q0 288 -106 512q-92 178 -192 178h-30l-2 2v134l2 4q24 -4 38 -4q16 -2 54 -8q56 -20 104 -52q48 -34 112 -118q160 -266 160 -650v-72q0 -376 -156 -642q-126 -188 -276 -188h-36l-2 2v134z" />
<glyph unicode="*" horiz-adv-x="1024" d="M158 1208q16 42 46 130h2q58 -20 234 -82v248h138v-248q60 20 236 82q44 -128 46 -130v-2q-58 -20 -236 -84q38 -50 146 -198q-28 -20 -112 -84h-2q-36 52 -146 202q-38 -50 -150 -202q-28 22 -112 84q36 50 144 198q-4 2 -234 86z" />
<glyph unicode="+" horiz-adv-x="830" d="M70 420v140h284v286h142v-286h284v-140h-284v-284h-142v284h-284z" />
<glyph unicode="," horiz-adv-x="494" d="M82 -168q102 96 102 168q-36 16 -52 48q-12 22 -12 46q0 50 46 82q24 16 56 16q50 0 82 -42q16 -30 16 -74q0 -124 -144 -252q-40 -38 -54 -42q-12 16 -40 50z" />
<glyph unicode="-" horiz-adv-x="864" d="M76 420v140h706v-140h-706z" />
<glyph unicode="." horiz-adv-x="502" d="M152 96v8q0 38 32 70q30 26 66 26h2q44 0 76 -34q24 -30 24 -62v-6q0 -42 -38 -74q-28 -24 -64 -24q-38 0 -68 28q-30 32 -30 68z" />
<glyph unicode="/" horiz-adv-x="676" d="M0 -50l512 1424h2h140l-512 -1424h-142z" />
<glyph unicode="0" horiz-adv-x="1346" d="M104 682v14q0 266 166 480q176 200 398 200h10q204 0 372 -172q192 -218 192 -516q0 -296 -192 -514q-168 -174 -378 -174q-234 0 -408 210q-160 208 -160 472zM244 682q0 -212 128 -386q132 -158 302 -158q182 0 318 182q112 166 112 368q0 208 -116 376 q-134 176 -316 176q-180 0 -318 -182q-110 -164 -110 -364v-12z" />
<glyph unicode="1" horiz-adv-x="656" d="M150 1210v138l2 2h286q0 -2 2 -2v-1356l-2 -2h-136q-2 0 -2 2v1218h-148h-2z" />
<glyph unicode="2" horiz-adv-x="998" d="M98 954v6q0 64 28 154q20 56 46 98q16 26 44 54q108 116 284 116q202 0 318 -166q36 -50 56 -118q24 -68 24 -140q0 -108 -50 -192q-82 -96 -248 -286l-264 -304q-10 -12 -42 -52h602v-140h-782v148q0 2 10 12q84 96 252 290q58 68 238 276q30 34 120 138q24 50 24 110 q0 98 -60 184q-72 98 -194 98h-8q-172 0 -234 -160q-10 -30 -20 -78q-4 -32 -4 -48h-140z" />
<glyph unicode="3" horiz-adv-x="1052" d="M90 338v6h2h138h2q0 -96 64 -176q24 -30 40 -40q80 -62 176 -62h2q100 0 182 64q32 30 42 46q60 78 60 168q0 96 -64 176q-26 30 -44 42q-26 20 -46 30q-62 32 -126 32h-102v138v2h126q34 4 60 12q32 10 62 32q14 8 38 32q28 36 36 58q24 48 24 104q0 90 -60 162 q-30 28 -38 34q-64 44 -136 44h-2q-82 0 -150 -56q-86 -74 -86 -188v-4h-138v12q0 120 72 224q12 16 44 50q28 24 50 38q98 64 208 64q138 0 248 -94q34 -30 44 -46q30 -40 44 -66q42 -82 42 -170v-6q0 -134 -90 -242q-32 -38 -54 -54q-10 -8 -14 -8q20 -14 56 -46 q32 -30 48 -50q86 -116 86 -256q0 -144 -94 -264q-16 -18 -44 -46q-38 -34 -66 -48q-102 -60 -212 -60h-14q-98 0 -194 50q-34 18 -72 50q-40 36 -56 56q-24 30 -36 52q-14 26 -32 66q-26 72 -26 138z" />
<glyph unicode="4" horiz-adv-x="1110" d="M24 224q54 94 214 378l240 424q40 70 158 280q8 12 28 52h150v-2v-994h192v-138h-2h-190v-232h-140v232h-650zM264 362h410v726l-200 -352q-52 -94 -210 -374z" />
<glyph unicode="5" horiz-adv-x="1146" d="M80 222q44 20 128 58q16 -34 40 -70q14 -18 40 -44q40 -36 70 -52q84 -48 176 -48h8q110 0 210 70q16 12 48 42l18 24q24 32 38 56q40 80 40 166q0 132 -88 236q-22 26 -40 40q-104 84 -232 84q-102 0 -194 -56l-126 -72q26 100 102 398q18 74 76 302v2h542v-2v-140h-432 q-2 -10 -10 -42q-18 -66 -68 -262q56 14 112 14q156 0 288 -94q24 -16 64 -54q38 -40 56 -66q92 -132 92 -288q0 -158 -94 -290q-18 -26 -54 -62q-42 -40 -68 -58q-48 -32 -86 -46q-96 -42 -190 -42h-18q-88 0 -184 38q-40 18 -82 44q-28 16 -72 56q-42 46 -54 64 q-26 34 -40 64q-14 22 -16 30z" />
<glyph unicode="6" horiz-adv-x="1154" d="M96 408v14q0 106 52 212q12 26 98 170l258 444q18 32 76 130q30 -16 122 -68q-62 -106 -246 -422q62 16 120 16h8q140 0 266 -84q30 -20 64 -52q36 -34 54 -60q26 -40 40 -68q56 -110 56 -218v-14q0 -120 -64 -238q-18 -32 -48 -68q-14 -18 -48 -52q-68 -58 -146 -90 q-86 -34 -180 -34q-156 0 -290 98q-22 16 -56 50q-42 46 -62 78q-28 48 -44 96q-30 80 -30 160zM236 412q0 -112 70 -208q12 -18 42 -46q102 -92 230 -92t230 88q34 36 42 46q72 96 72 214q0 140 -98 246q-30 28 -48 40q-88 62 -196 62q-126 0 -228 -88q-32 -28 -40 -42 q-76 -96 -76 -216v-4z" />
<glyph unicode="7" horiz-adv-x="938" d="M54 1216v2v138v2h832q0 -2 2 -2v-132q-42 -78 -168 -314q-58 -110 -230 -434q-52 -98 -208 -394q-16 -28 -60 -114q-6 0 -124 64q84 158 250 474q48 90 188 356l152 284q32 64 34 70h-668z" />
<glyph unicode="8" horiz-adv-x="1082" d="M98 352v16q0 100 56 200q60 104 160 160q-16 12 -48 46q-26 32 -42 58q-50 88 -50 186q0 132 86 238q38 40 52 48q24 20 42 30q88 50 184 50h6q110 0 208 -64q18 -14 52 -46q38 -42 52 -66q52 -88 52 -190q0 -130 -84 -234q-32 -38 -52 -50q-2 -2 -4 -6q24 -10 60 -40 q36 -32 58 -58q98 -120 98 -270q0 -156 -106 -280q-38 -40 -48 -48q-44 -34 -74 -50q-102 -54 -206 -54h-16q-96 0 -196 48q-34 16 -74 46q-18 16 -42 40q-46 50 -68 90q-14 24 -26 50q-30 78 -30 150zM240 360q0 -98 62 -178q26 -30 48 -48q86 -64 188 -64h6q110 0 200 74 q32 30 38 40q60 80 60 176q0 106 -74 192q-32 32 -50 42q-80 56 -176 56q-114 0 -204 -74q-34 -34 -40 -46q-20 -24 -34 -56q-24 -56 -24 -114zM314 1018q0 -90 68 -162q68 -64 160 -64q96 0 164 72q62 68 62 152v4q0 84 -62 152q-70 74 -164 74q-92 0 -160 -68t-68 -160z " />
<glyph unicode="9" horiz-adv-x="1150" d="M92 888v16q0 106 52 214q18 36 50 80q16 20 40 44q46 44 68 56q36 26 74 44q96 42 192 42h16q110 0 216 -56q38 -18 78 -50q44 -38 74 -76q36 -46 50 -76q20 -36 36 -86q20 -72 20 -136v-16q0 -126 -68 -246q-48 -82 -144 -248q-64 -108 -252 -432q-2 -4 -10 -16 q-118 68 -120 70q74 128 222 382q2 6 14 24v2h-2q-60 -16 -122 -16q-158 0 -290 96q-22 16 -52 46q-46 48 -64 80q-24 34 -36 68q-42 96 -42 190zM232 894q0 -120 78 -220q26 -32 56 -56q96 -72 210 -72q122 0 222 84q28 26 40 40q82 100 82 226t-84 226q-28 32 -46 46 q-96 76 -214 76h-2q-120 0 -222 -84q-32 -30 -40 -42q-80 -100 -80 -222v-2z" />
<glyph unicode=":" horiz-adv-x="538" d="M186 96v8q0 38 34 70q28 26 66 26h2q42 0 74 -34q24 -30 24 -62v-6q0 -42 -36 -74q-28 -24 -64 -24q-38 0 -70 28q-30 32 -30 68zM186 846v8q0 40 34 72q30 24 68 24q42 0 74 -34q24 -30 24 -62v-6q0 -40 -32 -72q-30 -26 -66 -26h-2q-52 0 -84 46q-16 28 -16 50z" />
<glyph unicode=";" horiz-adv-x="508" d="M120 -168q100 96 100 168q-36 16 -52 48q-12 22 -12 46q0 50 44 82q26 16 58 16q48 0 80 -42q20 -30 20 -74q0 -124 -148 -252q-40 -38 -50 -42q-14 16 -40 50zM158 846v8q0 40 32 72q30 24 66 24q44 0 76 -34q26 -30 26 -62v-6q0 -40 -34 -72q-30 -26 -68 -26 q-50 0 -84 46q-14 28 -14 50z" />
<glyph unicode="&#x3c;" horiz-adv-x="920" d="M116 456v122q4 6 244 200q94 76 278 228q22 -28 90 -110q-88 -72 -350 -284q-28 -24 -114 -94q28 -24 114 -94q88 -72 350 -286q-24 -28 -90 -108q-86 70 -342 280q-46 36 -180 146z" />
<glyph unicode="=" horiz-adv-x="840" d="M94 270v138h650v-138h-650zM94 568v142h650v-142h-650z" />
<glyph unicode="&#x3e;" horiz-adv-x="920" d="M192 138q88 72 350 286q28 24 114 94q-28 22 -114 94q-88 70 -350 284q24 28 90 110q70 -58 278 -228q240 -194 244 -200v-122q-46 -36 -180 -146q-86 -70 -342 -280q-22 28 -90 108z" />
<glyph unicode="?" horiz-adv-x="1024" d="M134 1048v42q0 102 50 202q14 22 40 58q10 16 42 48q38 34 70 50q94 56 190 56h12q100 0 196 -58q26 -14 66 -50q42 -44 54 -66q26 -34 42 -76q34 -86 34 -164v-12q0 -88 -42 -184q-18 -38 -48 -78q-14 -18 -46 -50q-38 -38 -86 -70q-36 -26 -74 -58q-42 -40 -42 -86 v-126v-118v-2h-138q-2 40 -2 158v86q0 108 84 186q42 40 94 76q40 28 66 54q36 36 42 52q18 24 30 54q24 58 24 110q0 108 -72 192q-32 34 -42 40q-68 48 -144 48h-4q-90 0 -166 -66q-30 -32 -40 -48q-52 -74 -52 -164v-36h-138zM424 100q0 50 40 82q26 18 58 18 q54 0 86 -48q16 -24 16 -50v-4q0 -42 -38 -74q-28 -24 -64 -24q-42 0 -74 32q-24 30 -24 68z" />
<glyph unicode="@" horiz-adv-x="2022" d="M160 568v22q0 168 64 334q30 68 76 142q28 44 70 94q24 26 60 62q52 48 90 74q56 40 120 70q52 26 128 52q144 46 284 46h20q150 0 304 -60q54 -22 104 -50q48 -26 112 -74q28 -24 60 -56q50 -52 68 -78q42 -52 64 -90q110 -192 110 -408v-6q0 -160 -52 -282 q-18 -44 -52 -94q-54 -78 -132 -130q-96 -62 -192 -62h-4q-96 0 -180 62q-54 42 -78 120q-34 -32 -66 -50q-86 -50 -170 -50h-12q-88 0 -172 52q-20 12 -52 42q-36 38 -44 54q-80 114 -80 260q0 132 66 252q14 24 46 64q32 36 54 54q106 86 226 86q110 0 202 -70 q14 -12 38 -38q36 -36 48 -60q2 -4 6 -10q14 38 28 72q44 -16 132 -50q-46 -114 -84 -240q-22 -86 -22 -98q-10 -36 -14 -74q-6 -44 -6 -72v-10q0 -66 24 -104q8 -12 28 -26q40 -26 84 -26q80 0 160 74q32 30 40 44q52 70 72 156q18 72 18 158q0 204 -114 376q-20 30 -56 72 q-28 30 -62 58q-52 46 -88 66q-174 106 -370 106h-4q-190 0 -360 -84q-38 -18 -82 -48q-34 -22 -90 -70q-42 -42 -54 -58q-42 -50 -62 -82q-36 -60 -64 -130q-48 -130 -48 -270v-6q0 -242 130 -442q24 -36 60 -78q44 -46 60 -58q48 -40 80 -62q186 -120 418 -120 q200 0 356 84q64 -118 66 -124q-44 -24 -108 -48q-42 -14 -104 -30q-104 -20 -188 -20h-44q-100 0 -226 32q-94 26 -158 58q-60 30 -130 80q-32 22 -80 68q-54 52 -72 78q-50 62 -80 118q-30 48 -48 96q-18 42 -42 130q-30 118 -30 230zM746 564q0 -102 56 -182 q44 -58 108 -78q26 -8 52 -8q76 0 142 58q32 30 40 42q16 22 26 42q14 26 28 60q4 16 12 60q6 20 6 54q0 102 -56 182q-10 14 -34 38q-56 48 -122 48h-6q-70 0 -140 -58q-30 -30 -38 -44q-20 -24 -36 -56q-38 -78 -38 -158z" />
<glyph unicode="A" horiz-adv-x="1352" d="M34 0q144 366 572 1464h146q2 0 32 -76q174 -452 526 -1354q4 -8 14 -34h-2h-150q-6 8 -90 226q-42 112 -48 118h-714q-6 -8 -106 -270q-26 -68 -30 -74h-146h-2h-2zM374 486h608q-76 194 -304 778q-76 -194 -304 -778z" />
<glyph unicode="B" horiz-adv-x="1150" d="M172 2v1460l4 2h440q212 0 336 -156q64 -90 64 -204v-26q0 -180 -146 -300q64 -28 128 -112q64 -88 64 -212v-48q0 -254 -226 -366q-98 -40 -158 -40h-362h-140q-2 0 -4 2zM312 140h10q88 0 346 2q66 0 142 42q110 72 110 224v48q0 168 -178 224q-54 16 -110 16h-320 v-556zM312 834h294q162 0 242 132q26 50 26 114v24q0 152 -164 208q-46 12 -94 12h-304v-490z" />
<glyph unicode="C" horiz-adv-x="1408" d="M96 728v8q0 302 210 530q202 198 452 198h10q256 0 460 -208q92 -106 114 -162q-120 -62 -126 -62q-24 48 -66 104q-168 188 -384 188h-6q-226 0 -392 -202q-130 -176 -130 -386v-8q0 -246 168 -432q156 -156 360 -156q220 0 388 196q40 56 64 102q42 -22 124 -64 q-22 -62 -120 -174q-204 -200 -462 -200q-274 0 -484 230q-180 224 -180 498z" />
<glyph unicode="D" horiz-adv-x="1330" d="M172 2v1460l4 2h352q252 0 456 -174q94 -88 114 -126q140 -196 140 -432q0 -286 -202 -508q-212 -224 -526 -224h-334q-2 0 -4 2zM312 140h198q312 0 492 266q94 156 94 326q0 258 -194 446q-62 52 -112 80q-128 66 -262 66h-216v-1184z" />
<glyph unicode="E" horiz-adv-x="1008" d="M172 0v1464h2h726h2v-138l-2 -2h-588v-522h470l2 -2v-136l-2 -2h-470v-522h588l2 -2v-138h-2h-726h-2z" />
<glyph unicode="F" horiz-adv-x="950" d="M172 0v1464h2h724h2v-138q0 -2 -2 -2h-586v-522h494l2 -2v-136l-2 -2h-494v-662h-138h-2z" />
<glyph unicode="G" horiz-adv-x="1556" d="M90 726v10q0 288 196 510q84 88 144 122q160 96 332 96h14q258 0 464 -208q80 -88 120 -164q0 -4 4 -12q-118 -64 -124 -64h-2q-22 56 -98 144q-162 164 -368 164h-8q-226 0 -396 -196q-136 -178 -136 -392v-8q0 -216 136 -390q168 -198 400 -198q194 0 352 144 q80 84 102 134q28 42 58 132q8 28 16 72h-400q-2 0 -4 2v136l4 2h550l2 -2q0 -114 -30 -240q-74 -240 -258 -386q-182 -134 -392 -134q-258 0 -460 194q-84 88 -120 160q-98 178 -98 372z" />
<glyph unicode="H" horiz-adv-x="1270" d="M172 2v1460l4 2h134l2 -2v-660h646v660l2 2h136l2 -2v-1460l-2 -2h-136l-2 2v662h-646v-662l-2 -2h-134q-2 0 -4 2z" />
<glyph unicode="I" horiz-adv-x="484" d="M172 0v1464h2h138v-1464h-138h-2z" />
<glyph unicode="J" horiz-adv-x="1022" d="M8 410v78v2h134l2 -2v-72q0 -96 64 -184q24 -32 50 -48q64 -48 128 -48h86q76 0 146 60q32 30 38 44q62 80 62 184v1040h134h2v-1048q0 -120 -68 -230q-18 -32 -54 -68q-34 -36 -48 -44q-18 -14 -42 -28q-26 -14 -50 -22q-62 -24 -112 -24h-100q-62 0 -134 32 q-140 66 -204 216q-34 82 -34 162z" />
<glyph unicode="K" horiz-adv-x="1260" d="M172 2v1460l4 2h134l2 -2v-812q176 202 704 810q2 0 6 4h182v-2q-152 -176 -610 -702v-2q156 -190 618 -758h-2h-184q-104 130 -418 520q-26 32 -106 130q-182 -204 -190 -218v-430l-2 -2h-134q-2 0 -4 2z" />
<glyph unicode="L" horiz-adv-x="958" d="M172 0v1464h2h138v-1324h626v-140h-764h-2z" />
<glyph unicode="M" horiz-adv-x="1758" d="M172 2v1460l4 2h184q4 0 54 -124q154 -378 464 -1132h2q128 314 514 1256h188l2 -2v-1460l-2 -2h-142l-2 2v1194h-2q-122 -298 -490 -1196h-2h-130q-4 0 -44 102q-2 2 -332 810q-102 246 -118 286v-1196l-2 -2h-142q-2 0 -4 2z" />
<glyph unicode="N" horiz-adv-x="1422" d="M172 2v1460l4 2h170q8 -8 536 -872q76 -124 226 -370h2v1240l2 2h136l2 -2v-1460l-2 -2h-166q-14 16 -74 120q-6 6 -536 874q-50 84 -152 248v-1240q-2 0 -4 -2h-140q-2 0 -4 2z" />
<glyph unicode="O" horiz-adv-x="1544" d="M98 726v12q0 268 178 488q70 78 102 100q184 138 396 138h4q256 0 460 -194q74 -82 100 -128q116 -188 116 -406v-8q0 -302 -214 -530q-202 -198 -464 -198q-256 0 -460 194q-90 98 -110 142q-108 184 -108 390zM240 728q0 -244 172 -432q162 -156 364 -156 q240 0 412 212q124 174 124 376v8q0 244 -172 432q-162 156 -364 156q-228 0 -398 -194q-138 -176 -138 -394v-8z" />
<glyph unicode="P" d="M172 2v1460l4 2h458q212 0 366 -168q112 -142 112 -302v-16q0 -182 -138 -328q-150 -140 -338 -140h-324v-508l-2 -2h-134q-2 0 -4 2zM312 650h322q166 0 278 142q60 90 60 190v10q0 152 -132 262q-94 70 -208 70h-320v-674z" />
<glyph unicode="Q" horiz-adv-x="1562" d="M98 726v12q0 268 178 488q70 78 102 100q184 138 396 138h4q256 0 460 -194q74 -84 100 -130q116 -188 116 -404v-8q0 -258 -162 -472q84 -82 180 -182q-34 -32 -100 -98l-178 178q-188 -154 -418 -154q-256 0 -460 192q-90 100 -110 144q-108 184 -108 390zM240 728 q0 -244 172 -432q162 -156 366 -156q170 0 316 114v2q-38 40 -154 156l98 98h2l152 -152q120 170 120 370v8q0 244 -172 432q-160 156 -364 156q-228 0 -398 -194q-138 -178 -138 -394v-8z" />
<glyph unicode="R" horiz-adv-x="1160" d="M172 2v1460l4 2h458q212 0 366 -168q112 -142 112 -302v-16q0 -194 -156 -346q-84 -70 -164 -96q104 -178 308 -534l-2 -2h-162q-8 8 -120 210l-168 300h-336v-508l-2 -2h-134q-2 0 -4 2zM312 650h322q166 0 278 142q60 90 60 190v10q0 152 -132 262q-94 70 -208 70h-320 v-674z" />
<glyph unicode="S" horiz-adv-x="1040" d="M72 302q2 2 128 54q22 -50 50 -90q12 -18 44 -50q42 -40 70 -54q76 -42 158 -42h6q96 0 182 56q18 14 44 40q40 46 56 104q14 46 14 88v2q0 106 -70 180q-36 32 -58 40q-16 10 -42 18q-22 8 -104 26q-166 44 -254 92q-192 100 -192 300v8q0 126 74 236q14 18 46 52 q36 36 62 50q42 28 94 46q76 24 146 24h16q102 0 202 -52q32 -20 68 -48q18 -14 44 -40q38 -46 54 -72q14 -22 22 -40q-32 -16 -126 -60q-14 30 -54 76q-90 96 -216 96h-2q-124 0 -206 -74q-30 -30 -40 -48q-44 -68 -44 -150q0 -86 52 -134q38 -34 88 -58q90 -44 288 -88 q50 -14 86 -34q42 -20 86 -60q36 -34 44 -48q18 -24 30 -46q48 -90 48 -186v-2v-4v-4v-4q0 -104 -56 -208q-70 -126 -214 -184q-86 -30 -164 -30h-18q-98 0 -202 50q-32 16 -70 44q-56 44 -100 102q-32 44 -54 86q-16 38 -16 40z" />
<glyph unicode="T" horiz-adv-x="954" d="M16 1324v2v138h922h2v-138q0 -2 -2 -2h-390v-1324h-2h-138v1324h-392z" />
<glyph unicode="U" horiz-adv-x="1386" d="M170 522v940l4 2h132q2 0 4 -2v-938q0 -234 168 -346q74 -38 146 -38h138q152 0 250 140q66 102 66 258v924l2 2h136l2 -2v-924q0 -324 -232 -474q-106 -64 -220 -64h-144q-168 0 -302 128q-150 156 -150 394z" />
<glyph unicode="V" horiz-adv-x="1368" d="M34 1464h156q16 -38 60 -152q110 -278 434 -1110h2q90 234 362 936q32 82 128 326h154h2h2q-144 -362 -572 -1448l-8 -16h-140q-4 0 -90 224q-164 412 -490 1240z" />
<glyph unicode="W" horiz-adv-x="1900" d="M62 1464h148q4 0 20 -64q94 -374 284 -1122h4q76 240 306 962q18 56 74 224h102q2 0 42 -130q114 -352 340 -1056h2q76 296 302 1186h2h146h4q-94 -360 -374 -1438q-6 -26 -8 -26h-128q-6 0 -30 84q-116 360 -348 1084l-376 -1168h-132q-2 0 -38 146q-114 440 -342 1318z " />
<glyph unicode="X" horiz-adv-x="1304" d="M48 2q126 190 504 756q-118 176 -470 706h4h170q296 -450 394 -602h2q98 150 396 602h172q-368 -558 -468 -704q168 -254 502 -758l-4 -2h-176q-4 4 -78 118q-114 176 -342 524h-2q-102 -154 -410 -622q-10 -20 -12 -20h-180z" />
<glyph unicode="Y" horiz-adv-x="1192" d="M30 1462v2h172q18 -24 390 -598q2 0 6 -4q100 150 396 602h170l4 -2l-496 -744v-716l-2 -2h-144l-2 2v716q-124 186 -494 744z" />
<glyph unicode="Z" horiz-adv-x="1192" d="M58 2q132 210 528 836q78 120 308 486h-726l-2 4v134l2 2h978l2 -2q-134 -214 -540 -856q-74 -116 -296 -466h794q2 0 4 -4v-134q-2 0 -4 -2h-1044z" />
<glyph unicode="[" horiz-adv-x="778" d="M190 -168v1682h2h366h2v-138l-2 -2h-228v-1404h228h2v-138l-2 -2h-366q-2 0 -2 2z" />
<glyph unicode="\" horiz-adv-x="676" d="M0 1374h2h138h2l512 -1424h-142z" />
<glyph unicode="]" horiz-adv-x="778" d="M220 -30h2h226v1404h-226q-2 0 -2 2v138h2h366h2v-1682l-2 -2h-366q-2 0 -2 2v138z" />
<glyph unicode="^" horiz-adv-x="930" d="M68 854q62 100 248 402q22 36 90 144h120q10 -16 42 -66q52 -86 210 -344q22 -34 84 -136v-2q-30 -18 -118 -72q-136 218 -174 282q-2 2 -106 170q-72 -120 -218 -358q-14 -24 -60 -96q-28 20 -118 76z" />
<glyph unicode="_" horiz-adv-x="1090" d="M70 -20h950v-140h-950v140z" />
<glyph unicode="`" horiz-adv-x="888" d="M242 1806q18 30 72 118q84 -50 332 -204q-20 -28 -76 -118q-82 50 -328 204z" />
<glyph unicode="a" d="M92 470v10q0 190 134 336q142 144 340 144q196 0 314 -162q0 -2 2 -6v156q2 0 4 4h134q0 -2 4 -4v-946q-2 0 -4 -2h-134q-2 0 -4 2v156q-108 -166 -326 -166h-2q-194 0 -340 154q-122 148 -122 324zM232 474q0 -168 134 -276q84 -66 186 -66q218 0 302 212q20 64 20 126 v20q0 88 -54 182q-94 146 -252 146q-210 0 -306 -200q-30 -72 -30 -138v-6z" />
<glyph unicode="b" horiz-adv-x="1178" d="M152 2v1460q2 0 4 2h134l4 -2v-670q12 30 84 92q102 76 232 76q244 0 392 -210q82 -128 82 -264v-22q0 -182 -136 -334q-72 -66 -132 -94q-98 -44 -192 -44h-6q-216 0 -324 166v-156q-2 0 -4 -2h-134zM302 474q0 -172 132 -284q78 -58 192 -58q158 0 264 150 q54 94 54 184v16q0 150 -122 262q-88 74 -214 74q-186 0 -278 -196q-28 -74 -28 -136v-12z" />
<glyph unicode="c" horiz-adv-x="1000" d="M90 470v10q0 198 148 350q140 128 300 128h26q148 0 282 -110q66 -64 86 -100q-38 -26 -116 -78q-62 96 -176 134q-40 12 -82 12h-16q-120 0 -222 -102q-90 -106 -90 -240v-4q0 -142 108 -252q96 -88 214 -88q144 0 250 130q4 6 14 20q30 -18 120 -74q-88 -136 -248 -192 q-72 -22 -136 -22q-176 0 -314 128q-148 152 -148 350z" />
<glyph unicode="d" horiz-adv-x="1178" d="M96 470v10q0 190 136 336q142 144 336 144q198 0 314 -162q2 -2 4 -6h2v670v2h136l2 -2v-1460l-2 -2h-136v2v156h-2q-108 -166 -326 -166h-2q-194 0 -340 154q-122 148 -122 324zM236 474q0 -168 134 -276q84 -66 188 -66q216 0 298 212q24 64 24 126v20q0 88 -56 182 q-94 146 -250 146q-214 0 -310 -200q-28 -72 -28 -138v-6z" />
<glyph unicode="e" horiz-adv-x="1054" d="M66 470v8q0 200 144 350q134 132 312 132q206 0 354 -184q98 -142 98 -278v-12q0 -46 -6 -46h-760q0 -48 40 -136q60 -112 174 -154q54 -20 98 -20q136 0 238 120q34 48 44 78h4q80 -32 126 -56q-22 -62 -98 -146q-138 -134 -314 -134q-208 0 -356 182q-98 138 -98 296z M222 578h598q-42 132 -142 192q-72 48 -158 48q-146 0 -250 -136q-32 -48 -48 -104z" />
<glyph unicode="f" horiz-adv-x="564" d="M26 810v140h2h170v18q0 224 100 360q12 16 38 42q34 32 60 46q28 16 56 26q58 22 110 22h30v-138v-2h-22q-124 0 -188 -130q-44 -90 -44 -236v-8h254v-140h-254v-810h-2h-136h-2v810h-170h-2z" />
<glyph unicode="g" horiz-adv-x="1080" d="M96 -108q0 82 64 170q26 28 50 46q2 2 6 4q-50 48 -50 126v2q0 70 44 128q2 2 2 4q-22 24 -38 52q-52 84 -52 178q0 132 92 234q34 36 44 42q32 24 66 40q84 40 170 40q122 0 224 -70q20 24 34 32q34 24 66 30q26 8 50 8h30l2 -2v-138l-2 -2h-24q-32 0 -48 -16 q-8 -10 -8 -18q16 -28 32 -70q18 -54 18 -110q0 -134 -98 -240q-42 -38 -60 -50q-30 -18 -68 -34q-72 -30 -144 -30h-6q-84 0 -166 40q-20 -24 -20 -50q0 -24 14 -30q40 -28 184 -28q24 0 72 2q194 0 302 -92q26 -26 38 -42q50 -72 50 -152t-54 -156q-10 -20 -46 -52 q-34 -32 -58 -46q-26 -18 -60 -32q-42 -16 -80 -26q-68 -16 -122 -16h-34q-88 0 -182 32q-48 18 -84 40q-26 16 -56 42q-28 28 -38 44q-56 76 -56 154v12zM236 -112v-2q0 -64 70 -118q88 -58 224 -58q124 0 214 58q16 8 38 32q42 48 42 96v2q0 46 -38 86q-30 26 -80 40 q-60 16 -118 16h-94q-76 0 -134 10q-24 -16 -64 -50q-60 -62 -60 -112zM262 598q0 -62 46 -124q24 -26 36 -34q68 -50 152 -50q90 0 162 60q70 66 70 152q0 82 -64 148q-32 30 -70 46q-48 20 -98 20h-4q-66 0 -126 -34q-20 -12 -46 -38q-30 -32 -40 -62q-18 -38 -18 -74v-10 z" />
<glyph unicode="h" horiz-adv-x="1130" d="M152 2v1460q2 0 4 2h134l4 -2v-620q112 110 274 110q294 0 388 -210q28 -64 28 -140v-600q-2 0 -2 -2h-136l-4 2v598q0 166 -182 206q-26 4 -76 4h-40q-168 0 -232 -116q-18 -46 -18 -102v-590q-2 0 -4 -2h-134z" />
<glyph unicode="i" horiz-adv-x="466" d="M134 1360v8q0 38 32 70q30 26 64 26h8q36 0 68 -32q28 -32 28 -64v-6q0 -42 -38 -74q-28 -24 -60 -24h-6q-44 0 -76 40q-20 26 -20 56zM162 0v950h2h138h2v-950h-2h-138h-2z" />
<glyph unicode="j" horiz-adv-x="494" d="M-42 -292q102 0 164 88q22 34 40 82q26 82 26 180v892h2h138v-870q0 -150 -34 -248q-18 -52 -38 -86q-16 -30 -52 -70q-28 -30 -38 -36q-92 -72 -208 -72v138v2zM160 1360v8q0 38 32 70q30 26 64 26h8q36 0 70 -32q26 -32 26 -64v-6q0 -42 -38 -74q-28 -24 -60 -24h-6 q-44 0 -76 40q-20 26 -20 56z" />
<glyph unicode="k" horiz-adv-x="1008" d="M152 2v1460q2 0 4 2h134l4 -2v-966q118 114 474 456h200v-2q-106 -104 -424 -410q106 -134 426 -540h-2h-180q-10 10 -302 384q-16 20 -46 56q-144 -138 -146 -138v-300q-2 0 -4 -2h-134z" />
<glyph unicode="l" horiz-adv-x="446" d="M152 0v1464h2h138h2v-1464h-2h-138h-2z" />
<glyph unicode="m" horiz-adv-x="1820" d="M152 2v932q2 0 4 2h134l4 -2v-94q108 110 268 110h18q222 0 332 -136q112 136 330 136h28q268 0 370 -196q32 -70 32 -144v-608l-2 -2h-134q-2 0 -4 2v606q0 120 -120 178q-60 24 -136 24h-34q-188 0 -244 -128q-14 -34 -14 -92v-588q-2 0 -4 -2h-134q-2 0 -4 2v598 q0 148 -150 198q-36 12 -138 12q-124 0 -186 -52q-74 -48 -74 -166v-590q-2 0 -4 -2h-134z" />
<glyph unicode="n" horiz-adv-x="1130" d="M152 2v932q2 0 4 2h134l4 -2v-94q108 110 268 110h18q282 0 378 -214q26 -64 26 -136v-598q-2 0 -4 -2h-134q-2 0 -4 2v598q0 148 -150 198q-36 12 -138 12q-124 0 -186 -52q-74 -48 -74 -166v-590q-2 0 -4 -2h-134z" />
<glyph unicode="o" horiz-adv-x="1104" d="M90 470v10q0 198 148 350q140 128 300 128h26q154 0 292 -120q158 -152 158 -364q0 -214 -166 -370q-136 -112 -296 -112q-174 0 -314 128q-148 152 -148 350zM230 470q0 -142 106 -250q96 -90 216 -90q150 0 256 140q64 98 64 204q0 152 -112 262q-94 80 -202 80h-16 q-118 0 -222 -102q-90 -106 -90 -240v-4z" />
<glyph unicode="p" horiz-adv-x="1178" d="M152 -428v1364h4h134h4v-144q110 168 324 168q2 0 2 -2h2l2 2q172 0 312 -128q72 -78 102 -144q46 -104 46 -200v-24q0 -184 -140 -336q-142 -136 -334 -136q-196 0 -314 160q0 2 -2 6v-586q-2 0 -4 -4h-134q0 2 -4 4zM302 464q0 -120 88 -232q88 -100 218 -100 q200 0 298 182q38 78 38 156v14q0 138 -106 246q-94 88 -214 88q-216 0 -298 -210q-24 -64 -24 -134v-10z" />
<glyph unicode="q" horiz-adv-x="1178" d="M96 470v12q0 208 162 364q136 114 300 114v-2l2 2q218 0 326 -168h2v144l2 2h134q2 0 2 -2v-1364l-2 -4h-134q0 2 -2 4v586h-2q-12 -28 -76 -86q-104 -80 -240 -80q-242 0 -392 208q-82 128 -82 270zM236 472q0 -146 110 -256q90 -84 228 -84q154 0 250 144q56 94 56 184 v22q0 142 -104 254q-82 82 -222 82q-156 0 -264 -148q-54 -92 -54 -192v-6z" />
<glyph unicode="r" horiz-adv-x="774" d="M152 2v934q2 0 4 2h134l4 -2v-82q44 60 130 86q64 18 128 18q106 0 186 -48q-10 -50 -32 -150q-90 54 -164 54q-166 0 -234 -156q-14 -36 -14 -74v-582q-2 0 -4 -2h-134z" />
<glyph unicode="s" horiz-adv-x="904" d="M80 198q2 2 58 32q22 12 64 34q46 -80 134 -114q56 -20 118 -20q88 0 156 40q14 8 38 30q32 38 32 80q0 66 -82 106q-22 8 -60 18q-160 28 -250 60q-184 70 -184 220v4q0 90 68 168q34 32 46 40q44 32 104 48q66 22 132 22h12q102 0 196 -50q28 -14 64 -44q30 -26 48 -48 q16 -22 16 -24q-92 -52 -120 -72h-2q-18 28 -54 54q-64 42 -156 42q-104 0 -170 -50q-46 -40 -46 -88q0 -38 30 -56q10 -10 32 -20q42 -22 150 -48q50 -10 126 -24q50 -12 82 -28q30 -14 60 -38q10 -6 38 -34q60 -70 60 -154v-6q0 -88 -66 -168q-26 -28 -40 -38 q-32 -24 -58 -38q-96 -44 -198 -44h-12q-110 0 -214 54q-96 56 -152 154z" />
<glyph unicode="t" horiz-adv-x="680" d="M32 810v140h2h158v514h138v-514h260v-140v-2h-260v-548q0 -42 22 -76q22 -28 56 -40q16 -4 30 -4h4q38 0 104 26q4 2 14 6q50 -112 56 -128q-14 -8 -56 -22q-72 -22 -112 -22h-16q-54 0 -112 32q-80 42 -110 124q-18 52 -18 114v538h-158q0 2 -2 2z" />
<glyph unicode="u" horiz-adv-x="1130" d="M148 344v602q0 2 4 4h134l2 -4v-596q0 -158 168 -200q32 -10 112 -10q104 0 154 28q78 36 102 102q14 46 14 90v586q0 2 2 4h136l2 -4v-930l-2 -2h-136l-2 2v94q-110 -110 -278 -110q-178 0 -278 76q-134 102 -134 268z" />
<glyph unicode="v" horiz-adv-x="1034" d="M34 950h158q2 0 326 -752q2 2 146 340q60 138 178 412h156l2 -4q-102 -236 -414 -946h-136q-2 0 -34 78q-128 290 -382 872z" />
<glyph unicode="w" horiz-adv-x="1506" d="M54 948v2h152q2 0 32 -88q72 -216 218 -646h2q62 182 244 732v2h102q4 0 36 -102q38 -114 208 -632h2q64 182 250 734h150q2 0 4 -4q-82 -236 -328 -946h-152q-4 0 -54 162q-56 166 -166 500h-2q-54 -166 -218 -662h-150q-8 10 -42 114z" />
<glyph unicode="x" horiz-adv-x="1054" d="M40 2q96 124 384 492v2q-88 112 -354 454h182q68 -88 274 -356q12 20 240 312q26 38 34 44h182v-4q-90 -112 -356 -452v-2q20 -20 382 -492h-182q-74 98 -300 392q-76 -98 -302 -392h-180z" />
<glyph unicode="y" horiz-adv-x="1022" d="M34 950h158q2 0 46 -104q90 -216 272 -648q2 4 116 266q206 486 208 486h152q-134 -310 -532 -1240q-16 -36 -62 -142h-150v2q48 112 190 448q-98 234 -398 932z" />
<glyph unicode="z" horiz-adv-x="982" d="M88 0v2q138 202 546 808h-490l-2 2v134q0 2 2 4h754q-136 -204 -546 -810h522l4 -2v-136q-2 0 -4 -2h-786z" />
<glyph unicode="{" horiz-adv-x="822" d="M156 584v94l2 2q50 18 78 38q46 36 46 72v474q0 74 38 142q88 128 268 128q16 -2 48 -2l2 -4v-136h-2h-52q-46 0 -94 -18q-68 -32 -68 -116v-470q0 -84 -72 -156q72 -74 72 -158v-472q0 -82 68 -114q48 -18 94 -18h52h2v-136q0 -2 -2 -4q-12 0 -48 -2q-180 0 -268 128 q-38 68 -38 144v472q0 36 -46 72q-28 20 -78 38q-2 0 -2 2z" />
<glyph unicode="|" horiz-adv-x="440" d="M150 0v1400h140v-1400h-140z" />
<glyph unicode="}" horiz-adv-x="822" d="M184 -130h2h52q44 0 94 18q68 32 68 114v472q0 84 72 158q-72 72 -72 156v470q0 84 -68 116q-50 18 -94 18h-52h-2v136q0 2 2 4q12 0 48 2q180 0 268 -128q38 -68 38 -142v-474q0 -36 46 -72q30 -20 78 -38q2 0 2 -2v-94l-2 -2q-48 -18 -78 -38q-46 -36 -46 -72v-472 q0 -76 -38 -144q-88 -128 -268 -128q-16 2 -48 2l-2 4v136z" />
<glyph unicode="~" horiz-adv-x="902" d="M68 604v166q36 36 66 52q56 26 100 26q52 0 202 -50q152 -50 196 -50q50 0 96 28q38 20 76 64v-166q-32 -34 -70 -52q-48 -24 -102 -24q-48 0 -200 48q-150 48 -198 48q-40 0 -96 -28q-30 -18 -70 -62z" />
<glyph unicode="&#xa1;" horiz-adv-x="656" d="M192 1360v6q0 42 36 74q28 24 64 24q38 0 68 -28q32 -32 32 -68v-8q0 -38 -34 -70q-30 -26 -66 -26h-2q-42 0 -74 34q-24 30 -24 62zM200 0q6 286 22 1138h138q6 -284 22 -1138h-2h-178h-2z" />
<glyph unicode="&#xa2;" horiz-adv-x="1000" d="M90 696v10q0 198 148 350q98 88 204 114v126h2h138h2v-112q136 -8 262 -112q66 -62 86 -98q-38 -26 -116 -78q-62 96 -176 134q-30 10 -56 12v-682q126 10 218 126q4 8 14 20q30 -18 120 -74q-88 -136 -248 -192q-54 -18 -104 -22v-114h-142v126q-110 28 -204 114 q-148 152 -148 352zM230 696q0 -144 108 -252q50 -44 104 -68v648q-64 -24 -122 -84q-90 -106 -90 -238v-6z" />
<glyph unicode="&#xa3;" horiz-adv-x="1216" d="M54 144q58 50 100 90q86 80 112 112q150 166 150 278v8v14h-230v2v136v2h180q-28 56 -44 96q-30 86 -30 160v14q0 96 52 176q10 18 42 50q128 114 280 114q120 0 228 -68l50 -40q0 -2 2 -4v-2l-98 -98q-40 38 -82 52q-52 20 -100 20q-96 0 -182 -74q-52 -52 -52 -132v-2 q0 -82 52 -184q22 -48 36 -78h328v-2v-136v-2h-294h2v-20q0 -162 -166 -352h10q136 0 230 -92q80 -68 154 -68q104 0 230 132q26 -24 100 -96q-162 -174 -332 -174q-128 0 -248 104q-36 32 -56 40q-36 14 -78 14q-98 0 -232 -80q-10 -6 -28 -20q-22 28 -86 110z" />
<glyph unicode="&#xa4;" horiz-adv-x="1338" d="M64 258q30 32 120 126q-42 60 -58 98q-60 124 -60 260q0 178 102 332q8 10 22 32q-32 34 -126 134q98 96 100 96q42 -42 124 -128q38 30 66 46q148 90 318 90q194 0 358 -118l24 -18q32 32 124 128q26 -24 102 -96q-32 -34 -128 -134q40 -56 64 -104q58 -126 58 -260 q0 -182 -102 -340q-4 -6 -14 -18q32 -32 122 -126q-34 -32 -102 -98q-28 30 -116 120q-60 -48 -118 -80q-132 -64 -266 -64h-14q-136 0 -270 66q-34 20 -78 50q-12 10 -36 28q-30 -30 -116 -120q-26 26 -100 98zM208 736q0 -134 78 -254q18 -26 44 -58q44 -40 60 -52 q44 -34 90 -54q90 -40 192 -40q162 0 296 106q44 40 62 64q20 26 34 48q70 114 70 240v8q0 132 -76 250q-18 30 -54 68q-42 40 -60 52q-38 28 -82 48q-94 42 -192 42q-150 0 -278 -92l-54 -48q-36 -40 -54 -70q-18 -26 -28 -50q-48 -98 -48 -198v-10z" />
<glyph unicode="&#xa5;" horiz-adv-x="1170" d="M64 1262q26 22 104 90q8 -8 232 -272l186 -222q52 60 204 240q52 64 214 254q26 -22 108 -90q-72 -86 -288 -340q-42 -48 -168 -196v-68h338v-138h-338v-70h338v-2v-136v-2h-338v-308h-138v308h-338l-2 2v136l2 2h338v70h-338h-2v138h340v66q-76 90 -304 358 q-38 44 -150 180z" />
<glyph unicode="&#xa6;" horiz-adv-x="540" d="M200 150h140v-650h-140v650zM200 850v650h140v-650h-140z" />
<glyph unicode="&#xa7;" horiz-adv-x="878" d="M118 722v14q0 72 44 148q14 22 38 50q30 28 50 42q-120 78 -120 208q0 104 76 184q42 40 74 54q76 40 168 40q144 0 242 -106q38 -44 52 -76q-126 -60 -128 -60q-8 20 -26 38q-56 64 -140 64q-64 0 -114 -30q-62 -42 -62 -106v-2q0 -50 44 -80q26 -22 90 -46 q54 -18 128 -34q98 -30 160 -102q26 -34 40 -58q32 -66 32 -128v-14q0 -76 -48 -154q-36 -54 -86 -88q24 -14 50 -40q70 -70 70 -162v-12q0 -74 -46 -142q-10 -16 -38 -44q-52 -46 -112 -64q-60 -20 -112 -20h-16q-86 0 -168 50q-80 52 -118 132q42 20 128 60q8 -18 24 -38 q56 -64 138 -64h6q62 0 114 32q60 40 60 104q0 50 -42 80q-14 12 -28 18q-40 24 -112 46q-32 8 -76 16q-42 14 -66 26q-30 14 -72 52q-30 28 -40 44q-58 82 -58 168zM258 728q0 -72 64 -126q54 -40 118 -40h4q74 0 132 54q50 48 50 112v2q0 66 -56 118q-56 48 -130 48 q-72 0 -130 -50q-52 -52 -52 -116v-2z" />
<glyph unicode="&#xa8;" horiz-adv-x="1024" d="M242 1720v8q0 40 32 72q30 24 68 24q42 0 74 -32q26 -32 26 -64v-6q0 -40 -34 -72q-30 -26 -66 -26q-52 0 -86 48q-14 26 -14 48zM582 1720v8q0 40 34 72q30 24 66 24q44 0 76 -32q24 -32 24 -64v-6q0 -40 -32 -72q-30 -26 -68 -26h-2q-50 0 -82 48q-16 26 -16 48z" />
<glyph unicode="&#xa9;" horiz-adv-x="1912" d="M176 672v22q0 146 62 298q26 60 68 128q28 36 68 82q52 56 74 72q56 48 102 76q190 114 406 114q242 0 446 -140q38 -26 88 -72q54 -50 64 -66q38 -44 60 -78q124 -198 124 -426q0 -224 -120 -418q-26 -42 -74 -96t-80 -80q-50 -42 -86 -64q-196 -124 -422 -124 q-228 0 -426 126q-42 28 -96 74q-56 52 -66 68q-54 64 -78 104q-30 48 -52 104q-62 148 -62 296zM312 680q0 -198 116 -368q22 -30 58 -70q40 -40 58 -52q42 -38 86 -62q154 -88 324 -88h6q184 0 348 104q26 14 60 42q16 14 64 60l18 24q38 46 62 88q88 152 88 322 q0 204 -120 376q-24 32 -66 80q-54 50 -92 74q-168 116 -366 116q-200 0 -372 -118q-28 -20 -80 -70q-48 -48 -66 -76q-26 -38 -46 -72q-80 -146 -80 -308v-2zM534 678v10q0 198 146 350q142 128 302 128h26q146 0 282 -110q64 -64 86 -100q-38 -26 -116 -78 q-62 96 -176 134q-42 12 -82 12h-16q-120 0 -220 -102q-92 -106 -92 -240v-4q0 -142 108 -252q96 -88 212 -88q148 0 254 132q4 6 14 18q28 -18 116 -74q-84 -136 -244 -192q-72 -22 -140 -22q-172 0 -312 128q-148 152 -148 350z" />
<glyph unicode="&#xaa;" horiz-adv-x="648" />
<glyph unicode="&#xab;" horiz-adv-x="1242" d="M118 386v108q68 46 276 182q28 18 112 74q78 -116 78 -118l-294 -192q280 -184 294 -192q-26 -38 -78 -116q-2 0 -42 28q-76 48 -224 146q-30 20 -122 80zM602 386v108q70 46 278 182q28 18 112 74q78 -116 78 -118l-294 -192q280 -184 294 -192q-26 -38 -78 -116l-42 28 q-76 48 -224 146q-30 20 -124 80z" />
<glyph unicode="&#xac;" horiz-adv-x="1000" d="M150 670v140h700v-460h-140v320h-560z" />
<glyph unicode="&#xad;" horiz-adv-x="864" d="M76 420v140h706v-140h-706z" />
<glyph unicode="&#xae;" horiz-adv-x="1214" d="M176 1026v12q0 82 34 166q14 32 38 68q14 22 38 48q28 32 40 40q32 26 56 40q106 64 226 64q134 0 246 -78q20 -12 50 -40q28 -26 34 -34q22 -26 32 -46q70 -108 70 -234q0 -124 -66 -232q-14 -24 -40 -54q-28 -28 -46 -44q-28 -22 -48 -36q-110 -66 -232 -66 q-128 0 -238 70q-22 14 -50 40q-32 28 -40 36q-28 38 -40 60q-18 26 -32 56q-32 82 -32 164zM228 1030q0 -116 68 -216q14 -18 34 -40q24 -24 34 -32q26 -22 50 -38q90 -50 192 -50h2q110 0 206 60q16 8 34 26q10 6 40 36q2 4 10 14q22 26 36 50q52 90 52 192q0 118 -72 220 q-12 20 -38 46q-32 30 -52 44q-100 68 -216 68q-120 0 -220 -68q-18 -14 -46 -42q-30 -28 -40 -44q-14 -24 -28 -44q-46 -84 -46 -180v-2zM464 750v562h158q40 0 78 -20q14 -6 30 -20l20 -20q12 -16 18 -28q8 -14 10 -26q6 -22 6 -54q0 -42 -14 -74q-4 -14 -12 -28 q-30 -44 -78 -64q30 -60 88 -180l24 -48h-64l-6 14q-4 10 -48 100l-48 102h-8h-102v-216h-52zM520 1018h98q28 0 46 10q40 18 60 58q12 26 12 50v16q0 36 -24 66q-10 14 -18 16q-30 24 -70 24h-104v-240z" />
<glyph unicode="&#xaf;" horiz-adv-x="670" />
<glyph unicode="&#xb0;" horiz-adv-x="876" d="M98 1136v10q0 82 52 158q32 46 78 78q76 48 154 48h10q80 0 152 -46q22 -16 54 -44q76 -86 76 -200q0 -120 -90 -212q-88 -74 -196 -74q-116 0 -204 84q-38 36 -48 58q-38 70 -38 140zM254 1140q0 -66 58 -108q34 -24 76 -24q62 0 108 50q24 40 24 82q0 66 -56 110 q-34 24 -76 24h-2q-60 0 -104 -50q-28 -40 -28 -82v-2z" />
<glyph unicode="&#xb1;" horiz-adv-x="862" d="M76 0h710v-140h-710v140zM76 420v140h284v286h142v-286h284v-140h-284v-284h-142v284h-284z" />
<glyph unicode="&#xb2;" horiz-adv-x="1014" />
<glyph unicode="&#xb3;" horiz-adv-x="1014" />
<glyph unicode="&#xb4;" horiz-adv-x="888" d="M242 1720q82 52 330 204q18 -30 74 -118q-84 -50 -330 -204q-18 30 -74 118z" />
<glyph unicode="&#xb5;" horiz-adv-x="1152" d="M160 -400v1350h2v2h134l2 -2h2v-600q0 -158 168 -200q34 -10 114 -10q100 0 152 28q76 36 104 102q12 46 12 90v586q0 2 2 4h134q2 0 4 -4v-930l-4 -2h-134l-2 2v94q-110 -110 -276 -110q-176 0 -274 72v-472h-2h-138z" />
<glyph unicode="&#xb6;" horiz-adv-x="1120" d="M106 1006q0 156 108 252t286 96h444v-138h-70v-1116h-140v1116h-166v-1116h-140v564q-134 18 -220 96q-102 96 -102 246z" />
<glyph unicode="&#xb7;" horiz-adv-x="684" d="M242 796v8q0 38 32 70q30 26 68 26h2q42 0 74 -36q24 -30 24 -60v-6q0 -44 -36 -76q-30 -22 -64 -22q-38 0 -70 28q-30 32 -30 68z" />
<glyph unicode="&#xb8;" horiz-adv-x="766" d="M246 -264q26 20 82 60q22 -28 46 -28q20 0 34 18q10 12 10 24q0 14 -8 22q-6 8 -20 12q-16 4 -42 -6q-22 -8 -68 -24q8 46 36 186h106q-4 -14 -14 -58l32 -8q40 -14 64 -54q16 -34 16 -70q0 -60 -48 -106q-44 -38 -98 -38q-70 0 -120 60q-8 8 -8 10z" />
<glyph unicode="&#xb9;" horiz-adv-x="1014" />
<glyph unicode="&#xba;" horiz-adv-x="718" />
<glyph unicode="&#xbb;" horiz-adv-x="1242" d="M174 248q12 8 292 192q-98 64 -292 192q0 2 76 118q38 -26 112 -74q70 -46 278 -182v-108q-30 -20 -122 -80q-56 -36 -224 -146q-42 -28 -44 -28q-26 38 -76 116zM660 248q12 8 292 192q-98 64 -292 192q0 2 76 118q38 -26 112 -74q70 -46 278 -182v-108 q-30 -20 -124 -80q-54 -36 -222 -146q-42 -28 -44 -28q-26 38 -76 116z" />
<glyph unicode="&#xbc;" horiz-adv-x="1708" />
<glyph unicode="&#xbd;" horiz-adv-x="1964" />
<glyph unicode="&#xbe;" horiz-adv-x="1708" />
<glyph unicode="&#xbf;" horiz-adv-x="1024" d="M94 414v12q0 86 44 184q18 38 46 76q14 18 48 52q38 36 86 70q36 26 72 58q42 38 42 84v126v118v2h140q0 -40 2 -158v-86q0 -106 -86 -186q-42 -38 -94 -76q-38 -26 -66 -52q-34 -38 -42 -52q-16 -26 -30 -56q-22 -58 -22 -108v-2q0 -108 70 -192q32 -34 42 -38 q68 -50 146 -50h2q90 0 168 68q30 30 40 46q50 76 50 164v38h138h2v-42q0 -102 -52 -204q-14 -22 -40 -58q-10 -16 -42 -46q-38 -34 -68 -50q-94 -56 -190 -56h-14q-100 0 -196 56q-26 16 -64 50q-42 46 -56 66q-24 34 -42 76q-34 86 -34 166zM402 1400v6q0 42 38 74 q26 24 64 24q40 0 72 -32q26 -32 26 -70q0 -48 -42 -80q-26 -18 -56 -18h-2q-52 0 -86 46q-14 26 -14 50z" />
<glyph unicode="&#xc0;" horiz-adv-x="1352" d="M34 0q144 366 572 1464h146q2 0 32 -76q174 -452 526 -1354q4 -8 14 -34h-2h-150q-6 8 -90 226q-42 112 -48 118h-714q-6 -8 -106 -270q-26 -68 -30 -74h-146h-2h-2zM374 486h608q-76 194 -304 778q-76 -194 -304 -778zM478 1806q18 30 74 118q82 -50 328 -204 q-18 -28 -72 -118q-84 50 -330 204z" />
<glyph unicode="&#xc1;" horiz-adv-x="1352" d="M34 0q144 366 572 1464h146q2 0 32 -76q174 -452 526 -1354q4 -8 14 -34h-2h-150q-6 8 -90 226q-42 112 -48 118h-714q-6 -8 -106 -270q-26 -68 -30 -74h-146h-2h-2zM374 486h608q-76 194 -304 778q-76 -194 -304 -778zM478 1720q82 50 330 204q18 -30 72 -118 q-82 -52 -328 -204q-20 30 -74 118z" />
<glyph unicode="&#xc2;" horiz-adv-x="1352" d="M34 0q144 366 572 1464h146q2 0 32 -76q174 -452 526 -1354q4 -8 14 -34h-2h-150q-6 8 -90 226q-42 112 -48 118h-714q-6 -8 -106 -270q-26 -68 -30 -74h-146h-2h-2zM374 486h608q-76 194 -304 778q-76 -194 -304 -778zM430 1692v2q50 60 204 242h90q4 -2 102 -120 q36 -42 104 -124q-26 -22 -106 -90q-2 2 -48 58q-94 108 -96 112q-48 -56 -144 -170q-28 22 -106 90z" />
<glyph unicode="&#xc3;" horiz-adv-x="1352" d="M34 0q144 366 572 1464h146q2 0 32 -76q174 -452 526 -1354q4 -8 14 -34h-2h-150q-6 8 -90 226q-42 112 -48 118h-714q-6 -8 -106 -270q-26 -68 -30 -74h-146h-2h-2zM374 486h608q-76 194 -304 778q-76 -194 -304 -778zM386 1630v154q30 34 62 50q46 26 88 26 q54 0 146 -50q94 -50 138 -50q42 0 86 30q30 18 68 62v-154q-32 -34 -62 -50q-48 -26 -92 -26q-50 0 -142 48q-94 50 -142 50q-40 0 -84 -30q-30 -18 -66 -60z" />
<glyph unicode="&#xc4;" horiz-adv-x="1352" d="M34 0q144 366 572 1464h146q2 0 32 -76q174 -452 526 -1354q4 -8 14 -34h-2h-150q-6 8 -90 226q-42 112 -48 118h-714q-6 -8 -106 -270q-26 -68 -30 -74h-146h-2h-2zM374 486h608q-76 194 -304 778q-76 -194 -304 -778zM410 1730v8q0 40 32 72q30 24 68 24q42 0 74 -34 q26 -30 26 -62v-6q0 -38 -34 -70q-30 -28 -66 -28q-52 0 -86 46q-14 28 -14 50zM750 1730v8q0 40 34 72q30 24 66 24q44 0 76 -34q24 -30 24 -62v-6q0 -38 -32 -70q-30 -28 -68 -28h-2q-50 0 -82 46q-16 28 -16 50z" />
<glyph unicode="&#xc5;" horiz-adv-x="1352" d="M34 0q144 366 572 1464q-8 6 -30 20q-16 12 -22 20q-12 18 -18 30q-18 36 -18 68v10q0 46 32 92q4 8 20 24q50 40 108 40h2q56 0 104 -38q18 -18 24 -26q32 -44 32 -96q0 -64 -48 -114q-2 -4 -8 -10q-16 -12 -32 -20q6 -8 32 -76q174 -452 526 -1354q4 -8 14 -34h-2h-150 q-6 8 -90 226q-42 112 -48 118h-714q-6 -8 -106 -270q-26 -68 -30 -74h-146h-2h-2zM374 486h608q-76 194 -304 778q-76 -194 -304 -778zM618 1608q0 -28 24 -48q18 -14 38 -14q28 0 48 24q12 20 12 38v2q0 22 -18 40q-18 20 -42 20t-42 -18q-20 -20 -20 -44z" />
<glyph unicode="&#xc6;" horiz-adv-x="1698" d="M34 0l232 400q54 92 214 368q64 108 254 436q36 64 146 252q2 2 6 8h704v-140h-564v-522h450l2 -2v-138h-452v-522h564v-140h-710v432h-448q-2 -2 -24 -42q-72 -124 -216 -368q-2 -6 -12 -22h-146zM512 572h368v634q-42 -76 -174 -302q-48 -82 -194 -332z" />
<glyph unicode="&#xc7;" horiz-adv-x="1408" d="M96 728v8q0 302 210 530q202 198 452 198h10q256 0 460 -208q92 -106 114 -162q-120 -62 -126 -62q-24 48 -66 104q-168 188 -384 188h-6q-226 0 -392 -202q-130 -176 -130 -386v-8q0 -246 168 -432q156 -156 360 -156q220 0 388 196q40 56 64 102q42 -22 124 -64 q-22 -62 -120 -174q-204 -200 -462 -200q-4 -14 -14 -58q16 -4 30 -8q42 -14 64 -54q18 -34 18 -70q0 -60 -48 -106q-44 -38 -100 -38q-70 0 -120 60q-8 8 -8 10q28 20 82 60q22 -28 46 -28q20 0 36 18q8 12 8 24q0 14 -6 22t-20 12q-18 2 -42 -6t-70 -24q10 48 38 194 q-210 38 -378 222q-180 224 -180 498z" />
<glyph unicode="&#xc8;" horiz-adv-x="1008" d="M172 0v1464h2h726h2v-138l-2 -2h-588v-522h470l2 -2v-136l-2 -2h-470v-522h588l2 -2v-138h-2h-726h-2zM336 1806q18 30 72 118q82 -50 330 -204q-18 -28 -74 -118q-82 50 -328 204z" />
<glyph unicode="&#xc9;" horiz-adv-x="1008" d="M172 0v1464h2h726h2v-138l-2 -2h-588v-522h470l2 -2v-136l-2 -2h-470v-522h588l2 -2v-138h-2h-726h-2zM336 1720q82 52 328 204q20 -30 74 -118q-82 -50 -330 -204q-18 30 -72 118z" />
<glyph unicode="&#xca;" horiz-adv-x="1008" d="M172 0v1464h2h726h2v-138l-2 -2h-588v-522h470l2 -2v-136l-2 -2h-470v-522h588l2 -2v-138h-2h-726h-2zM286 1692v2q52 60 206 242h90q2 -2 102 -120q34 -42 102 -124q-26 -22 -106 -90q-2 2 -48 58q-94 108 -96 112q-48 -56 -144 -170q-26 22 -106 90z" />
<glyph unicode="&#xcb;" horiz-adv-x="1008" d="M172 0v1464h2h726h2v-138l-2 -2h-588v-522h470l2 -2v-136l-2 -2h-470v-522h588l2 -2v-138h-2h-726h-2zM266 1730v8q0 40 34 72q30 24 68 24q42 0 74 -34q24 -30 24 -62v-6q0 -38 -32 -70q-30 -28 -66 -28h-2q-52 0 -84 46q-16 28 -16 50zM608 1730v8q0 40 32 72 q30 24 66 24q44 0 76 -34q26 -30 26 -62v-6q0 -38 -34 -70q-30 -28 -68 -28q-50 0 -84 46q-14 28 -14 50z" />
<glyph unicode="&#xcc;" horiz-adv-x="484" d="M56 1786q20 30 74 118l296 -184q-18 -28 -74 -118zM172 0v1464h2h138v-1464h-138h-2z" />
<glyph unicode="&#xcd;" horiz-adv-x="484" d="M56 1720q76 46 298 184q18 -30 72 -118l-296 -184q-18 30 -74 118zM172 0v1464h2h138v-1464h-138h-2z" />
<glyph unicode="&#xce;" horiz-adv-x="484" d="M-8 1692v2q50 60 206 242h88q2 -2 104 -120q34 -42 102 -124q-26 -22 -106 -90q-2 2 -50 58q-92 108 -94 112q-48 -56 -144 -170h-2q-26 22 -104 90zM172 0v1464h2h138v-1464h-138h-2z" />
<glyph unicode="&#xcf;" horiz-adv-x="484" d="M-28 1730v8q0 40 34 72q28 24 66 24q42 0 74 -34q26 -30 26 -62v-6q0 -38 -34 -70q-28 -28 -66 -28q-52 0 -86 46q-14 28 -14 50zM172 0v1464h2h138v-1464h-138h-2zM312 1730v8q0 40 32 72q32 24 68 24q44 0 76 -34q24 -30 24 -62v-6q0 -38 -32 -70q-32 -28 -68 -28h-2 q-50 0 -82 46q-16 28 -16 50z" />
<glyph unicode="&#xd0;" horiz-adv-x="1384" d="M112 662v140h112v660q2 0 4 2h354q250 0 456 -174q92 -88 114 -126q138 -196 138 -432q0 -286 -202 -508q-212 -224 -526 -224h-334l-4 2v660h-112zM366 140h196q312 0 494 266q94 156 94 326q0 258 -196 446q-60 52 -112 80q-128 66 -260 66h-216v-522h186v-140h-186 v-522z" />
<glyph unicode="&#xd1;" horiz-adv-x="1422" d="M172 2v1460l4 2h170q8 -8 536 -872q76 -124 226 -370h2v1240l2 2h136l2 -2v-1460l-2 -2h-166q-14 16 -74 120q-6 6 -536 874q-50 84 -152 248v-1240q-2 0 -4 -2h-140q-2 0 -4 2zM416 1630v154q32 34 62 50q48 26 90 26q52 0 146 -50q92 -50 136 -50q42 0 86 30 q32 18 68 62v-154q-30 -34 -60 -50q-48 -26 -94 -26q-48 0 -142 48q-92 50 -140 50q-40 0 -86 -30q-28 -18 -66 -60z" />
<glyph unicode="&#xd2;" horiz-adv-x="1544" d="M98 726v12q0 268 178 488q70 78 102 100q184 138 396 138h4q256 0 460 -194q74 -82 100 -128q116 -188 116 -406v-8q0 -302 -214 -530q-202 -198 -464 -198q-256 0 -460 194q-90 98 -110 142q-108 184 -108 390zM240 728q0 -244 172 -432q162 -156 364 -156 q240 0 412 212q124 174 124 376v8q0 244 -172 432q-162 156 -364 156q-228 0 -398 -194q-138 -176 -138 -394v-8zM576 1806q18 30 72 118q82 -50 330 -204q-18 -28 -74 -118q-82 50 -328 204z" />
<glyph unicode="&#xd3;" horiz-adv-x="1544" d="M98 726v12q0 268 178 488q70 78 102 100q184 138 396 138h4q256 0 460 -194q74 -82 100 -128q116 -188 116 -406v-8q0 -302 -214 -530q-202 -198 -464 -198q-256 0 -460 194q-90 98 -110 142q-108 184 -108 390zM240 728q0 -244 172 -432q162 -156 364 -156 q240 0 412 212q124 174 124 376v8q0 244 -172 432q-162 156 -364 156q-228 0 -398 -194q-138 -176 -138 -394v-8zM576 1720q82 52 328 204q20 -30 74 -118q-82 -50 -330 -204q-18 30 -72 118z" />
<glyph unicode="&#xd4;" horiz-adv-x="1544" d="M98 726v12q0 268 178 488q70 78 102 100q184 138 396 138h4q256 0 460 -194q74 -82 100 -128q116 -188 116 -406v-8q0 -302 -214 -530q-202 -198 -464 -198q-256 0 -460 194q-90 98 -110 142q-108 184 -108 390zM240 728q0 -244 172 -432q162 -156 364 -156 q240 0 412 212q124 174 124 376v8q0 244 -172 432q-162 156 -364 156q-228 0 -398 -194q-138 -176 -138 -394v-8zM526 1692v2q52 60 206 242h90q2 -2 102 -120q34 -42 102 -124q-26 -22 -106 -90q-2 2 -48 58q-94 108 -96 112q-48 -56 -144 -170q-26 22 -106 90z" />
<glyph unicode="&#xd5;" horiz-adv-x="1544" d="M98 726v12q0 268 178 488q70 78 102 100q184 138 396 138h4q256 0 460 -194q74 -82 100 -128q116 -188 116 -406v-8q0 -302 -214 -530q-202 -198 -464 -198q-256 0 -460 194q-90 98 -110 142q-108 184 -108 390zM240 728q0 -244 172 -432q162 -156 364 -156 q240 0 412 212q124 174 124 376v8q0 244 -172 432q-162 156 -364 156q-228 0 -398 -194q-138 -176 -138 -394v-8zM482 1630v154q32 34 62 50q48 26 90 26q52 0 146 -50q92 -50 138 -50q40 0 84 30q30 18 68 62v-154q-30 -34 -62 -50q-46 -26 -90 -26q-50 0 -144 48 q-92 50 -140 50q-40 0 -84 -30q-30 -18 -68 -60z" />
<glyph unicode="&#xd6;" horiz-adv-x="1544" d="M98 726v12q0 268 178 488q70 78 102 100q184 138 396 138h4q256 0 460 -194q74 -82 100 -128q116 -188 116 -406v-8q0 -302 -214 -530q-202 -198 -464 -198q-256 0 -460 194q-90 98 -110 142q-108 184 -108 390zM240 728q0 -244 172 -432q162 -156 364 -156 q240 0 412 212q124 174 124 376v8q0 244 -172 432q-162 156 -364 156q-228 0 -398 -194q-138 -176 -138 -394v-8zM506 1730v8q0 40 32 72q30 24 68 24q42 0 74 -34q26 -30 26 -62v-6q0 -38 -34 -70q-30 -28 -66 -28q-52 0 -86 46q-14 28 -14 50zM846 1730v8q0 40 34 72 q30 24 66 24q44 0 76 -34q24 -30 24 -62v-6q0 -38 -32 -70q-30 -28 -68 -28h-2q-50 0 -82 46q-16 28 -16 50z" />
<glyph unicode="&#xd7;" horiz-adv-x="792" d="M96 286l202 202q-50 50 -202 200q24 26 98 100q52 -50 204 -202q50 50 200 202q24 -24 98 -100l-200 -200q50 -52 200 -202q-24 -26 -98 -100q-50 50 -200 202q-52 -50 -204 -202q-24 24 -98 100z" />
<glyph unicode="&#xd8;" horiz-adv-x="1544" d="M98 726v12q0 268 178 488q70 78 102 100q184 138 396 138h4q174 0 324 -90q28 46 114 184v2q30 -18 118 -70v-2q-32 -48 -122 -196q12 -12 26 -22q74 -82 100 -128q116 -188 116 -406v-8q0 -302 -214 -530q-202 -198 -464 -198q-168 0 -314 82q-32 -50 -94 -152 q-30 18 -118 70q24 42 100 162q-16 16 -34 32q-90 98 -110 142q-108 184 -108 390zM240 728q0 -244 172 -432l12 -12q202 324 602 972q-114 68 -250 68q-228 0 -398 -194q-138 -176 -138 -394v-8zM536 202q112 -62 240 -62q240 0 412 212q124 174 124 376v8q0 244 -172 432 q-2 2 -4 2z" />
<glyph unicode="&#xd9;" horiz-adv-x="1386" d="M170 522v940l4 2h132q2 0 4 -2v-938q0 -234 168 -346q74 -38 146 -38h138q152 0 250 140q66 102 66 258v924l2 2h136l2 -2v-924q0 -324 -232 -474q-106 -64 -220 -64h-144q-168 0 -302 128q-150 156 -150 394zM492 1806q18 30 74 118q82 -50 330 -204q-20 -28 -74 -118 q-84 50 -330 204z" />
<glyph unicode="&#xda;" horiz-adv-x="1386" d="M170 522v940l4 2h132q2 0 4 -2v-938q0 -234 168 -346q74 -38 146 -38h138q152 0 250 140q66 102 66 258v924l2 2h136l2 -2v-924q0 -324 -232 -474q-106 -64 -220 -64h-144q-168 0 -302 128q-150 156 -150 394zM492 1720q82 52 330 204q18 -30 74 -118q-84 -50 -330 -204 q-18 30 -74 118z" />
<glyph unicode="&#xdb;" horiz-adv-x="1386" d="M170 522v940l4 2h132q2 0 4 -2v-938q0 -234 168 -346q74 -38 146 -38h138q152 0 250 140q66 102 66 258v924l2 2h136l2 -2v-924q0 -324 -232 -474q-106 -64 -220 -64h-144q-168 0 -302 128q-150 156 -150 394zM442 1692v2q52 60 206 242h90q4 -2 102 -120 q36 -42 104 -124q-26 -22 -106 -90q-4 2 -48 58q-94 108 -96 112q-48 -56 -144 -170q-28 22 -108 90z" />
<glyph unicode="&#xdc;" horiz-adv-x="1386" d="M170 522v940l4 2h132q2 0 4 -2v-938q0 -234 168 -346q74 -38 146 -38h138q152 0 250 140q66 102 66 258v924l2 2h136l2 -2v-924q0 -324 -232 -474q-106 -64 -220 -64h-144q-168 0 -302 128q-150 156 -150 394zM424 1730v8q0 40 32 72q32 24 68 24q44 0 76 -34 q24 -30 24 -62v-6q0 -38 -32 -70q-32 -28 -68 -28h-2q-50 0 -82 46q-16 28 -16 50zM764 1730v8q0 40 34 72q28 24 66 24q42 0 74 -34q26 -30 26 -62v-6q0 -38 -34 -70q-28 -28 -66 -28q-52 0 -86 46q-14 28 -14 50z" />
<glyph unicode="&#xdd;" horiz-adv-x="1192" d="M30 1462v2h172q18 -24 390 -598q2 0 6 -4q100 150 396 602h170l4 -2l-496 -744v-716l-2 -2h-144l-2 2v716q-124 186 -494 744zM398 1720q82 52 330 204q18 -30 72 -118q-82 -50 -328 -204q-20 30 -74 118z" />
<glyph unicode="&#xde;" horiz-adv-x="1306" d="M152 0v1464h2h138h2v-274h436q246 0 382 -130q34 -38 46 -56q22 -34 34 -64q26 -68 26 -138v-140q0 -100 -52 -192q-66 -106 -202 -158q-104 -38 -222 -38h-448v-274h-2h-138h-2zM294 412h442q176 0 272 84q72 68 72 170v130q0 114 -86 182q-22 18 -38 28q-26 12 -70 26 q-66 20 -166 20h-426v-640z" />
<glyph unicode="&#xdf;" horiz-adv-x="1304" d="M152 2v1136q0 64 62 164q116 162 338 162h12q198 0 322 -96q92 -82 92 -198q0 -124 -112 -266q-62 -96 -62 -136v-8q0 -66 156 -140q76 -44 152 -116q96 -102 96 -202v-20q0 -102 -98 -204q-128 -116 -290 -116h-2q-224 0 -368 228v4q30 18 118 70q104 -160 252 -160 q114 0 202 84q48 58 48 98v10q0 112 -250 240q-156 96 -156 222v10q0 106 130 278q44 68 44 124q0 128 -234 152h-44h-8q-182 0 -246 -140q-12 -36 -12 -52v-1128q-2 0 -4 -2h-134z" />
<glyph unicode="&#xe0;" d="M92 470v10q0 190 134 336q142 144 340 144q196 0 314 -162q0 -2 2 -6v156q2 0 4 4h134q0 -2 4 -4v-946q-2 0 -4 -2h-134q-2 0 -4 2v156q-108 -166 -326 -166h-2q-194 0 -340 154q-122 148 -122 324zM232 474q0 -168 134 -276q84 -66 186 -66q218 0 302 212q20 64 20 126 v20q0 88 -54 182q-94 146 -252 146q-210 0 -306 -200q-30 -72 -30 -138v-6zM356 1292q18 30 74 118q82 -50 330 -202q-20 -30 -74 -120q-84 52 -330 204z" />
<glyph unicode="&#xe1;" d="M92 470v10q0 190 134 336q142 144 340 144q196 0 314 -162q0 -2 2 -6v156q2 0 4 4h134q0 -2 4 -4v-946q-2 0 -4 -2h-134q-2 0 -4 2v156q-108 -166 -326 -166h-2q-194 0 -340 154q-122 148 -122 324zM232 474q0 -168 134 -276q84 -66 186 -66q218 0 302 212q20 64 20 126 v20q0 88 -54 182q-94 146 -252 146q-210 0 -306 -200q-30 -72 -30 -138v-6zM356 1206q82 52 330 204q18 -30 74 -120q-84 -50 -330 -202q-20 30 -74 118z" />
<glyph unicode="&#xe2;" d="M92 470v10q0 190 134 336q142 144 340 144q196 0 314 -162q0 -2 2 -6v156q2 0 4 4h134q0 -2 4 -4v-946q-2 0 -4 -2h-134q-2 0 -4 2v156q-108 -166 -326 -166h-2q-194 0 -340 154q-122 148 -122 324zM232 474q0 -168 134 -276q84 -66 186 -66q218 0 302 212q20 64 20 126 v20q0 88 -54 182q-94 146 -252 146q-210 0 -306 -200q-30 -72 -30 -138v-6zM304 1176v2q52 60 208 244h88q2 -4 104 -122q34 -42 102 -124q-26 -22 -106 -88q-4 0 -50 56q-92 110 -94 112l-144 -168h-2q-26 22 -106 88z" />
<glyph unicode="&#xe3;" d="M92 470v10q0 190 134 336q142 144 340 144q196 0 314 -162q0 -2 2 -6v156q2 0 4 4h134q0 -2 4 -4v-946q-2 0 -4 -2h-134q-2 0 -4 2v156q-108 -166 -326 -166h-2q-194 0 -340 154q-122 148 -122 324zM232 474q0 -168 134 -276q84 -66 186 -66q218 0 302 212q20 64 20 126 v20q0 88 -54 182q-94 146 -252 146q-210 0 -306 -200q-30 -72 -30 -138v-6zM264 1114v156q32 34 62 50q48 26 90 26q52 0 146 -50q94 -48 138 -48q42 0 86 26q30 20 68 64v-154q-32 -34 -62 -50q-48 -26 -92 -26q-50 0 -142 48q-94 50 -142 50q-40 0 -86 -30 q-28 -18 -66 -62z" />
<glyph unicode="&#xe4;" d="M92 470v10q0 190 134 336q142 144 340 144q196 0 314 -162q0 -2 2 -6v156q2 0 4 4h134q0 -2 4 -4v-946q-2 0 -4 -2h-134q-2 0 -4 2v156q-108 -166 -326 -166h-2q-194 0 -340 154q-122 148 -122 324zM232 474q0 -168 134 -276q84 -66 186 -66q218 0 302 212q20 64 20 126 v20q0 88 -54 182q-94 146 -252 146q-210 0 -306 -200q-30 -72 -30 -138v-6zM288 1216v8q0 38 32 70q32 26 68 26q44 0 76 -34q24 -30 24 -62v-8q0 -40 -32 -72q-32 -24 -68 -24h-2q-50 0 -82 46q-16 26 -16 50zM628 1216v8q0 38 34 70q28 26 66 26q42 0 74 -34 q26 -30 26 -62v-8q0 -40 -34 -72q-28 -24 -66 -24q-52 0 -86 46q-14 26 -14 50z" />
<glyph unicode="&#xe5;" d="M92 470v10q0 190 134 336q142 144 340 144q196 0 314 -162q0 -2 2 -6v156q2 0 4 4h134q0 -2 4 -4v-946q-2 0 -4 -2h-134q-2 0 -4 2v156q-108 -166 -326 -166h-2q-194 0 -340 154q-122 148 -122 324zM232 474q0 -168 134 -276q84 -66 186 -66q218 0 302 212q20 64 20 126 v20q0 88 -54 182q-94 146 -252 146q-210 0 -306 -200q-30 -72 -30 -138v-6zM398 1234v8q0 48 30 92q6 10 22 26q48 40 108 40h2q56 0 104 -40q18 -16 24 -24q32 -46 32 -96q0 -66 -48 -116q-4 -4 -8 -10q-48 -36 -106 -36q-56 0 -104 36q-14 14 -20 22q-12 16 -18 30 q-18 34 -18 68zM504 1240q0 -26 22 -42q16 -14 34 -14q24 0 40 22q12 16 12 34q0 22 -14 38q-18 16 -38 16q-24 0 -40 -16t-16 -38z" />
<glyph unicode="&#xe6;" horiz-adv-x="1904" d="M92 470v10q0 190 134 336q142 144 340 144q196 0 314 -162q0 -2 2 -6v156q2 0 4 4h134q0 -2 4 -4v-164q16 24 36 44q134 132 314 132q204 0 352 -184q98 -142 98 -278v-12q0 -46 -8 -46h-758q0 -48 40 -136q60 -112 174 -154q54 -20 98 -20q136 0 238 120q34 48 46 78h2 q80 -32 126 -56q-22 -62 -98 -146q-138 -134 -314 -134q-202 0 -346 170v-160q-2 0 -4 -2h-134q-2 0 -4 2v156q-108 -166 -326 -166h-2q-194 0 -340 154q-122 148 -122 324zM232 474q0 -168 134 -276q84 -66 186 -66q218 0 302 212q20 64 20 126v20q0 88 -54 182 q-94 146 -252 146q-210 0 -306 -200q-30 -72 -30 -138v-6zM1072 578h598q-44 132 -142 192q-74 48 -160 48q-146 0 -248 -136q-32 -48 -48 -104z" />
<glyph unicode="&#xe7;" horiz-adv-x="1000" d="M90 470v10q0 198 148 350q140 128 300 128h26q148 0 282 -110q66 -64 86 -100q-38 -26 -116 -78q-62 96 -176 134q-40 12 -82 12h-16q-120 0 -222 -102q-90 -106 -90 -240v-4q0 -142 108 -252q96 -88 214 -88q144 0 250 130q4 6 14 20q30 -18 120 -74q-88 -136 -248 -192 q-72 -22 -136 -22h-22q-2 -14 -10 -50q16 -4 30 -8q42 -14 64 -54q18 -34 18 -70q0 -60 -48 -106q-46 -38 -102 -38q-68 0 -120 60q-8 8 -8 10l84 60q20 -28 44 -28q22 0 38 18q8 12 8 24q0 14 -8 22q-6 8 -20 12q-18 2 -42 -6t-68 -24q8 48 38 194q-102 30 -190 112 q-148 152 -148 350z" />
<glyph unicode="&#xe8;" horiz-adv-x="1054" d="M66 470v8q0 200 144 350q134 132 312 132q206 0 354 -184q98 -142 98 -278v-12q0 -46 -6 -46h-760q0 -48 40 -136q60 -112 174 -154q54 -20 98 -20q136 0 238 120q34 48 44 78h4q80 -32 126 -56q-22 -62 -98 -146q-138 -134 -314 -134q-208 0 -356 182q-98 138 -98 296z M222 578h596q-42 132 -140 192q-74 48 -160 48q-146 0 -248 -136q-32 -48 -48 -104zM320 1292q18 30 72 118q82 -50 330 -202q-18 -30 -74 -120q-82 52 -328 204z" />
<glyph unicode="&#xe9;" horiz-adv-x="1054" d="M66 470v8q0 200 144 350q134 132 312 132q206 0 354 -184q98 -142 98 -278v-12q0 -46 -6 -46h-760q0 -48 40 -136q60 -112 174 -154q54 -20 98 -20q136 0 238 120q34 48 44 78h4q80 -32 126 -56q-22 -62 -98 -146q-138 -134 -314 -134q-208 0 -356 182q-98 138 -98 296z M222 578h596q-42 132 -140 192q-74 48 -160 48q-146 0 -248 -136q-32 -48 -48 -104zM320 1208q82 50 328 202q20 -30 74 -118q-82 -50 -330 -204z" />
<glyph unicode="&#xea;" horiz-adv-x="1054" d="M66 470v8q0 200 144 350q134 132 312 132q206 0 354 -184q98 -142 98 -278v-12q0 -46 -6 -46h-760q0 -48 40 -136q60 -112 174 -154q54 -20 98 -20q136 0 238 120q34 48 44 78h4q80 -32 126 -56q-22 -62 -98 -146q-138 -134 -314 -134q-208 0 -356 182q-98 138 -98 296z M222 578h596q-42 132 -140 192q-74 48 -160 48q-146 0 -248 -136q-32 -48 -48 -104zM270 1178q52 62 206 244h90q2 -2 102 -120q34 -42 102 -124q-26 -22 -106 -90q-2 2 -48 58q-94 110 -96 112q-48 -56 -144 -170q-26 22 -106 90z" />
<glyph unicode="&#xeb;" horiz-adv-x="1054" d="M66 470v8q0 200 144 350q134 132 312 132q206 0 354 -184q98 -142 98 -278v-12q0 -46 -6 -46h-760q0 -48 40 -136q60 -112 174 -154q54 -20 98 -20q136 0 238 120q34 48 44 78h4q80 -32 126 -56q-22 -62 -98 -146q-138 -134 -314 -134q-208 0 -356 182q-98 138 -98 296z M222 578h596q-42 132 -140 192q-74 48 -160 48q-146 0 -248 -136q-32 -48 -48 -104zM250 1216v8q0 38 32 70q30 26 68 26q42 0 74 -34q26 -30 26 -62v-8q0 -40 -34 -72q-30 -24 -66 -24q-52 0 -86 46q-14 26 -14 50zM590 1216v8q0 38 34 70q30 26 66 26q44 0 76 -34 q24 -30 24 -62v-8q0 -40 -32 -72q-30 -24 -68 -24h-2q-50 0 -82 46q-16 26 -16 50z" />
<glyph unicode="&#xec;" horiz-adv-x="466" d="M32 1292q18 30 72 118q82 -50 330 -202q-18 -30 -74 -120q-82 52 -328 204zM162 0v950h2h138h2v-950h-2h-138h-2z" />
<glyph unicode="&#xed;" horiz-adv-x="466" d="M32 1208q82 50 328 202q20 -30 74 -118q-82 -50 -330 -204zM162 0v950h2h138h2v-950h-2h-138h-2z" />
<glyph unicode="&#xee;" horiz-adv-x="466" d="M-18 1178q52 62 206 244h90q2 -2 102 -120q34 -42 102 -124q-26 -22 -106 -90q-2 2 -48 58q-94 110 -96 112q-48 -56 -144 -170q-26 22 -106 90zM162 0v950h2h138h2v-950h-2h-138h-2z" />
<glyph unicode="&#xef;" horiz-adv-x="466" d="M-16 1216v8q0 38 32 70q30 26 66 26q44 0 76 -34q26 -30 26 -62v-8q0 -40 -34 -72q-30 -24 -68 -24q-50 0 -84 46q-14 26 -14 50zM162 0v950h2h138h2v-950h-2h-138h-2zM282 1216v8q0 38 34 70q30 26 68 26q42 0 74 -34q24 -30 24 -62v-8q0 -40 -32 -72q-30 -24 -66 -24 h-2q-52 0 -84 46q-16 26 -16 50z" />
<glyph unicode="&#xf0;" horiz-adv-x="1138" />
<glyph unicode="&#xf1;" horiz-adv-x="1130" d="M152 2v932q2 0 4 2h134l4 -2v-94q108 110 268 110h18q282 0 378 -214q26 -64 26 -136v-598q-2 0 -4 -2h-134q-2 0 -4 2v598q0 148 -150 198q-36 12 -138 12q-124 0 -186 -52q-74 -48 -74 -166v-590q-2 0 -4 -2h-134zM274 1114v156q30 34 62 50q46 26 88 26q54 0 146 -50 q94 -48 140 -48q40 0 84 26q30 20 68 64v-154q-30 -34 -62 -50q-46 -26 -90 -26q-50 0 -144 48q-94 50 -142 50q-40 0 -84 -30q-30 -18 -66 -62z" />
<glyph unicode="&#xf2;" horiz-adv-x="1104" d="M90 470v10q0 198 148 350q140 128 300 128h26q154 0 292 -120q158 -152 158 -364q0 -214 -166 -370q-136 -112 -296 -112q-174 0 -314 128q-148 152 -148 350zM230 470q0 -142 106 -250q96 -90 216 -90q150 0 256 140q64 98 64 204q0 152 -112 262q-94 80 -202 80h-16 q-118 0 -222 -102q-90 -106 -90 -240v-4zM350 1292q18 30 74 118q82 -50 328 -202l-72 -120q-84 52 -330 204z" />
<glyph unicode="&#xf3;" horiz-adv-x="1104" d="M90 470v10q0 198 148 350q140 128 300 128h26q154 0 292 -120q158 -152 158 -364q0 -214 -166 -370q-136 -112 -296 -112q-174 0 -314 128q-148 152 -148 350zM230 470q0 -142 106 -250q96 -90 216 -90q150 0 256 140q64 98 64 204q0 152 -112 262q-94 80 -202 80h-16 q-118 0 -222 -102q-90 -106 -90 -240v-4zM328 1208q82 50 330 202q18 -30 72 -118q-82 -50 -328 -204q-18 30 -74 120z" />
<glyph unicode="&#xf4;" horiz-adv-x="1104" d="M90 470v10q0 198 148 350q140 128 300 128h26q154 0 292 -120q158 -152 158 -364q0 -214 -166 -370q-136 -112 -296 -112q-174 0 -314 128q-148 152 -148 350zM230 470q0 -142 106 -250q96 -90 216 -90q150 0 256 140q64 98 64 204q0 152 -112 262q-94 80 -202 80h-16 q-118 0 -222 -102q-90 -106 -90 -240v-4zM302 1178q50 62 204 244h90q4 -2 102 -120q36 -42 104 -124q-26 -22 -106 -90q-2 2 -48 58q-94 110 -96 112q-48 -56 -144 -170q-28 22 -106 90z" />
<glyph unicode="&#xf5;" horiz-adv-x="1104" d="M90 470v10q0 198 148 350q140 128 300 128h26q154 0 292 -120q158 -152 158 -364q0 -214 -166 -370q-136 -112 -296 -112q-174 0 -314 128q-148 152 -148 350zM230 470q0 -142 106 -250q96 -90 216 -90q150 0 256 140q64 98 64 204q0 152 -112 262q-94 80 -202 80h-16 q-118 0 -222 -102q-90 -106 -90 -240v-4zM258 1114v156q30 34 62 50q46 26 88 26q54 0 146 -50q94 -48 140 -48q40 0 84 26q30 20 68 64v-154q-30 -34 -62 -50q-46 -26 -90 -26q-50 0 -144 48q-94 50 -142 50q-40 0 -84 -30q-30 -18 -66 -62z" />
<glyph unicode="&#xf6;" horiz-adv-x="1104" d="M90 470v10q0 198 148 350q140 128 300 128h26q154 0 292 -120q158 -152 158 -364q0 -214 -166 -370q-136 -112 -296 -112q-174 0 -314 128q-148 152 -148 350zM230 470q0 -142 106 -250q96 -90 216 -90q150 0 256 140q64 98 64 204q0 152 -112 262q-94 80 -202 80h-16 q-118 0 -222 -102q-90 -106 -90 -240v-4zM282 1216v8q0 38 32 70q30 26 68 26q42 0 74 -34q26 -30 26 -62v-8q0 -40 -34 -72q-30 -24 -66 -24q-52 0 -86 46q-14 26 -14 50zM622 1216v8q0 38 34 70q30 26 66 26q44 0 76 -34q24 -30 24 -62v-8q0 -40 -32 -72q-30 -24 -68 -24 h-2q-50 0 -82 46q-16 26 -16 50z" />
<glyph unicode="&#xf7;" horiz-adv-x="864" d="M96 420v140h672v-140h-672zM334 192v8q0 38 32 70q28 26 66 26h2q44 0 76 -36q24 -30 24 -60v-8q0 -42 -38 -74q-28 -22 -64 -22q-38 0 -70 26q-28 32 -28 70zM334 782v8q0 36 32 68q28 28 66 28h2q44 0 76 -36q24 -30 24 -60v-6q0 -44 -38 -76q-28 -22 -64 -22 q-38 0 -70 26q-28 32 -28 70z" />
<glyph unicode="&#xf8;" horiz-adv-x="1104" d="M90 470v10q0 198 148 350q140 128 300 128h26q92 0 178 -44q18 34 76 134v2q30 -18 120 -68v-4q-20 -34 -82 -140q158 -154 158 -364q0 -214 -166 -370q-136 -112 -296 -112q-88 0 -166 32q-24 -40 -68 -120h-2q-30 18 -120 70q18 30 70 122q-14 10 -28 24 q-148 152 -148 350zM230 470q0 -142 106 -250q0 -2 2 -2q110 192 332 574q-54 24 -112 24h-16q-118 0 -222 -102q-90 -106 -90 -240v-4zM456 146q46 -16 96 -16q150 0 256 140q64 98 64 204q0 134 -88 236q-82 -140 -328 -564z" />
<glyph unicode="&#xf9;" horiz-adv-x="1130" d="M148 344v602q0 2 4 4h134l2 -4v-596q0 -158 168 -200q32 -10 112 -10q104 0 154 28q78 36 102 102q14 46 14 90v586q0 2 2 4h136l2 -4v-930l-2 -2h-136l-2 2v94q-110 -110 -278 -110q-178 0 -278 76q-134 102 -134 268zM362 1292q18 30 72 118q84 -50 332 -202 q-20 -30 -76 -120q-82 52 -328 204z" />
<glyph unicode="&#xfa;" horiz-adv-x="1130" d="M148 344v602q0 2 4 4h134l2 -4v-596q0 -158 168 -200q32 -10 112 -10q104 0 154 28q78 36 102 102q14 46 14 90v586q0 2 2 4h136l2 -4v-930l-2 -2h-136l-2 2v94q-110 -110 -278 -110q-178 0 -278 76q-134 102 -134 268zM362 1208q82 50 330 202q18 -30 74 -118 q-84 -50 -330 -204q-18 30 -74 120z" />
<glyph unicode="&#xfb;" horiz-adv-x="1130" d="M148 344v602q0 2 4 4h134l2 -4v-596q0 -158 168 -200q32 -10 112 -10q104 0 154 28q78 36 102 102q14 46 14 90v586q0 2 2 4h136l2 -4v-930l-2 -2h-136l-2 2v94q-110 -110 -278 -110q-178 0 -278 76q-134 102 -134 268zM312 1178q52 62 208 244h88q2 -2 104 -120 q34 -42 102 -124q-26 -22 -106 -90q-4 2 -50 58q-92 110 -94 112q-48 -56 -144 -170h-2q-26 22 -106 90z" />
<glyph unicode="&#xfc;" horiz-adv-x="1130" d="M148 344v602q0 2 4 4h134l2 -4v-596q0 -158 168 -200q32 -10 112 -10q104 0 154 28q78 36 102 102q14 46 14 90v586q0 2 2 4h136l2 -4v-930l-2 -2h-136l-2 2v94q-110 -110 -278 -110q-178 0 -278 76q-134 102 -134 268zM294 1216v8q0 38 32 70q30 26 66 26q44 0 76 -34 q26 -30 26 -62v-8q0 -40 -34 -72q-30 -24 -68 -24q-50 0 -84 46q-14 26 -14 50zM632 1216v8q0 38 34 70q30 26 68 26q42 0 74 -34q24 -30 24 -62v-8q0 -40 -32 -72q-30 -24 -66 -24h-2q-52 0 -84 46q-16 26 -16 50z" />
<glyph unicode="&#xfd;" horiz-adv-x="1022" d="M34 950h158q2 0 46 -104q90 -216 272 -648q2 4 116 266q206 486 208 486h152q-134 -310 -532 -1240q-16 -36 -62 -142h-150v2q48 112 190 448q-98 234 -398 932zM308 1208q82 50 330 202q18 -30 74 -118q-84 -50 -330 -204q-18 30 -74 120z" />
<glyph unicode="&#xfe;" horiz-adv-x="1178" d="M152 -400v1864h2h138h2v-672q110 168 324 168q2 0 2 -2h2l2 2q172 0 312 -128q72 -78 102 -144q46 -104 46 -200v-24q0 -184 -140 -336q-142 -136 -334 -136q-196 0 -314 160q0 2 -2 6v-558h-140h-2zM302 464q0 -120 88 -232q88 -100 218 -100q200 0 298 182 q38 78 38 156v14q0 138 -106 246q-94 88 -214 88q-216 0 -298 -210q-24 -64 -24 -134v-10z" />
<glyph unicode="&#xff;" horiz-adv-x="1022" d="M34 950h158q2 0 46 -104q90 -216 272 -648q2 4 116 266q206 486 208 486h152q-134 -310 -532 -1240q-16 -36 -62 -142h-150v2q48 112 190 448q-98 234 -398 932zM240 1216v8q0 38 32 70q32 26 68 26q44 0 76 -34q24 -30 24 -62v-8q0 -40 -32 -72q-32 -24 -68 -24h-2 q-50 0 -82 46q-16 26 -16 50zM580 1216v8q0 38 34 70q28 26 66 26q42 0 74 -34q26 -30 26 -62v-8q0 -40 -34 -72q-28 -24 -66 -24q-52 0 -86 46q-14 26 -14 50z" />
<glyph unicode="&#x152;" horiz-adv-x="2212" d="M98 724v14q0 268 178 490q72 76 102 98q184 138 394 138h8q254 0 456 -196q78 -80 102 -128q116 -186 116 -404v-8q0 -302 -214 -530q-202 -198 -464 -198q-256 0 -460 194q-90 98 -110 144q-108 182 -108 386zM238 728q0 -244 174 -432q162 -156 364 -156q240 0 412 212 q126 174 126 376v8q0 244 -174 432q-162 156 -364 156q-228 0 -396 -192q-142 -178 -142 -394v-10zM1330 0v1462v2h728v-2v-138h-588v-522h470v-2v-138h-470v-522h588v-2v-138h-728z" />
<glyph unicode="&#x153;" horiz-adv-x="1844" d="M90 468v14q0 194 148 348q140 128 300 128h26q154 0 292 -120q156 -152 156 -364q0 -214 -164 -370q-136 -112 -296 -112q-174 0 -314 128q-148 152 -148 348zM230 470q0 -142 106 -250q98 -90 216 -90q150 0 256 140q64 96 64 206q0 150 -112 260q-94 82 -202 82h-16 q-118 0 -222 -104q-90 -104 -90 -238v-6zM884 476v10q0 200 142 350q134 130 314 130q206 0 352 -182q98 -142 98 -278v-12q0 -46 -6 -46h-760q0 -48 40 -136q60 -112 174 -156q54 -18 98 -18q138 0 238 120q34 48 46 76h2q80 -32 126 -54q-22 -62 -98 -146 q-138 -136 -312 -136q-210 0 -358 184q-96 138 -96 294zM1038 586h598q-42 130 -142 192q-72 48 -158 48q-146 0 -250 -136q-32 -48 -48 -104z" />
<glyph unicode="&#x2c6;" horiz-adv-x="984" d="M242 1692v2q52 60 206 242h88q4 -2 104 -120q34 -42 104 -124q-28 -22 -106 -90q-4 2 -50 58q-92 108 -94 112q-48 -56 -144 -170h-2q-26 22 -106 90z" />
<glyph unicode="&#x2dc;" horiz-adv-x="1146" d="M192 1612v168q34 34 64 50q58 26 100 26q52 0 204 -50q150 -48 194 -48q52 0 96 28q40 18 78 62v-168q-32 -34 -72 -50q-46 -26 -102 -26q-48 0 -198 50q-152 48 -200 48q-40 0 -94 -28q-30 -20 -70 -62z" />
<glyph unicode="&#x2000;" horiz-adv-x="968" />
<glyph unicode="&#x2001;" horiz-adv-x="1936" />
<glyph unicode="&#x2002;" horiz-adv-x="968" />
<glyph unicode="&#x2003;" horiz-adv-x="1936" />
<glyph unicode="&#x2004;" horiz-adv-x="645" />
<glyph unicode="&#x2005;" horiz-adv-x="484" />
<glyph unicode="&#x2006;" horiz-adv-x="322" />
<glyph unicode="&#x2007;" horiz-adv-x="322" />
<glyph unicode="&#x2008;" horiz-adv-x="242" />
<glyph unicode="&#x2009;" horiz-adv-x="387" />
<glyph unicode="&#x200a;" horiz-adv-x="107" />
<glyph unicode="&#x2010;" horiz-adv-x="864" d="M76 420v140h706v-140h-706z" />
<glyph unicode="&#x2011;" horiz-adv-x="864" d="M76 420v140h706v-140h-706z" />
<glyph unicode="&#x2012;" horiz-adv-x="864" d="M76 420v140h706v-140h-706z" />
<glyph unicode="&#x2013;" horiz-adv-x="990" d="M70 448v120h850v-120h-850z" />
<glyph unicode="&#x2014;" horiz-adv-x="1350" d="M100 400v138h1150v-138h-1150z" />
<glyph unicode="&#x2018;" horiz-adv-x="530" d="M128 1360q0 122 146 254q40 34 54 42q12 -18 40 -52q-102 -94 -102 -168q36 -14 52 -48q12 -20 12 -44q0 -50 -44 -84q-26 -16 -58 -16q-50 0 -82 44q-18 28 -18 72z" />
<glyph unicode="&#x2019;" horiz-adv-x="530" d="M162 1296q102 94 102 168q-36 14 -52 48q-12 20 -12 46q0 48 46 82q24 16 56 16q50 0 82 -44q16 -28 16 -74q0 -122 -144 -252q-40 -36 -54 -42q-12 18 -40 52z" />
<glyph unicode="&#x201a;" horiz-adv-x="494" d="M82 -168q102 96 102 168q-36 16 -52 48q-12 22 -12 46q0 50 46 82q24 16 56 16q50 0 82 -42q16 -30 16 -74q0 -124 -144 -252q-40 -38 -54 -42q-12 16 -40 50z" />
<glyph unicode="&#x201c;" horiz-adv-x="922" d="M160 1360q0 122 144 254q40 34 54 42q12 -18 40 -52q-102 -94 -102 -168q36 -14 52 -48q12 -20 12 -44q0 -50 -46 -84q-24 -16 -56 -16q-50 0 -82 44q-16 28 -16 72zM448 1360q0 122 146 254q40 34 54 42q12 -18 40 -52q-102 -94 -102 -168q36 -14 52 -48q12 -20 12 -44 q0 -50 -44 -84q-26 -16 -58 -16q-50 0 -82 44q-18 28 -18 72z" />
<glyph unicode="&#x201d;" horiz-adv-x="922" d="M234 1296q102 94 102 168q-36 14 -52 48q-12 20 -12 46q0 48 46 82q24 16 56 16q50 0 82 -44q16 -28 16 -74q0 -122 -144 -252q-40 -36 -54 -42q-12 18 -40 52zM526 1296q100 94 100 168q-36 14 -52 48q-12 20 -12 46q0 48 46 82q24 16 56 16q48 0 80 -44q18 -28 18 -74 q0 -122 -146 -252q-40 -36 -50 -42q-14 18 -40 52z" />
<glyph unicode="&#x201e;" horiz-adv-x="784" d="M82 -168q102 96 102 168q-36 16 -52 48q-12 22 -12 46q0 50 46 82q24 16 56 16q50 0 82 -42q16 -30 16 -74q0 -124 -144 -252q-40 -38 -54 -42q-12 16 -40 50zM374 -168q100 96 100 168q-36 16 -52 48q-12 22 -12 46q0 50 46 82q24 16 56 16q48 0 80 -42q18 -30 18 -74 q0 -124 -146 -252q-40 -38 -50 -42q-14 16 -40 50z" />
<glyph unicode="&#x2022;" horiz-adv-x="898" d="M300 950q0 -66 58 -110q36 -24 76 -24q64 0 108 54q26 38 26 80q0 66 -56 112q-36 24 -78 24h-2q-58 0 -104 -54q-28 -38 -28 -80v-2z" />
<glyph unicode="&#x2026;" horiz-adv-x="1200" d="M100 96v8q0 38 34 70q28 26 66 26q44 0 76 -34q24 -30 24 -62v-6q0 -42 -36 -74q-30 -24 -64 -24q-40 0 -70 28q-30 32 -30 68zM500 96v8q0 38 34 70q28 26 66 26q44 0 76 -34q24 -30 24 -62v-6q0 -42 -36 -74q-30 -24 -64 -24q-40 0 -70 28q-30 32 -30 68zM900 96v8 q0 38 34 70q28 26 66 26q44 0 76 -34q24 -30 24 -62v-6q0 -42 -36 -74q-30 -24 -64 -24q-40 0 -70 28q-30 32 -30 68z" />
<glyph unicode="&#x202f;" horiz-adv-x="387" />
<glyph unicode="&#x2039;" horiz-adv-x="636" d="M70 416v108q68 46 276 182l112 72q78 -114 78 -116l-294 -192q280 -182 294 -192q-26 -38 -78 -116q-2 0 -42 28q-76 48 -224 146q-30 20 -122 80z" />
<glyph unicode="&#x203a;" horiz-adv-x="636" d="M102 280q96 64 290 192q-280 182 -290 192q24 38 74 114q2 0 46 -26q74 -50 222 -146q30 -22 124 -82v-108q-70 -44 -280 -182q-26 -18 -110 -72q-76 116 -76 118z" />
<glyph unicode="&#x205f;" horiz-adv-x="484" />
<glyph unicode="&#x20ac;" horiz-adv-x="1352" d="M54 464v138h88q-6 32 -6 62v26q2 2 2 10h-84v2v138h106q16 62 34 106q22 46 58 102q20 32 58 72q42 46 58 56q54 46 88 64q48 32 114 56q116 42 230 42h8q178 0 344 -96q38 -22 84 -60q14 -14 18 -16q-32 -34 -94 -104q-78 70 -176 106q-88 32 -180 32q-180 0 -328 -114 q-20 -16 -54 -52q-48 -52 -72 -94q-20 -32 -38 -78q-2 -6 -8 -22h864v-138v-2h-890v-2v-26v-2q0 -36 4 -68h886v-138h-848q80 -184 262 -270q106 -50 222 -50q158 0 294 90q26 18 60 46q0 2 2 2q22 -26 94 -104q-46 -40 -84 -66q-170 -106 -364 -106h-4q-178 0 -340 92 q-34 22 -72 52q-22 14 -66 58q-48 52 -68 82q-32 46 -58 102q-14 34 -28 72h-116z" />
<glyph unicode="&#x2122;" horiz-adv-x="2440" d="M16 1324v2v138h922h2v-138q0 -2 -2 -2h-390v-1024h-140v1024h-392zM1040 300v1164h176q0 -2 114 -206q70 -126 212 -378q28 -52 112 -202q2 4 48 84q72 132 218 392l148 268q8 14 26 42h172v-1164h-146v924q-52 -94 -210 -376q-48 -88 -196 -350l-2 -4h-116q-4 2 -34 58 q-74 134 -224 400q-36 68 -150 272h-2v-924h-146z" />
<glyph unicode="&#x25fc;" horiz-adv-x="950" d="M0 0v950h950v-950h-950z" />
<glyph unicode="&#xfb01;" horiz-adv-x="1064" d="M28 810v2v136v2h170v18q0 224 100 360q10 16 40 44q32 32 58 44q28 16 56 26q58 22 110 22h30h2v-138l-2 -2h-22q-124 0 -188 -128q-44 -92 -44 -238v-8h254l2 -2v-136l-2 -2h-254v-808v-2h-138q-2 0 -2 2v808h-170zM730 1360v8q0 38 32 70q32 26 64 26h8q38 0 70 -32 q26 -32 26 -66v-4q0 -44 -36 -76q-28 -22 -60 -22h-6q-44 0 -76 38q-22 28 -22 58zM760 0v948l2 2h138v-2v-948h-138h-2z" />
<glyph unicode="&#xfb02;" horiz-adv-x="1050" d="M28 810v2v136v2h170v18q0 224 100 360q10 16 40 44q32 32 58 44q28 16 56 26q58 22 110 22h30h2v-138l-2 -2h-22q-124 0 -188 -128q-44 -92 -44 -238v-8h254l2 -2v-136l-2 -2h-254v-808v-2h-138q-2 0 -2 2v808h-170zM770 0v1462q2 0 2 2h138v-2v-1462h-138h-2z" />
</font>
</defs>
</svg>
